<mxfile host="app.diagrams.net" modified="2024-01-04T09:31:43.594Z" agent="Mozilla/5.0 (Windows NT 10.0; Win64; x64; rv:121.0) Gecko/20100101 Firefox/121.0" etag="x6jykH5V4TgsCAftPvPk" version="22.1.16" type="device">
  <diagram name="Page-1" id="7aezUlVURkj1yS1qyK6M">
    <mxGraphModel dx="2867" dy="2172" grid="0" gridSize="10" guides="1" tooltips="1" connect="1" arrows="1" fold="1" page="1" pageScale="1" pageWidth="850" pageHeight="1100" math="0" shadow="0">
      <root>
        <mxCell id="0" />
        <mxCell id="1" parent="0" />
        <mxCell id="nN1L02kMa0WjFF6xDIdd-3" value="" style="whiteSpace=wrap;html=1;aspect=fixed;" parent="1" vertex="1">
          <mxGeometry x="-134" y="-28" width="575" height="575" as="geometry" />
        </mxCell>
        <mxCell id="nN1L02kMa0WjFF6xDIdd-15" value="" style="ellipse;shape=cloud;whiteSpace=wrap;html=1;" parent="1" vertex="1">
          <mxGeometry x="-165" y="-79" width="621" height="603" as="geometry" />
        </mxCell>
        <mxCell id="ICR03PwGj1cyag1lzL8s-3" value="" style="rounded=1;whiteSpace=wrap;html=1;" parent="1" vertex="1">
          <mxGeometry x="51" y="174" width="195" height="66" as="geometry" />
        </mxCell>
        <mxCell id="ICR03PwGj1cyag1lzL8s-111" value="" style="rounded=1;whiteSpace=wrap;html=1;" parent="1" vertex="1">
          <mxGeometry x="54" y="181" width="55" height="51" as="geometry" />
        </mxCell>
        <mxCell id="ICR03PwGj1cyag1lzL8s-38" value="" style="whiteSpace=wrap;html=1;aspect=fixed;" parent="1" vertex="1">
          <mxGeometry x="609" y="-28" width="580" height="580" as="geometry" />
        </mxCell>
        <mxCell id="ICR03PwGj1cyag1lzL8s-66" value="" style="ellipse;shape=cloud;whiteSpace=wrap;html=1;" parent="1" vertex="1">
          <mxGeometry x="572" y="-61.5" width="603" height="603" as="geometry" />
        </mxCell>
        <mxCell id="ICR03PwGj1cyag1lzL8s-11" value="" style="rounded=1;whiteSpace=wrap;html=1;" parent="1" vertex="1">
          <mxGeometry x="112" y="296" width="133" height="60" as="geometry" />
        </mxCell>
        <mxCell id="ICR03PwGj1cyag1lzL8s-6" value="" style="rounded=0;whiteSpace=wrap;html=1;" parent="1" vertex="1">
          <mxGeometry x="59" y="56" width="291" height="100" as="geometry" />
        </mxCell>
        <mxCell id="ICR03PwGj1cyag1lzL8s-25" style="edgeStyle=orthogonalEdgeStyle;rounded=0;orthogonalLoop=1;jettySize=auto;html=1;exitX=0.5;exitY=1;exitDx=0;exitDy=0;entryX=0;entryY=0.5;entryDx=0;entryDy=0;" parent="1" source="ICR03PwGj1cyag1lzL8s-2" target="ICR03PwGj1cyag1lzL8s-11" edge="1">
          <mxGeometry relative="1" as="geometry" />
        </mxCell>
        <mxCell id="ICR03PwGj1cyag1lzL8s-74" style="edgeStyle=orthogonalEdgeStyle;rounded=0;orthogonalLoop=1;jettySize=auto;html=1;exitX=0.5;exitY=0;exitDx=0;exitDy=0;entryX=0;entryY=0.5;entryDx=0;entryDy=0;" parent="1" source="ICR03PwGj1cyag1lzL8s-2" target="ICR03PwGj1cyag1lzL8s-3" edge="1">
          <mxGeometry relative="1" as="geometry" />
        </mxCell>
        <mxCell id="ICR03PwGj1cyag1lzL8s-2" value="" style="rounded=1;whiteSpace=wrap;html=1;" parent="1" vertex="1">
          <mxGeometry x="-62" y="243.5" width="60" height="60" as="geometry" />
        </mxCell>
        <mxCell id="ICR03PwGj1cyag1lzL8s-36" style="edgeStyle=orthogonalEdgeStyle;rounded=0;orthogonalLoop=1;jettySize=auto;html=1;entryX=0.5;entryY=1;entryDx=0;entryDy=0;" parent="1" source="nN1L02kMa0WjFF6xDIdd-6" target="ICR03PwGj1cyag1lzL8s-20" edge="1">
          <mxGeometry relative="1" as="geometry" />
        </mxCell>
        <mxCell id="nN1L02kMa0WjFF6xDIdd-6" value="&lt;div&gt;API Gateway&lt;/div&gt;&lt;div&gt;(Ingress)&lt;br&gt;&lt;/div&gt;" style="rhombus;whiteSpace=wrap;html=1;" parent="1" vertex="1">
          <mxGeometry x="81" y="386" width="131" height="78" as="geometry" />
        </mxCell>
        <mxCell id="nN1L02kMa0WjFF6xDIdd-9" style="edgeStyle=orthogonalEdgeStyle;rounded=0;orthogonalLoop=1;jettySize=auto;html=1;entryX=0.5;entryY=1;entryDx=0;entryDy=0;" parent="1" source="nN1L02kMa0WjFF6xDIdd-8" target="nN1L02kMa0WjFF6xDIdd-12" edge="1">
          <mxGeometry relative="1" as="geometry">
            <mxPoint x="680" y="360" as="targetPoint" />
          </mxGeometry>
        </mxCell>
        <mxCell id="nN1L02kMa0WjFF6xDIdd-10" style="edgeStyle=orthogonalEdgeStyle;rounded=0;orthogonalLoop=1;jettySize=auto;html=1;exitX=0;exitY=0.5;exitDx=0;exitDy=0;entryX=0.5;entryY=1;entryDx=0;entryDy=0;" parent="1" source="nN1L02kMa0WjFF6xDIdd-8" target="nN1L02kMa0WjFF6xDIdd-6" edge="1">
          <mxGeometry relative="1" as="geometry" />
        </mxCell>
        <mxCell id="nN1L02kMa0WjFF6xDIdd-8" value="&lt;div&gt;&lt;font style=&quot;font-size: 14px;&quot;&gt;DNS&amp;nbsp;&lt;/font&gt;&lt;/div&gt;&lt;div&gt;&lt;font size=&quot;3&quot;&gt;name&lt;/font&gt;&lt;/div&gt;" style="rhombus;whiteSpace=wrap;html=1;" parent="1" vertex="1">
          <mxGeometry x="462" y="581" width="90" height="90" as="geometry" />
        </mxCell>
        <mxCell id="nN1L02kMa0WjFF6xDIdd-12" value="&lt;div&gt;API Gateway&lt;/div&gt;&lt;div&gt;(Ingress)&lt;br&gt;&lt;/div&gt;" style="rhombus;whiteSpace=wrap;html=1;" parent="1" vertex="1">
          <mxGeometry x="814" y="399.25" width="100" height="100" as="geometry" />
        </mxCell>
        <mxCell id="nN1L02kMa0WjFF6xDIdd-13" value="&lt;font style=&quot;font-size: 18px;&quot;&gt;USA&lt;/font&gt;" style="text;html=1;align=center;verticalAlign=middle;resizable=0;points=[];autosize=1;strokeColor=none;fillColor=none;" parent="1" vertex="1">
          <mxGeometry x="-129" y="-24" width="60" height="40" as="geometry" />
        </mxCell>
        <mxCell id="nN1L02kMa0WjFF6xDIdd-19" value="&lt;font style=&quot;font-size: 18px;&quot;&gt;K8S&lt;/font&gt;" style="text;html=1;align=center;verticalAlign=middle;resizable=0;points=[];autosize=1;strokeColor=none;fillColor=none;" parent="1" vertex="1">
          <mxGeometry x="76" y="2" width="60" height="40" as="geometry" />
        </mxCell>
        <mxCell id="nN1L02kMa0WjFF6xDIdd-26" value="" style="shape=image;imageAspect=0;aspect=fixed;verticalLabelPosition=bottom;verticalAlign=top;image=data:image/png,iVBORw0KGgoAAAANSUhEUgAAAPoAAADJCAMAAAA93N8MAAABL1BMVEX///9ChfT7vAXqQzU0qFP7ugA+g/Q6gfT7uQAqpUwwp1BwofaLsviEyJVmu3szqUo7lqrpNiXqPzDpOirtQCf8wADpPC01f/Tr8v793Inj7P3sWU3pMyDb5/3qQTZPjvX86OacvfmtyPp4pvf6tAb+9dv93Yzv9f6gsi/xiYH97+74wb3+9/b61NHM3fyaZp1VkvX//PP/+ur+8Mf8zlX8wyX1rqnvd2/uZ1zrUEPubmT2tbD4xcHylI23z/v73dvsTTDvbSf2nBT4qA/956z8yEH92Hn+7cDf8eT80mTP3/zzoZvzm5bZzN2cZZntYFTzhHmTYaHtWizygR/1kRj6vVf+5KKTt/jzhx/uYBv3pEBkmfZLsmqb0qnn9euHvMjd5sFywIW338GOzJ7H5s9le8spAAAML0lEQVR4nOWdeVvbSBLGLRtJ5koiaZEB21jGMYwvxmAw+CQJ9zGBnWRhdh2YTTbf/zNsy7LxJcuqPsXM+8dkZpIH+5fqqq7uruoOhfgqb5UK1Zvc4VE8Ho8g1eLxo8PcbbVQsvJFzt+Fm4qlRqsejyQSmmGYuh55ka6bhqElEmat3mqU/mL8RavQujM0zRgmnpSu238m3ipYfxF+q5CLJxKGJ/TIXwAaAfFcwRL9vUllVY8imn/sIfxIvWqJ/vb4Or45Smhg7Bd8LVFvWKIZcJRv1HV87j595L752vy+1IpoJhm3I1OL31iiafyrWDjUDBrcXSHT50qikfyp2LgzqBh8IMM8fAXw+WqN1MPdZGqBh2/E4TOZT3g90PDNI1bgDnzOEk04RceHLMFtGbVqEKe6/G2EcnBzkW4cBW/UF+L0pjMvmWYrL5p1RPkc67E+kBEPkuGbNT4md6Qbt0Hx+GKLxUzuJe3oWDR0V9YdT5M7MvWCaGykAj8vH1biVjR4qJUQAY6k1cU6fL6uCSK38xtLILnFaTJ3lxkRN8uVOORvXtITvwkib4oJcAP947O6KYS84b2pzoNcUoSwV0W6eZf8V0WSlFj6b0j+WbKlqLzZxZP/KklC2BuBIefNXhAe4QbkiF3hF+uakSCR2/BtTuTHtYCRI+1wIbfuxOZwbuRKKskD/VBwiHMhR+ydVfbkLXFrtenkkqRmmJNXg0kuSczTumPRfv55Cjma4tiGuuKd2ODezdunap0lek5siJs62h13X2RIXhC1EeeHnKm752nZ3K4RtGWazr+YvtzIe7Tb7q5es0K/pxDjdFMzIvH722qhWSpZ1nGp1Gzc5I5q5swSs+kRbsBeZkROPtxNI3KXaxy77SIfN1tHES/zz7Q5wyFfJFy06FrksOqK3ZdVyNWm1V35sLltdoVJQksW3U3dV/1fvnkYcRv5syLcC3uHAXmJII3TjVrL9565dROfOL70NdqdIc9g/VonqPiswar+8tUxeL8272qbNnkB2+hG7QZcB1GsDp/r+Lc5kvpImbyIuz1hmnhlT/mW3g94IJujSEc5n73BjHFaHftc7LhuYJBTX75aeEbXIzcEJ8HFG3s6hZIjdqoTHJ7RiQt+SncanFxSaJo9j5XNaDniMq/8/T/B5Iid4sodx+i6dkPjo9MxDHR6Zs9jeLoeoVTo08YwOz1vxzhg0+lVPOwAJvU++hKlz/axK7WxMUZeo1jYhsFOa6+qOc3oG44i+gckXdf7/41sbtH5aEdwdlonkIcu68gu4u8fv3z9dHLy/v17WY6if56cfPr65ePv6LcoFzO2Y0B4pUwlkz8eH+5d6i+f3odXugoP5PyPlZN/nWZ3aXz0i9rQOK9SWcC1jDFuG3sUeULR6Mr+Q5bGp/f0CGRXaOzO5uP6CPcfJ2FvbEfIBcIHW/ToF1UYOo1ANwhyGxsfvpzMMPcofjR6Rsv22ymYu9MIdP19KWTwr1EAd59+5apC/iWQdmBDnsJOVb7mgEc+noC5HXhZ3j+lEfRgKa0iEWd03d0ZfPCe6c9OydG3y6AhTz7i70001InAHdOfXRCzwzIb4hGfryEf/0QI7lie3OeXIFGeeKOqaX74I0oO3oVfWSN0+XWI1aUYYUlZ698ndMDDNEZ9GmR2slX77n8ombwPf05k+NUUBF0iMXv2jCK3A39GlOJsQiY4Rc1gu/vDikwbHXn8AwH6KoAcSU1h7tKdy/TJu4OegB0U5HHLZ/fOogzAbUX397DRkxIslVdiGfDKPXvAwuSO5AN8hweu4OziIiB7loGbD7GHsdObNhRdUsugGtIKEzenwQ4MdF12yNqdNTkJewa+PwvYt6hEWZMTsIO36SDsbP18wI4X69aBMd5hT/nydz7kdnKDx97BQPe3O73LcFYbYz/Amt8fwTHeljp7+b67z4vcTuhx0OHTm8M+8xzunFUO56YoTk4LTej6mlVJecrP5l12jDC/DVm5DmlGrwCvENcnX4OTo1wWz+oozHtMcbtnfMnx1nAYSY0jr9qqtVdgc+A21Sj71CVshSc4NnloExtdmnYuwXe4Y5Pjzm62ph3AbnEl38IlDyUxsvi+3Ic81+iOb3MydMk1mb96JeShJG6E75rdpXD64rWQ463d+nI5geWZu5ORk6G7TO4X/HJ3gghHAV2KjTfD8ZvYCG1OjD4+wfHzdGJyUvTxClpunk5OTo4+4u0VbHJZlqOyI/tXDuShdVVVFaIgP7yCO8dDR6wH+2sXlWx2L5utnJ6frcyAlymQh7Y3N9OZTkpRsVdwQ5sWu2EcdMS9Vhk9L8+e7oc9drKpkPf/Aq7THRUzm08Nfswpxswmy/sXbnUC2a2pCTFN8q6Sjyks+NhgvwY+s3kVh+yduw8i6uRIq48SBvyg1iQLBUdoD16VIZV9l2FEI8K5aD2DY/j+ImYLOt5nl4WsTRieETlSG1g+Kw01/ULHu3w1++zgdIydHTly+TLU8P0Rvwcl90VRGTnFIc3bvbUKLThQev3OwPjutxamMhTpWdrc1jaUvRfjYfmMfOX3+1RexjxrcmR34CFkb8cCtDEln/kv+nvo/WC2o93ROizWOXeZZEHkoJNhZ8+Lvc1t7cDyWsWe3kCuLoMK/roH1jxsbgt2+Nx1doirQ4+FT2VONg9BWwW6SxjIrC4DT0Z393nZPAQ8mrDv6toFRDl5H/p1LnjZ3BYoypdhCY1MoYWFoUBmV7ZDFf9RTj6g265JXZCig1gSEuBZrDqpChLkUYh/8I+OU/7BVdeQq3s2QeUEotFmCVJmg2Y3/6eM8PjOXYBaE2UJMK3L/KZoXAEKLpTFkP/iyGiwpzZbkJ7fDgQ96FEuFEoCQnw5dOCXPByleQ0BG62C0H2Th+Xgo28DZrcUAD2M36jESxB0CYD+CgY8DP3v6utKGRLhybvvWQsY4f2jk3Sj8hFsXgdkcyTNqHwEy+YAOfyBaLKZguTwGUhlrBz02Q24coOs14OexAPX65BdGqwOJY4C7dK0Q1nICUSwZ3ZQQ1AsCduRDXaMh23Er4K6GeWVQAc60PGLXUUFOn0JstnBpy+hNVBlQXC3K4BnbvYBO6gcHHK8zlkYJ62g8/XgHkPswMpm1W6dLKxrO6DnbklgBZlTKwrraZRXgrh2XQXWj/VauoG9H/JK8ELdagdaQeXUDO6ByO0q0aDZPQklV5Te/Q3QFgg5HKxNix1wpejL+2eAxVuPXb4KTja/nYY3hLzcQJiFX6cnHwTF8DsdeDfEUAsIRtOPLNO4IJVY1xkFpx5+0O+F1d8X/eXb06VAahTX24s44CMPQUGqqF7M/svCwvzcm6efz0Kwt5Obiynsxp+h+3lgSxiHfM7Wwvz8wtybN9+XsfTnEpYyi4spScXt+RnrZga3gPTIHXzEj6W372IqllC6TtLnNvreHbB5fZgcX2/fEdw6ga+xXmZYeyMdclHo463MkPkNRbhXjD5xVQfA7JRsLgp98jFX395Oy+aC0F2uJPJ7Hw81m4tBd30twN91axTJhaC7Xju35yelo0kuBN39ksmH2ehUyUWgT7mAy8cdVFTJBaAr025RnnUVE12bC7H61BdRvMsMaJPzR59+35z3lUTUybmje77g6nE1On1y3uied0t6XM1DL4cThq7OeB1hirszsDlvdA9H7+nKLaljQs4X3ccrnm6zOxtyruiqn2f99iZCHSNynuhKx9eLEOOZDStyjug+74e3zx9lHuT80FW/5MO3TLAk54YOIB8e8wzJeaGrKdDLL/20jiU5J3TVX4QbqPfOEUtyPugx+LNuu1cyW5vzQXe7Mne2tljk7XzRVQXzbeb/fpt/3ehqB/ux1ufv8yztzhhdUZdIniJ/mmNoeKboipoifIj8kqHhWaIryhLoLTNX/fjGCp4heqyM+WrjqJ5ZjXpm6Gpqk8TLh3W5vMACnhG6Kj2Sj/Vh+Hn6w54JuiotET7GPAn/vzna8PTR1VgqTdPifT2jgEeVnjK6osYW27R8fEK26enR00RXVLWcpj3SR/X8c/nb23k6QY8auhqLdR4n6kRY6PLHd7tUboHU/OToioJGuZpaarO19zj+8pu5l+K/BSy9fRdTcKUiS8diUjmT3uGJ/aLny58/np6Wl5ff4OnPRTxllpYe05s716tEQe3/TQP0DclRUEAAAAAASUVORK5CYII=;labelBackgroundColor=none;fillColor=#182E3E;strokeColor=#FFFFFF;fontColor=#FFFFFF;" parent="1" vertex="1">
          <mxGeometry x="355" y="-24.000000000000014" width="70" height="56.28" as="geometry" />
        </mxCell>
        <mxCell id="nN1L02kMa0WjFF6xDIdd-27" value="" style="shape=image;verticalLabelPosition=bottom;labelBackgroundColor=default;verticalAlign=top;aspect=fixed;imageAspect=0;image=data:image/png,iVBORw0KGgoAAAANSUhEUgAAAOEAAADhCAMAAAAJbSJIAAAAYFBMVEUAidb///8Ah9UAhtUAgtQAftM1l9oAgdQAhNV6tOTI3/N0suPd7Pirz+3D3fK11O/4/P7w9/yJvOdiqeCcx+o0ltrl8PrV5/ZNoN0jkdlpq+Gky+yPwOi92PDs9PtWpN4Gzlh4AAAMMklEQVR4nOWd63aqMBCFyU2iVVGUVq227/+WJ4gIQhJymUE43b+6Ts+yfJJkJjvJJCHo2q9X2TH/OJwWxTkpdS4Wp8NHfsxW6z3+n08wP3x9u14KLlIuJWNUKalU/siYlDwVvLhcb2vMh8Ai/MzyRarQGEvsUqQ8TRd59on0JBiEn5sLFZzRAba2KOOCXjYYlOCE22UipBddQylFstxCPxAo4S47pH7vTvMu00O2g3woQMLbQTXNCLpaqsEebnCPBUX4tZQgeDWkXH4BPRkM4aYQcHgPSFFsQJ4NgPAnV0EBmO/OKHn+MwHC9QX89bUgxSU6G4gk/Doh8lWMp8gOGUW4xuaDYIwg/Pwdga9i/I1IdoIJd8uR+CrGZXAWEEr4DRj9XCTl96iEX2cek5uFiPJzWHcMIvwYsYE2YuJjJMIbk2/gKyVZwMzDn/Agxm6gjai4oBOuBiftuGJ0hUuYv/EFVqIiRyTcF+/qgW3Jwsuh8yHcjh4i9KLcZ8DxILy+vYXWouKKQfibvhuspfQXnHB/fu8Y2hU7u3ZGR8K1nEoLrUWl49zYjXA7mS7YiAq38caJcCPejaOVcLKqXAiP0wRUiEcYwutUARWiQ9QYJsynFCW6SodTuEHCSQO6IA4RXqcNqBCHGuoA4WQHmUZDw42dcKJh4lUDQcNKuJ0DoEK0hn4b4XoegArRlsBZCPeTy0VNotKShlsIz3MBVIjnEMLfaU2X7GLm+aKRcPKB8FXmsGginMkw2sg4oBoI9xMxndxFuWG0MRAWcwNUiIUPYT4FX9RXUp+EawlXc+uElYTW8NcSRm3cep8ocyU8zCkStsUOboS3ebbRUrqQoSGcaRstpWunfcKPOY6jtWR/IbxH+DXfNlpK9LYz9AjHWp9A6gqsN8voEn5znL/cEWUXJETe3XfTIdyNk4+y5AcrL6R8ZyVcjtJG5YKs0CZnbGkj/BxlmElVYF7gtRXxaSEcZV5fLjZgjtid+f4L4RjmGhU37K/y1Xp7ITyNsB+WrZuvkuI0VXYyEY4Q7B97YS73r5L+nnAQX8J+mxD/FaZV8v9TfZU8QxrZXl5iixC/F9Ybth4xKVVJMM6X2u6JLcIL8iukIqv+0K6Khezy/BFa7KIj/EF+hVTWveNazV7S0nQ44mSJ4kdDmCMfnGi2+FTrIY+5HE4KznINIW7KzZvO/y3bD4FkPfM+4QZ14tveFPp4a/VogDOCy02PsEBspLS9TJtVjeW5XIQTMVjRJcSM9s0YU+qxaCefy+9LlNbzjPo1IeK0iZ3bZ+y2j/ggngPPDmUl9jmJqgnxeiF/yRLraRNt/SuOryBfCW9oI6l4nZDWvYFn/YYLK357IcSyuano2Cb1tClt/yPKOkltgFeEO6RxhqadxZI692WvJ0NQpoti1yLMcBopS7rneOvct0OOkjE+OkKC2EjlosNH9g+SnvuOsWD5aKYVIUqGn/Yd9jr3Zb3FTIzFkrQh3GI0Us2Ouudcqb+JKUP4kquDJ3dChHBPU81C12PapN3gg+AQV0H/Tgg/g2GJ7mxynbxIzYZJhLSRJjUhfO4rF7qDyd/1cCJ0G0MQRru7N1wSgk+cUv05yLqp0JPut3v4l3ifQpWE0AaNYQf9M+i+ZGyNruAR455XlITAxqwwFJd5rkym+t/DDweUVoTA3ZAZjuo+V5tM/4HcwCNG2RET8JQtNewve642dXNVzX+BUtkfEmiTTRq2QT6jwb3p6AXuSZe5UwL8zVHTds7n9KGfsTWCtsDp4k4I2vpTwzDTdHbbtnNwCzwtCdeQn0p704nu2+lvlmgL2gJP14oQ1MAwvaAmnOsytpaAIwa/KULIQMtMtTma0UybsTXawrZTNe4loBlNaqiT0/QvfcbWEqwFrmJvAml2c1MLbNqJIWNrBJt/sEIRwnVD87mOZgZvytgawVrgnCSAKb1+FzJpTZvMHbURrAUu9glcsGDGLtYMkOaMrfV9QA7u6TpZgX2eMJUcazwYS8bWEqQFzldJBtXs5dL4xM+xzJaxNYK0wGWWHIEIqTRVVGtt0rMeFGwEaIHLYwI1s0iNZ1WbzN6esTUCtMBZngCl8+aHb5lozlXl4Cxw9pEcYLq1MVK0m5xpctwXmAVODwnM1jLzCcd2jsKd63SBWeD0lMDMf4WxWOxLL0ida1hCWeB0kYB8lOHYGOm6oCxxLWEJZYHTIjlDfIw5kHeGamaaIfcEZYFD8KnGZ5ww9GwJ6VoWEMECD5fp9KZSP59IXarmlIK3wMPVP4nzlGbUN1niPWEdq/GX0cMmZKNL6x1TNwQLPFSWOK59DZQ6DqhARm70WGMyuYkxbjNzv30RiAV+jo6HRpObmM/BSd1pVo0AcmYVD2ObgsnkJsRytmmw9FElAAtc5TSReanR5FayfLQYstwqxU9eVV4aObewDIzWxMsSYdqKjhhqbhHX1m3emXWmbi2a0yh6F7iaH8bN8bvHGVsasHZtRXNairXA1Rw/qqkbTW4yPBBaiua4f0+Dkscor832HoYzZ+5kvEVa4DKL8kvN1oWT1eJUnTPSAuerGM/bbHI7hjKnATXOAk/XMesWRpObOEYyyl1uyomywMU+Yu3JbHITV7PMaUCNssB5xPohlZan0k6bNLI19KciLPD7+mHoGjC3jRPOuYimVEdPERb4fQ040C2wOvQek9fUwQcPt8Dv6/iBezFskcLL7bR+0EPBFvh9L0ZYuLBmJF4lIaiDTbwJDWnqs0P3RJlNbmKdNmnkYhOHztPT4H1tZpOb+PvVDjZxoAX+2NcWMLvQ1w2r5W1XO9jEYRb4Y29iwP5Ss8lNgqYDwzZxWOr12F/q/0QWk5uE+UfDNnFQUHvsEfbf523NmMO+7WGbOGA3er3P2zursZjcJDQ8UzY0oAZY4M+9+r7nLayL1aEO4LBN7D/mP89beHZE+w7RYFdEDrka/hb488yMp2fHljaF+H+USS5kMXTniO8Q1px78j27xmzyA6T3e8fPl+PWYS7s2wFaZ9dQzh8OScGlIvm9Zu63xXr2gNb5Q5wzpEZVjfK03Hz5Xr3p1wVaZ0hHq8l6b5RCNcpV2FXGXrvAX84BI53lbqtulLeoK4x9Zi0vZ7mxzuPfFd4o+/IJbC/n8ZGaqddI6SZ3C/y1pgJ8XYyAkdJJ7sU5O3UxAGubQDZKjZwt8E5tE8AD6wvF5nXJpKccDY1efRqwnXKL0+m0wJSjyd+rMQR2dIaiy+0xenWikGt9jS5NrS/kem1jS1OvDbvm3rjS1tzDrps4qrR1E9FrX44ofe3L+VzRNSxD/dIxygiPI1MN2rlfGtDIWEf4f3mJ5lrQ/8tLfLXk31CTHVu2muwj1dVHlrWu/kh3I6DKfjcCUi3RMTV0v8VYd5TgaeiOkvHumUHS8D0zc48YDncF/f/3Pf2BO7v+wL1rM747T7fBQHtqCel2FGzpD+v+0Tss//97SP/AXbJ/4D7g//9O5z9wL/fM5vshd6sj3ViAI9vJFAvhfjazYetxTQvhfExw6+ZUG+FcBlTjMDpMSDZzQBw4xmgnJMfpI2puKPAhnH5YHCxeMERI8mkjpoOHiQcJp404DOhASK7T7YuGCv6+hNMdboYGGWfCqQYNp9PuboQq9E8vgaP2QO9JSNaTy1GpdNzX6UhI9hNbz2hd+glEqOaLU4oaqVPZEE9CFTWm0lKpS5QIICTbidhTlLuNMf6EZF9MwUd93O2NQqhSuLe3VCqcytoEE5IVe++YyqhzHdtAQkIOb3yNVLgWB40hJFv2rt4omc8QE05IyId4R1NlwqEOChAh+TqPHjgoP7sVsYMhLPfdjPsaWW+fDDYh2S1HbKpMLIOPGAUTEvL5OxIjE7/OdcBBCdWc6jQCIxOnsA4IQaiGHGzGWL5oQvUeL4iMTFyizy9GExLyk3OJAUklzwHOngIQKm0K8BfJROFkNA0KhlB1yKUEjJCMy2Vk93sKilDpdhAgkIyLg2vddgcBEqosIDukPGprI2U8PWSgB4hBCUttl4mQQZSUSZEsA2YPdoETKn1uLlT4vUv17gS9bCJSF6MwCEt9ZvkiTVUYGeqZ7F6VYJFnGHSlsAjvWt+ul4ILBapIW4eUyx8VWVkFhBeX6w0L7i5Uwkr79So75h+H06Korik4F4vT4SM/Zqs15sH9h/4BUmCWbxS50iwAAAAASUVORK5CYII=;" parent="1" vertex="1">
          <mxGeometry x="1103" y="-9" width="64" height="64" as="geometry" />
        </mxCell>
        <mxCell id="nN1L02kMa0WjFF6xDIdd-28" value="&lt;font style=&quot;font-size: 18px;&quot;&gt;DC1&lt;/font&gt;" style="text;html=1;strokeColor=none;fillColor=none;align=center;verticalAlign=middle;whiteSpace=wrap;rounded=0;" parent="1" vertex="1">
          <mxGeometry x="-134" y="512.5" width="60" height="30" as="geometry" />
        </mxCell>
        <mxCell id="nN1L02kMa0WjFF6xDIdd-35" value="" style="shape=image;verticalLabelPosition=bottom;labelBackgroundColor=default;verticalAlign=top;aspect=fixed;imageAspect=0;image=data:image/jpeg,/9j/4AAQSkZJRgABAQAAAQABAAD/2wCEAAkGBxMTERUSEhMWEhUVFRgXGBYVFhUXGRgXFRgWFxgVFxYYHSggGBslHRUZITEiJykrLy4uGCAzODMuNygtLi0BCgoKDg0OGxAQGy0mICUtMDUzLS4tLS0vLy0tLS8wLS8tLy0tLS0tMC8vLS0tLS0vLS0rLy0tLS0tLS0tLS8vLf/AABEIAOMA3gMBIgACEQEDEQH/xAAcAAEAAgMBAQEAAAAAAAAAAAAABgcDBAUCAQj/xABPEAABAwEFBAYGBgYGBwkAAAABAAIDEQQFEiExBkFRcQcTImGBkTJCcqGxwSM1UmKy0RRTc4KS0jM0osLD8BZDVHSz4fEVFyQlY2STlOP/xAAaAQEAAwEBAQAAAAAAAAAAAAAABAUGAwIB/8QANBEAAQMCAgkCBQUAAwEAAAAAAQACAwQRITEFEkFRYYGRofCx0RMyccHhFCIjQvFSYqI0/9oADAMBAAIRAxEAPwC8URERERERERERERERERERERERFqW+3MhjMkhwtHmTuAG8lbaq3a2+jPKQ0/RRkhvAnQu8d3dzKj1M4hZfaclNoaM1Mlv6jM+bT7leL82jmnfkTGwGrWtJGmjnEau+G7iu7sxtaSRFaTrk2Q+4P/m8+KhKKmZUyNfr3x9fOC08lDA+L4WrYbLZjzbfNXciiuxF7mWLqnGr4gKE6uZoDzGnkpUr2KQSMDgsjUQuhkMbtngKIiLouKIiIiIiIiIiIiIiIiIiIiIiIiIiIiIuBb9rLNHUBxkI3Rio/iNG+9cWfb7PsQZcXP8AkG/NR31cLMC7pj6KbHo6pkxDDzsPVTlFX429l/Uspzd8Vu2XbyM/0kTm97XA+44V4FbCTn2K6O0VVAX1b/Qj3UzWN8gAqSABqTkPNRe8ttIWsHUgyPI3gtDfarmeQ8woVel7zWg1keXDc0ZNHJunjqvk1dGzBuJ7dV7ptEzS4v8A2jjn0/xTTaPaeERSRxPxyFpaC0EtFcicWhyrpXOir5EVTNO6V13LRUtJHTM1WXx3oiIuKkrauq8X2eQSx0xAEUcCQQdxAI7jruUrse3v62LmWOp5Nd+ahSLtHPJHg0qNPRwTG8jbnfj9irUu7aSzTUDZMBPqydk8hXInkStS9NsYIiWtrK4fZoG19s6+AKrZFIOkJS22F9/4UJuhacPuSSN35GNu/FSx+3sp9GKNvMud8CFK9nL0/SYBIQA4EteBoHDPKu4gg+KqhTHo4nOOaPcWtd/CSD+IeS9UlTIZQ1xvdc9IUELacujbYtx5XsfVT1ERXCzSIiIiIiIiIiIiIiIiLXtv9G/2HfBbC8uFUzX0GxuqSC+r1NGWuLTqCWnm00+S8rLAWFit+Tc3CIiL6viIiIiIpRcmxz5AHzExsOYbTtkcj6PjU9yml3XPDB/RsAP2jm7+I5+CmRUMkmJwHHPoqyp0rBCdUfuPDLrl0uq1suz1qkzZC6nF1GD+2RXwXVj2HtJ1dEObnfJpVjoprdHRDMkqrfpqc/KAOp+/2VdHYS0frIv4n/yLWn2MtTfRa1/svaPxUVnIvR0fCd/X3uvI0zUA42PL8qmLXYZIjSWN0ftNIB5HQ+CwK6pYw4EOAIOoIqDzCjd7bHwyVMY6l/d6B5t3eFPFRZNHOGLDft+PRToNNRuNpW6vEYj39VXKlXR45onfVwDjHRoO/MF1OVB/kLh3rdMtndhkbSujhm13I/LVaUchaQ5pLSCCCNQRoQocbjFICRlsVnMxtRAWtdg4ZjHzjwwV2ouDsvfYtMXaoJGUDxx4PHcfca9y7y0LHh7Q5uSxksTonljxiEREXpc0RERERERERERERERFVm2Vi6q1Pyyk+kH73pf2g5cRWRttdXWwdY0VfFU82H0h4UB8DxVc4Vn6uP4cp3HFbHR1QJqdp2jA8vfNeUX3CvuFR7qddeVPNkNmgwCeYVcc2NPqjc5w+1wG7npxtjrm66XrHirI6Huc71W943nw4qy1ZUNMHfyO5e/sqLS1cW/wRnHaeG7nt4Yb0REVss6iItK23jFF/SyNZ3E5nk3Ur4SALlfWtLjYC5W6ijkm2NlGhe7vDf5qIzbKynUvHNn5VXH9TD/zHUKT+hqbX+G7oVI0XNsl8QS5MlaSfVJwu/hdQrpLs1wcLg3Ud7HMNnAg8cFrWuyskYWSNDmnUH/OR71Wu0uzrrO7EKuicey7e37ru/v3q01gtEDXsLHgOa4UIO8LhUU7Zhx2HzYpdFWvpnb2nMfccVU1yXi6zzNkboMnD7TD6Q+Y7wFbUMoe0OaatcAQRvBzBVWbQ3M6zzFmrDmw8W8D3jQ+B3qXbB27HA6InOI5ey6pHkQ73KDQyFkhhd4R7jFWmlomSxNqI9nocuhw4XtsUrREVss8iIiIiIiIiIiIiIiIte2WgRxvkOjGlx8BVVA7Mk5Z55ZDPgNwVkbaTYbK4fbc1v8AePuaq6wqk0nJ/IG7h6/4tFoaPVic/eew/wBKxUQBZcK6Ozlk6y0xNOmLEeTO176U8VXtGs4NG026q3fIGNLjkBfop9s/YBBAxlO1TE723Zny05ALqoi1TWhoDRkFiHvL3F7syi8SPABJNAMyToAN69qD7Z3wXONnYch/SEbzubyG/v5LlUTthZrHwrtTU7p5AwczuC83/ta4kx2c4W6GTefY4Dv15KJvJJJJJJ1JNSeZOq9UXXuvZuaYB1Axh9Z9RXkNT8FQOklqX7zu3e3PqtTG2Ckjws0bzt57fMFw6JRTZmwv2p/KP83LWtexEgFY5GydxBYfDMj4L2aOoH9e4914GkqYm2v2PsonRdi6do54CAHdYz7DySP3Xat+HctK12KSJ2GRhY7gd/eDoRyWDCo7XujdcXB6dfYqS9rJW2cAQefT8K0LmvmK0Nqw0cNWnUd/eO9dRVDZZ3xvD2OLXN0I+HeO5WRcN7NtEeLR7cnt4HiO4/50V3R1ol/a75vX87ws3X0HwP3sxb6fjceRXzaK6xPCWgdtvaYfvDdyOn/RQ3Yq0FlqDdA9rmHnTEPGraeKslQO+LJ1N4xv0a+Rj/EuAcPOp/eXmsj1XsmGwgHzt0XTR0uvE+nO0Ej62x9+qniIisVUIiIiIiIiIiIiIscjwASSABmScgBxJXmaZrGl7jha0VJO4KAX9fb53UFWxA5N4/edxPdu96i1VUyBuOJOQ82KVSUj6h2GAGZ82rY2uviObDHES4McSXUyJpQU4781G8Ky0Sizks7pXl7s1p4ImwsDG5LFhUl2Dj+me77LKeJcPkCo/RSrYEZzfufF67UONQwcfQErjXuIpn/T1IH3UyREWnWUWreFp6uN8h9VpNOJAyHmqqeSSSTUkkk8ScyVYe2D6WVw4uaP7VfkoFZ4S9zWDUuAHNxA+aotKPJlawbu5P4Wg0Q0Nic87T2A/JUk2SuEOAnlFc+w06GnrkbxXTz4KarFBCGNaxuQaAAO4CgWVW9PC2FmqOfEqnqah08he7kNw8zRERdlHWpbrDHMwskaHA+YPEHcVXd+XO6CTCe0x2bXcRwPeFZ6599WATxOZv1aeDhp+XIlQ6ylEzLj5hlx4H7cVOoax0D7H5Tn7++8KrqLfua8DBM1400cOLTqPmO8LUwL7RZtshaQ5pxWne0OBa7I5q2IpA4BwNQRUHiDoVydoLqdP1RbQOjkB7VfRNMWm/IeSx7I2vHZw06xkt8NW+408F3lqW6tRECciFkjr00xtm0lERF3UdERERERERERa1tkc2N7mDE4NJAG80yXwmwuV9AubBRPa+9MT+paey09rvfw5D414KN4VlOeetd/HvTAsfNUOmeZDt9NnnNayGMRMDG7FiovuFZMKYVz1l1usVFJdh3Ule3iyvkR/Mo/gW5c9p6qdj9wND7Lsj8a+C70sojma87D64Hsei4VLPiQuZvHpj9lZCIi1yyi4u1UOKyvp6pa7ycK+6qhl0mk8ROgkZ+IKyJYw5pa7MOBBHcciq3t9jdDI5jtQcjxG4hUelWFsjZhllzBuO3orvRcoLHRH68iLFWai5VxXmJoxU9too8d/HkV1VcxyNkaHtyKpnscxxa7MIiIva8oiIiKtr+ipaJafbJ/i7XzWhhXSv41tMp++R5UHyWjgWOnNpXfU+pWuicdRt9w9FIthZKPlZxDXfwkj+8pkobsQ36V5+58XD8lMlotGG9M3n6lUGkv/oP0HoiIinqAiIiIiIiIiIiIo1fuz4eTJEKOObm6B3eOB+Pxij4yCQQQRkQRQjmFaC0LddcUo7bc9zhk4eO/xVRWaMEh148Du2H2Pbbne9lS6QMY1ZMRv2j39ftXtEopDa9mHtzjIeOHou9+XvXKtNgkj9NjmjSpGVeFdFRy080XztI7jqLjurZlRHJ8rh5wzWnRKLLhTCuF11upjs1eHWR4HHtxgA97dx+Xh3rtqubDaXRPD2ajduI317lO7vtrZmB7TzG8HgVptG1gmZ8Nx/cO43+/XbhQ11N8N+u35T2K21y74ups7c+y4ei75HiF1EVjJG2Rpa4XBUJj3McHNNiFXstnms0gcasI0cM2nx0I7iu1ZdqsqSx072H+6fzUlewEUIBB3HNaEtzQOzMQHKrfc0hVgoZ4Sf08mG53h6gA8VYGshlH87Md48HS9lz5tqogOyx5PfhA86n4LeuW2SStLnsDBXs0rmPH471kguiFhq2NteJq4jlirRdBSoY6jW1pXj6NGHUi/LwxpXwaurG0/UnHzqiw2iYMY550aCT4LMoxtVeFfoGngX/EN+fkulVUCCIyHl9dnm5eKeEyyBnX6KLyOLiXHUkk8yaleaLLhTCsbdae6yWC2PheHsPMbnDgVPrDamysbI3QjTgd4PJV7hUh2RtNHOiOhGIcxQHzFPJWuiqosl+ETg7sfzl0VfpCAPZ8QZjuFK0RFpVRIiIiIiIiIiIiIiIiIta2WZsjHMdoR5HcRyK2UXxzQ4EHIr6CQbhV5arM6N5Y4Zg+fCncsNFMr9u8SML8g5gJr3DMhRKixtdSmmk1dhyPDjxGXlhoKaoEzL7dqxUWew2t8TsTDQ7xuI4UXiiUUVr3NIcMCF3NnCxyUxu29o5aD0XfZO/2TvXUVc0XSsl8TR5YsQ4Pz9+vvV7TaaFrTDmPuPboFVzaP2xnkff3U0RRyDaX7cfi0/I/mtr/AEji+y/yb/MrJukqVwvrjnceoUQ0cw/r6Lsoo/NtI31I3O9ogfCq5NtvWWTLFhb9luQ8d5XKbS1MwftOseHucOl17joZXHHDzcF172vwNBbGcTtCdQ3lxKipzzOZKy0SizlVWSVDtZ+zIbvNpVvBCyFtm9ViolFkaypoBUnID5KX3TdjY2doAvdmagGnADkvdHSPqnkNNgMz6dfOPyoqWwi5z3KI2ezPeaMaXeHxO5SW5bkMbhI89oVo0aCoprv1XeAX1X1LoqOFwe46xHIdLnuSquevfINVosOp85IiIrVQURERERERERERERERERERFzr9fSB/fQe8V91VEKKWbQD6A82/FRXCspptx/UAf9R3Llb0FvhH6/YLzRKL1hTCqe6nXXlKL1RMK+ByXXmiUXrCmFfbpdeaJResKYUul15ojIySABUnQDVesK7my8Wb3U0DQDzrX5KRSw/qJmxXtfba+Qv9rc1yml+GwuWxc909X235v3Dc3/mu0iLawQMgYGMGHmJVFJI6R2s5ERF2XhERERERERERERERERERERERERat4Q443t4jLmMx7wofRTpYuob9keSqdI6M/VOa5rrWBGV+I2jLHqpVPU/CBBF1DooHO9FpPgSujZbje7N5wDhqfyCkqLlBoKFhvI4u/wDI6Ak917fXPPyi3f8AHZakFhjY3CGih1qK151WGa6IXerTkSPdouiitHU0LmhjmAgZCwsPpuUUSPBuCVxn3Azc5w55/ksMlwZHC+ppkCF30UZ2i6Q/0HcehXUVUw/soO+MgkEUI1BXmilltu9kmZydxH+c1xbRdMjfVxDi3P3arN1Wi54DdoLm7wMeYGX1y4qwiqmPGOBXNopVctnwRCursz46e5cq7LvLnVcCGtO/eeCkqstB0bhed+FxYfc9rDhfeo1ZMD+wc0REWiUBERERERERERERFqW+3xQtxzSNjbxe4AV4Cup7lytsNpGWKHGRikfURs4kauP3RUV5gb1U9mslsvScmpldve40jjB0HBo+6BU655lEVkWnpHsLTRrpJO9kZp/boti79vLDKcPXdWT+taWD+I9keaj9k6K2U+mtDy7/ANNrWgeLq19y1L26L3tBdZpusp6kgDSeTxlXmBzRFaDXAiozB3he1VHRxLbo7UbLhcImZyslrSOtaFnAk6AZEVPerXRERERERERERERERFWfSTtdLHIbLZ3mPCAZXtNHVcKhjXerkQSRnmNKGpFZiKjYNibfM0S9UTiFQZHtDiDvIcajxVnbC3EbJZQx4Ake4vkpQ5nICvc0Ac6oikiIiIiIiIiIiIiIiIiIiIiIiIqO2wtj7ZeLmMz+kEEQ3ZOwV5F1TXge5W9cV0x2WBkMYyaMzvc4+k93efyG5U/scP8AzWHH+ufX2sMlPfRXmiIig/SLeFuidB+h9bQiTH1cXWZgsw17JpqVD/8At2+f/c//AFv/AMkRXPRfVSk20d7saXPdaGNGrnWdrQN2ZMdApJ0a7QWq02iVs8pka2KoBawUcXAA9lo3VRF0Lx6QGQ2x1mkhoxjg10uMmgwh1erDKnWlKrn2npVYHfR2Zzm8XyBh8g13xUO28+sbTv7Y/AxT64ejmzMjabS0zSkAu7bmtaT6rQwitOJrXu0RF1tjto3W5kkhg6lrHBoOPHidSrvVFKAt8+5au0e3kFlcY2gzyjItYQGtPBzzoe4Akb1r7YWxl22ARWVvVGRxayhJLcVXPfUmtdwNci4cFCNh9kjbXOfI4shYaEj0nu1wNJ0yIJPeONQRdxvSrJXOytpwEpr54Pku2OkOzus0k0bSZI8JMDyGOIc9rCWuAIIGKuXDMCq3XbA3eW4eop94SS4udcX/ACVababLusUooS+KSuBx1BGrHUyrnrv8CiK09j9pP06J8nVdVgkwUx469lrq1winpe5VVtbKG3pM8jEGztJbxDcJw+IFFOOh3+qzft/8ONQvaNgde8jXCodaWAg7wSwEeSIpR/3rj/ZD/wDMP5FPbvtwls8c5GAPjbIQT6Ic0OzOWldVof6I2H/ZYv4Qob0pXt1TY7BD2GYA54bl2B2Y4+XZJI7moi6F9dJcEbiyzxm0EetXAz900Jd5U4Fc6zdKrsX0lmGHiyTMeDm0PmFi2J2CZNE20Wqpa8VZECW1buc9wzz1ABGWdc6CTW/o9sUjCGRmF1Mnse805tcSD8e9EWrenSLCyGOWBnX43Oa5pf1boy0A0cMJ1ryyyJUouO8f0izxz4cHWNxYa4qd1aCvkqIvy6ZLLO+CTVuhGjmn0XDuPuNRuV07DfV9m/Zj4lEUau/pPicXddCYmtYXAtf1hc4FoDA3C3Mgk1Jp2VpTdKr8XYsrcP3pDUjwbQe9QW6LvdaJ44GGjpHYancNS6m+gBPgrhsuwNgZHgMPWGmb3OfiJ41aRh8KIi87MbcQWxwjoYZToxxBDqZnA8elyIB7lK1Rm2dwGwWlvVOdgd24nV7TS05io3tNCD3hW1dF8h9hZa5Mh1ON9NxYDjp4tKIvV/7QwWNgdM6hNcLG5vdT7LfmaDvUGtHSq7F9HZRh+/IanwDaDzKirBPedt17cp31LY42509lo8yeJVmWDo9sUbAHxmZ1M3ve8V5NaQB8e9EWncPSTBM4MnYbO4mgcXYo/F1AW+Ip3rWPST9K+L9Frgc4Yuu1wuw1p1e/Vc7bbYJkMTrRZahrBV8RJdRu97HHPLUg1yzrlQwi6/TPs/MIi7O1VmfYrye9opSUTx8CHOx05YsTfBXJdF5R2iFk0Rq14r3g72nvByK4+2uzAtsIwkNmjqY3HQ11Y77poM9xAPEGrrqvi13bM5lCw17cMg7Lt2IU9zgc+8IivdFXtm6VIC36SzytdwYWPHm4tPuXPvnpPe5pbZYurJ/1khDiOTBlXvJPJEW70r360RtsbDVzyHyU9VjTVrT3lwB5N7wsvRHdhZBJaHCnXODW+xHUV8XOcP3VENmNmZ7fL1shcIi6skztXne1hPpOOldB7jdFms7Y2NjY0NawBrWjQACgCIqT2w+tZv2zPwxq81Rm2H1rN+2Z+GNXmiKs+mVh/wDCu9UdaDzPVEe5p8l2+iyVpu9obq2SQO5l2IV/dc1dTa+4hbLM6KoDwccZOge2tK9xBIPNVNcd9Wi7Z3tLKZ0lhflWmhB3HPJwqCDvFERXsoJ0uPb+hxtPpGcFo35MfiPLOniFhPSnBhqLPLjpoSzDX2q1p+6oDtBfU9tkdNIOywZNaDhjYXAa95IBcdTTuAIrB6Hf6rN+3/w41Db/APrh3+9R/iYpl0O/1Wb9v/hxqG3/APXDv96j/ExEV4Kk+lGMi8JK+tHGW8sOH4tKuxQjpI2ZdaY2zwjFLECC0avjOdBxcDmBvqd9ERSq55Gus8LmeiYmFtOBaKLdVK7I7byWNvUvZ1sIJoK0cwk54SdRWvZO/epJeHSnHgPUQPL9xlLQ0HjRpJdyy5oi5HS7I02uMD0mwjFyL3FoPvPip/sN9X2b9mPiVSFvnlmc60S4nF7zV5GRcAOyDpkKZDQUV37DfV9m/Zj4lEVU9Hv1lZ/af/wpFeiovo9+srP7T/8AhSK9ERVh0zelZeU3xiW/dbCdnXAa9TOfASSE+4FaHTN6Vl5TfGJSfo8YDdkAIqCJAQd4MslQiKEdEcjRbJAfSdCcPg9hIHuPgrfVGbQXRNdtqD4yWtDsUMuuX2HfeAqCDqO4qWXf0px4B18Dw/eYi0tPfR5Bbyz5oind6yNbBK6T0BG8ur9kNNfcvz9dnpfu/MKS7W7byWxvURMMURIq2uJ8hrkDTQVp2RXPfuUcsDCJHNIoQCCDqCCAQURfotaF53RBaBhnibIBpiGY9lwzb4FERFTG2N2RQSlkTcLeGJzvxEqX7A7NWSWPrJIWyOFPTLnN8WE4T4hfURFYbGACgFAKAAbgvaIiKu79uWB9skkcyrjIw1xPGgZuBorERERFyL+uOz2lh6+JryAaOzDgK6B7SCB4oiIqmu26YX2vq3MqzhicPeDVWXetw2ZlikgZE1kbjGXBtQXEPZm5wOInLUlERF62Nu+OCCQRNwgyVObjngZ9olcG87lgNvMhZV/XsNcT9QWZ0rRfERFYSIiIontns7ZXxvmdC3rAK421aSeLsJGLxqoPsPccE81Jo8Y4Ynj4EL4iIpxtbclndHDGYgGMLsLW1YBWmgaQu1s9A2OzQsYKNDKAVJ47zmviIiiOzFxWeO0wyMZRwL6HG8/6t40LqKwkREUR22uyKcw9a3FhElO05tK9X9kjgutsvZ2x2aNjBRox0FSfXcdTmiIi6NssjJWlkrGyMOrXAEHwKqHbq5ILPMBDHgHDE8/iJRERTvYzZ+zRxNmZC3rD65q4j2cROHwouGdnbN18p6vMvfnjk+17SIiL/9k=;" parent="1" vertex="1">
          <mxGeometry x="-50" y="256.1" width="36" height="36.81" as="geometry" />
        </mxCell>
        <mxCell id="nN1L02kMa0WjFF6xDIdd-36" value="&lt;font style=&quot;font-size: 18px;&quot;&gt;Consul Peering&lt;/font&gt;" style="text;html=1;align=center;verticalAlign=middle;resizable=0;points=[];autosize=1;strokeColor=none;fillColor=none;" parent="1" vertex="1">
          <mxGeometry x="452" y="215" width="141" height="34" as="geometry" />
        </mxCell>
        <mxCell id="ICR03PwGj1cyag1lzL8s-7" value="Consul Server" style="text;html=1;strokeColor=none;fillColor=none;align=center;verticalAlign=middle;whiteSpace=wrap;rounded=0;" parent="1" vertex="1">
          <mxGeometry x="144" y="92.6" width="112" height="30" as="geometry" />
        </mxCell>
        <mxCell id="ICR03PwGj1cyag1lzL8s-19" style="edgeStyle=orthogonalEdgeStyle;rounded=0;orthogonalLoop=1;jettySize=auto;html=1;exitX=1;exitY=0.5;exitDx=0;exitDy=0;entryX=0;entryY=0.5;entryDx=0;entryDy=0;" parent="1" source="ICR03PwGj1cyag1lzL8s-10" target="ICR03PwGj1cyag1lzL8s-16" edge="1">
          <mxGeometry relative="1" as="geometry" />
        </mxCell>
        <mxCell id="ICR03PwGj1cyag1lzL8s-10" value="Consul Injector" style="rounded=1;whiteSpace=wrap;html=1;" parent="1" vertex="1">
          <mxGeometry x="189" y="300" width="51" height="52" as="geometry" />
        </mxCell>
        <mxCell id="ICR03PwGj1cyag1lzL8s-34" style="edgeStyle=orthogonalEdgeStyle;rounded=0;orthogonalLoop=1;jettySize=auto;html=1;entryX=1;entryY=0.5;entryDx=0;entryDy=0;" parent="1" source="ICR03PwGj1cyag1lzL8s-16" target="ICR03PwGj1cyag1lzL8s-6" edge="1">
          <mxGeometry relative="1" as="geometry">
            <Array as="points">
              <mxPoint x="370" y="326" />
              <mxPoint x="370" y="106" />
            </Array>
          </mxGeometry>
        </mxCell>
        <mxCell id="ICR03PwGj1cyag1lzL8s-16" value="Consul client" style="rounded=1;whiteSpace=wrap;html=1;" parent="1" vertex="1">
          <mxGeometry x="259.5" y="296" width="73.5" height="60" as="geometry" />
        </mxCell>
        <mxCell id="ICR03PwGj1cyag1lzL8s-113" style="edgeStyle=orthogonalEdgeStyle;rounded=0;orthogonalLoop=1;jettySize=auto;html=1;exitX=0.5;exitY=0;exitDx=0;exitDy=0;entryX=0.5;entryY=1;entryDx=0;entryDy=0;" parent="1" source="ICR03PwGj1cyag1lzL8s-20" target="ICR03PwGj1cyag1lzL8s-28" edge="1">
          <mxGeometry relative="1" as="geometry" />
        </mxCell>
        <mxCell id="ICR03PwGj1cyag1lzL8s-20" value="" style="rounded=1;whiteSpace=wrap;html=1;" parent="1" vertex="1">
          <mxGeometry x="117" y="303.5" width="59" height="45" as="geometry" />
        </mxCell>
        <mxCell id="ICR03PwGj1cyag1lzL8s-21" value="Frontend" style="text;html=1;strokeColor=none;fillColor=none;align=center;verticalAlign=middle;whiteSpace=wrap;rounded=0;" parent="1" vertex="1">
          <mxGeometry x="117" y="311" width="60" height="30" as="geometry" />
        </mxCell>
        <mxCell id="ICR03PwGj1cyag1lzL8s-99" style="edgeStyle=orthogonalEdgeStyle;rounded=0;orthogonalLoop=1;jettySize=auto;html=1;exitX=0.5;exitY=0;exitDx=0;exitDy=0;entryX=0.5;entryY=0;entryDx=0;entryDy=0;" parent="1" source="ICR03PwGj1cyag1lzL8s-28" target="ICR03PwGj1cyag1lzL8s-93" edge="1">
          <mxGeometry relative="1" as="geometry" />
        </mxCell>
        <mxCell id="ICR03PwGj1cyag1lzL8s-116" style="edgeStyle=orthogonalEdgeStyle;rounded=0;orthogonalLoop=1;jettySize=auto;html=1;exitX=0;exitY=0.5;exitDx=0;exitDy=0;entryX=1;entryY=0.5;entryDx=0;entryDy=0;" parent="1" source="ICR03PwGj1cyag1lzL8s-28" target="ICR03PwGj1cyag1lzL8s-111" edge="1">
          <mxGeometry relative="1" as="geometry" />
        </mxCell>
        <mxCell id="ICR03PwGj1cyag1lzL8s-28" value="&lt;font style=&quot;font-size: 10px;&quot;&gt;Backend&lt;/font&gt;" style="rounded=1;whiteSpace=wrap;html=1;" parent="1" vertex="1">
          <mxGeometry x="124.5" y="184.5" width="45" height="45" as="geometry" />
        </mxCell>
        <mxCell id="ICR03PwGj1cyag1lzL8s-32" style="edgeStyle=orthogonalEdgeStyle;rounded=0;orthogonalLoop=1;jettySize=auto;html=1;entryX=0;entryY=0.5;entryDx=0;entryDy=0;" parent="1" source="ICR03PwGj1cyag1lzL8s-29" target="ICR03PwGj1cyag1lzL8s-30" edge="1">
          <mxGeometry relative="1" as="geometry" />
        </mxCell>
        <mxCell id="ICR03PwGj1cyag1lzL8s-29" value="Consul Injector" style="rounded=1;whiteSpace=wrap;html=1;" parent="1" vertex="1">
          <mxGeometry x="179" y="180.5" width="51" height="52" as="geometry" />
        </mxCell>
        <mxCell id="ICR03PwGj1cyag1lzL8s-30" value="Consul client" style="rounded=1;whiteSpace=wrap;html=1;" parent="1" vertex="1">
          <mxGeometry x="259.5" y="177" width="73.5" height="60" as="geometry" />
        </mxCell>
        <mxCell id="ICR03PwGj1cyag1lzL8s-33" style="edgeStyle=orthogonalEdgeStyle;rounded=0;orthogonalLoop=1;jettySize=auto;html=1;entryX=0.812;entryY=1.007;entryDx=0;entryDy=0;entryPerimeter=0;" parent="1" source="ICR03PwGj1cyag1lzL8s-30" target="ICR03PwGj1cyag1lzL8s-6" edge="1">
          <mxGeometry relative="1" as="geometry" />
        </mxCell>
        <mxCell id="ICR03PwGj1cyag1lzL8s-37" value="" style="shape=image;verticalLabelPosition=bottom;labelBackgroundColor=default;verticalAlign=top;aspect=fixed;imageAspect=0;image=data:image/png,iVBORw0KGgoAAAANSUhEUgAAAOEAAADhCAMAAAAJbSJIAAAAulBMVEX////WJ4OWHVnTAHnTAHrVIYHVGX/TAHfVF37UD3z66vL99fn++fyOAEn0zd/21uXuss765/CRAE/rpMX54u3eX53yxdr88PbkgbDrpsbnkrrYMYjaQ5DpnMDol73dV5nfZ6LbTJTwutPliLTdW5v33OnidKnZPI3xwNfhbqbieKvtrsvfxdDu3uWdMWXGk6muX4PPo7fUrr68fpmaJF+mS3XDi6Tbu8m0bIyrV325epXp1N2lRnPTrLwgCbuWAAALl0lEQVR4nO1da3uiOBuuzUEiVjygoqiA1nNn2u52D+87u///by1YD5AEJTFM6Fy5P8x1TaspN0me85M8PBgYGBgYGBgYGBgYGBgYGBgYGBgYGBgoRdO27YbbsO1mU/ejKIbb2i+2wcTHEIIEkGB/EvUXo83yy1O1nf3Or8eULIwQql0Q/w9hi8A6Csebhu7HlEVrHJF4utLEOEAxz/WuPdT9tKJwR88QWjfIXVhiUp/MHN0PXRzD3gSSouwucwn9xZcg2Zw/g8KTR08lrI1d3QRuwF1g4dmjZjLY6CZxBa0+wHfQO5IE/kg3kRwMJvCe6UtxJHhaQUWpjN8BMUfdhCgsI6CQ34Gj1dZNKoXhSjW/BHDd0k3shBG8X77wgEC/EgbdckJK4ZcAwwqI1VkZC/QCGGi2WDtReRP4CUTmOgm2i2qIg69EYAyQ/EMO7lRBjmCrTTk2t7AIORwz8wNvut+0nKXrukvHGeynXn+NASlkwWKsiWBjbRVgV197bYe/l2x3M47qt50sMPjJzI5o3VqhiMDJYmPfGseZRtd9LTL+GXRY7MF1ehYI9kW12bDdz/e4cFAqj1yMrxJE0J+JKevYa+b7JQjdXAWlYHVNxmAYythbzhZyNjbQ4/eHV7SgBb2O5LCdBWP/wZ7SBy+Kfj5BDL17jBB7TDLzaIWqnlkI/VwtgcDqXlvZ9lJmIPK1KPswlyCMlgrG7/TPeghqiUut8pYohntFf2KAPrcj0OIEL/KkKOwrFOuLZKlanroBi2OUowcRUDWBn2hhjNZKRyyIQQ5BMlHtjTf7QIeD38lZoqCM9aRCaomi6XONRwSrFBa7C3w9gciXSKgUwYi7RrEva6RVDkuulMGTCgbgJbHmbUIr0kLQXi7VrxyPtwktLe7pfFKHEOCxWs/R4a1RHCn9G8UwPOWALKw0gMNTFHii8i8URCNV+1BXqKbGHHsb1XQEGCbpVw2UmQWdOmeNEh1qYp9RWUiZHHjmrFGgJflFSfS6IuN1wxEzetJCDWoxEUUuDUfMWCs1QwuiRdlVeKFk2D0rZhBSMrIwGIZbJcNy0kSawpgPy1LmsMdOoa5cwsMDxVBNdpGNtusJMBywyz4NVDHmiJ1CqMP//oSbmUSipOymxuxCS40Ak0MvpbksJXbxhvV7sVaXcHwOisNAyYNEzBTqDssM1sDC2IJETdaGFs9axcwJrelqu9goWkkeI0lhlQtAJcBOoQ6nsETMGVUBtVbwqEefljPI1/1IajFkppBUoJZOJdoMQ726UD2YRYq15PRKBOPb6/KaysKA1hW/mpx5WNDqXmcJvdsa8IJ7zmz7vNrLSgcmVQF15Zk6XlKZCmq0JG/5sY2KMAFyLnmD3obaTNL9sSAMET9TgHKpwSZSKaINrSssTcGLxeVVI5KimPYVpVIMzDaE90nSby/vr6/vv/0QTQZs0kHSlLBzM2tMxt9nXMN7oiIvv388dQ94evrj/ZvIV7NRhguTMDsDRHydMrqiLzzECb/F9B4v6D69Fec4zz4Hqh1/bt8dd3NphtK64tv3p0cK3ac/i36bCq+d98r98W/Gc4KSuZh3ht+B4/eCWRVaZ53mihaEOBR9sBmd1yZypaN/cgkmHIut1DyGzBwK28xbanVImmyveQRjioVmkTb/T6u0QTG0hCNTtCiVEzR/5RN8fPwoMsKYWkvwtJSoyRVPCNO6wpqJjhBjeI3gY/fvAkNQhTyXQFE7mw8WDg83aZuNyMRJ37rXGD4+vRQYI8i8a3BRCtmcvrA5wkRKZUTpj6tTGOM7/Y3h3Nt6vcyCy9jH6RKeRqrZBoirMlpU1YBE1fX/bhCkJ9FeQYIxtrLto4NLBxLJVJl11keOGEjEjwa0OgTiVtH1XcjuxCU6SRUM0+VA7homaVpk1WmN0PMTrwruZGremdy2RJPc+/VdeKCYem+ddItXttZj/lxDaM3rNWo4jmRJ/5QS0jLq8O0mwcenH5ePZyQHot+o8qOJaDUkE86/TfCx+3r+NJXIU5P+vALaO5SoP7JvbsOY4f/PHw+zGrj0iALD8Fl4iG8FGD7+cf44I7xL7uNWwPCmNkxw1ohD2sS4M6RwEz+doc0wLLlybkFLGvGygEKr9J/zx5lVWnJPiQJZat9Wh2mVT7lJpQfYaQdYRrR9FGCYqy2kfBkRTBU4wEU0fsowzWj8Giw7kcdYbRKxxCJWWyp62oG5Vls+3M1AskSLiXgD8bLuApb3W/rzjnW2vKmTFJxxMIl2bLxw5AMCAZLqPma8J5meVUnviYAwI0c7EbCSoxYhznLs+Edb3QISBRQOw1BCAUt4wL3ddkEdx5A6oQKkg6Ju2gMWr4dmTAxtUYxMfgKmskOZUFRdfALovIxU5klBJIoK+l2YZOtCJbQZHYlFofAQDzeiiY9FRmhRsbZzUJMqsBdvj6AjsZLezN0RYdp8JEeZTvfsise8mfShpqh+kBPzpoW9uOHMlAvJdsmozswciyNphS3eIcGoC/HEwBE/vjMStfv0e9FvT+g5HPCfD+9En2vIZEjl2zf+/XjK8hPIkNL5w9NmaVJzKNGZwNSwE+EhLnh56x6z3N3ux6tIlpvOAYenX2zvznKvVFcq/PVvUqnwIiiwmtmenYs0oCoVJJwtptPC0lMS1c7kLcLLL+6uNmFEjUQgQwm8CxNrnV6L0/q5Ymgt1dDKNiJoqvqagk+tj+kjBluTxOnABEpWhYZMklTPwVTJIVk4OZF/xWrk1rgfrEayMSvGzdfZazF0Swi9uWwFbdVPFBcF0x6rqCu1OqBjpr9eJTujLxQ1bVYIzDKtQF+XWrDLFGo6L7UssNJUl11TGmjnTNdpEeWB7QuqRHvecKjsXJUm26uuvcWyta1BiANVzbpsE6nmxplmWD8cwoOgryYLzsqamqIWYznY/lm8I0UiIWTXKdF4Z0GUehwkGd+kwNo1NSxetKAK2ZpSRUeb0BHZms6W/FLOGGpxThjStU6ZM4bUNO1yTonSZdncHwXmgndioqYTaphchXwbTwYccarJeGPmUJFHzj17VstWpMvrlXk6rBOly1MMSzhj6ADenSlatGL2hEqF0oBzDk88vo4z27yUs6N0GfV5t09AHZG38PyyLV9liS17QsaBog6d0SMkuamVQE9t3K/NW6cynSr3wx6F/iTsKZflPKVI1Sh9cdj8i29lsz5VBM8CTyRqqPvB1GHGP1bfivRc51MGnvkXHWL0y5zpknN1QA0B9ZGbJdKSyGNa9M/yRuUNJQlGEOsJ6Q14h0IfVqrSpFQjgMq8W1H0cq8jAytlJkbvs/ZXprJZAaa5FLFUETEL53yzKdBT+pF7W1C8Gyf3O/727nKlla5k5S7/3jwEgvsUR3OauXrN0rMVr81iDcG+PMfmFFMujKat+DC7dvshApFc8KQzJpwjizVVYeVdbHWaRzQWVtebPu/6Q33Zys2Ni44tEPUE3n7Lw3nXmuq5myzGku9LpV6+Bdczp4CKbLRX5NrN3rq24sPw9n3cMUkczAZXginufLGG5MbF5fpyed7VzXhhCXDg9TZOY2gfZ7RpD93BfLby6zG723cen4+++vmYF760GlsEgngp+uvJ2vdrOLm52ipALgFWe2GOGBqiN8ejA4S+AgO9/vW43MvjY8Wjs2bgAMcv8/54GFWhnnVcdDcKA+ufwE90glKWKqpvSz4XQwAD9UsVgUm1wlsjjtF8Dz+CqncvZg9dveVejB9zmm4l0Byp4YigX735O2Gec8m9ACwQVLsI2VmROyYSQTyu/q2mdjsAUiQRgaHuytWiGO6jmy4RBQzJc/tLJXhitxaDIq5R4ngQgLzBl6J3hNvereFVDzBpq4Nrr139vZePYWvvRcmB8cSyMEZHYCv2F2GdRF7b+Ypzx8J2W+3ebLEKgyAKnvvhbtZrt9xfrIPKwMDAwMDAwMDAwMDAwMDAwMDAwMDAoHz8B5aVqim7eOoRAAAAAElFTkSuQmCC;" parent="1" vertex="1">
          <mxGeometry x="71.21" y="65.20999999999998" width="64.79" height="64.79" as="geometry" />
        </mxCell>
        <mxCell id="ICR03PwGj1cyag1lzL8s-39" value="" style="rounded=1;whiteSpace=wrap;html=1;" parent="1" vertex="1">
          <mxGeometry x="829.5" y="313" width="133" height="60" as="geometry" />
        </mxCell>
        <mxCell id="ICR03PwGj1cyag1lzL8s-40" value="" style="rounded=0;whiteSpace=wrap;html=1;" parent="1" vertex="1">
          <mxGeometry x="776.5" y="73" width="291" height="100" as="geometry" />
        </mxCell>
        <mxCell id="ICR03PwGj1cyag1lzL8s-44" style="edgeStyle=orthogonalEdgeStyle;rounded=0;orthogonalLoop=1;jettySize=auto;html=1;entryX=0.5;entryY=1;entryDx=0;entryDy=0;" parent="1" target="ICR03PwGj1cyag1lzL8s-57" edge="1">
          <mxGeometry relative="1" as="geometry">
            <mxPoint x="864.0000000000005" y="403.00000000000045" as="sourcePoint" />
          </mxGeometry>
        </mxCell>
        <mxCell id="ICR03PwGj1cyag1lzL8s-46" value="&lt;font style=&quot;font-size: 18px;&quot;&gt;China&lt;/font&gt;" style="text;html=1;align=center;verticalAlign=middle;resizable=0;points=[];autosize=1;strokeColor=none;fillColor=none;" parent="1" vertex="1">
          <mxGeometry x="614" y="-24" width="65" height="34" as="geometry" />
        </mxCell>
        <mxCell id="ICR03PwGj1cyag1lzL8s-47" value="&lt;font style=&quot;font-size: 18px;&quot;&gt;K8S&lt;/font&gt;" style="text;html=1;align=center;verticalAlign=middle;resizable=0;points=[];autosize=1;strokeColor=none;fillColor=none;" parent="1" vertex="1">
          <mxGeometry x="793.5" y="19" width="60" height="40" as="geometry" />
        </mxCell>
        <mxCell id="ICR03PwGj1cyag1lzL8s-49" value="&lt;font style=&quot;font-size: 18px;&quot;&gt;DC2&lt;/font&gt;" style="text;html=1;strokeColor=none;fillColor=none;align=center;verticalAlign=middle;whiteSpace=wrap;rounded=0;" parent="1" vertex="1">
          <mxGeometry x="614" y="511.5" width="60" height="30" as="geometry" />
        </mxCell>
        <mxCell id="ICR03PwGj1cyag1lzL8s-51" value="" style="rounded=1;whiteSpace=wrap;html=1;" parent="1" vertex="1">
          <mxGeometry x="830.5" y="191" width="133" height="66" as="geometry" />
        </mxCell>
        <mxCell id="ICR03PwGj1cyag1lzL8s-52" value="Consul Server" style="text;html=1;strokeColor=none;fillColor=none;align=center;verticalAlign=middle;whiteSpace=wrap;rounded=0;" parent="1" vertex="1">
          <mxGeometry x="861.5" y="109.6" width="112" height="30" as="geometry" />
        </mxCell>
        <mxCell id="ICR03PwGj1cyag1lzL8s-68" style="edgeStyle=orthogonalEdgeStyle;rounded=0;orthogonalLoop=1;jettySize=auto;html=1;exitX=1;exitY=0.5;exitDx=0;exitDy=0;entryX=0;entryY=0.5;entryDx=0;entryDy=0;" parent="1" source="ICR03PwGj1cyag1lzL8s-54" target="ICR03PwGj1cyag1lzL8s-56" edge="1">
          <mxGeometry relative="1" as="geometry" />
        </mxCell>
        <mxCell id="ICR03PwGj1cyag1lzL8s-54" value="Consul Injector" style="rounded=1;whiteSpace=wrap;html=1;" parent="1" vertex="1">
          <mxGeometry x="906.5" y="317" width="51" height="52" as="geometry" />
        </mxCell>
        <mxCell id="ICR03PwGj1cyag1lzL8s-55" style="edgeStyle=orthogonalEdgeStyle;rounded=0;orthogonalLoop=1;jettySize=auto;html=1;entryX=1;entryY=0.5;entryDx=0;entryDy=0;" parent="1" source="ICR03PwGj1cyag1lzL8s-56" target="ICR03PwGj1cyag1lzL8s-40" edge="1">
          <mxGeometry relative="1" as="geometry">
            <Array as="points">
              <mxPoint x="1087.5" y="343" />
              <mxPoint x="1087.5" y="123" />
            </Array>
          </mxGeometry>
        </mxCell>
        <mxCell id="ICR03PwGj1cyag1lzL8s-56" value="Consul client" style="rounded=1;whiteSpace=wrap;html=1;" parent="1" vertex="1">
          <mxGeometry x="977" y="313" width="73.5" height="60" as="geometry" />
        </mxCell>
        <mxCell id="ICR03PwGj1cyag1lzL8s-57" value="" style="rounded=1;whiteSpace=wrap;html=1;" parent="1" vertex="1">
          <mxGeometry x="834.5" y="320.5" width="59" height="45" as="geometry" />
        </mxCell>
        <mxCell id="ICR03PwGj1cyag1lzL8s-58" style="edgeStyle=orthogonalEdgeStyle;rounded=0;orthogonalLoop=1;jettySize=auto;html=1;entryX=0.25;entryY=1;entryDx=0;entryDy=0;exitX=0.5;exitY=0;exitDx=0;exitDy=0;" parent="1" source="ICR03PwGj1cyag1lzL8s-57" target="ICR03PwGj1cyag1lzL8s-51" edge="1">
          <mxGeometry relative="1" as="geometry" />
        </mxCell>
        <mxCell id="ICR03PwGj1cyag1lzL8s-59" value="Frontend" style="text;html=1;strokeColor=none;fillColor=none;align=center;verticalAlign=middle;whiteSpace=wrap;rounded=0;" parent="1" vertex="1">
          <mxGeometry x="834.5" y="328" width="60" height="30" as="geometry" />
        </mxCell>
        <mxCell id="ICR03PwGj1cyag1lzL8s-108" style="edgeStyle=orthogonalEdgeStyle;rounded=0;orthogonalLoop=1;jettySize=auto;html=1;exitX=0;exitY=0.5;exitDx=0;exitDy=0;entryX=1;entryY=0.25;entryDx=0;entryDy=0;" parent="1" source="ICR03PwGj1cyag1lzL8s-60" target="ICR03PwGj1cyag1lzL8s-72" edge="1">
          <mxGeometry relative="1" as="geometry" />
        </mxCell>
        <mxCell id="ICR03PwGj1cyag1lzL8s-60" value="Backend" style="rounded=1;whiteSpace=wrap;html=1;" parent="1" vertex="1">
          <mxGeometry x="834.5" y="201.5" width="59" height="45" as="geometry" />
        </mxCell>
        <mxCell id="ICR03PwGj1cyag1lzL8s-61" style="edgeStyle=orthogonalEdgeStyle;rounded=0;orthogonalLoop=1;jettySize=auto;html=1;entryX=0;entryY=0.5;entryDx=0;entryDy=0;" parent="1" source="ICR03PwGj1cyag1lzL8s-62" target="ICR03PwGj1cyag1lzL8s-63" edge="1">
          <mxGeometry relative="1" as="geometry" />
        </mxCell>
        <mxCell id="ICR03PwGj1cyag1lzL8s-62" value="Consul Injector" style="rounded=1;whiteSpace=wrap;html=1;" parent="1" vertex="1">
          <mxGeometry x="906.5" y="198" width="51" height="52" as="geometry" />
        </mxCell>
        <mxCell id="ICR03PwGj1cyag1lzL8s-63" value="Consul client" style="rounded=1;whiteSpace=wrap;html=1;" parent="1" vertex="1">
          <mxGeometry x="977" y="194" width="73.5" height="60" as="geometry" />
        </mxCell>
        <mxCell id="ICR03PwGj1cyag1lzL8s-64" style="edgeStyle=orthogonalEdgeStyle;rounded=0;orthogonalLoop=1;jettySize=auto;html=1;entryX=0.812;entryY=1.007;entryDx=0;entryDy=0;entryPerimeter=0;" parent="1" source="ICR03PwGj1cyag1lzL8s-63" target="ICR03PwGj1cyag1lzL8s-40" edge="1">
          <mxGeometry relative="1" as="geometry" />
        </mxCell>
        <mxCell id="ICR03PwGj1cyag1lzL8s-65" value="" style="shape=image;verticalLabelPosition=bottom;labelBackgroundColor=default;verticalAlign=top;aspect=fixed;imageAspect=0;image=data:image/png,iVBORw0KGgoAAAANSUhEUgAAAOEAAADhCAMAAAAJbSJIAAAAulBMVEX////WJ4OWHVnTAHnTAHrVIYHVGX/TAHfVF37UD3z66vL99fn++fyOAEn0zd/21uXuss765/CRAE/rpMX54u3eX53yxdr88PbkgbDrpsbnkrrYMYjaQ5DpnMDol73dV5nfZ6LbTJTwutPliLTdW5v33OnidKnZPI3xwNfhbqbieKvtrsvfxdDu3uWdMWXGk6muX4PPo7fUrr68fpmaJF+mS3XDi6Tbu8m0bIyrV325epXp1N2lRnPTrLwgCbuWAAALl0lEQVR4nO1da3uiOBuuzUEiVjygoqiA1nNn2u52D+87u///by1YD5AEJTFM6Fy5P8x1TaspN0me85M8PBgYGBgYGBgYGBgYGBgYGBgYGBgYGBgoRdO27YbbsO1mU/ejKIbb2i+2wcTHEIIEkGB/EvUXo83yy1O1nf3Or8eULIwQql0Q/w9hi8A6Csebhu7HlEVrHJF4utLEOEAxz/WuPdT9tKJwR88QWjfIXVhiUp/MHN0PXRzD3gSSouwucwn9xZcg2Zw/g8KTR08lrI1d3QRuwF1g4dmjZjLY6CZxBa0+wHfQO5IE/kg3kRwMJvCe6UtxJHhaQUWpjN8BMUfdhCgsI6CQ34Gj1dZNKoXhSjW/BHDd0k3shBG8X77wgEC/EgbdckJK4ZcAwwqI1VkZC/QCGGi2WDtReRP4CUTmOgm2i2qIg69EYAyQ/EMO7lRBjmCrTTk2t7AIORwz8wNvut+0nKXrukvHGeynXn+NASlkwWKsiWBjbRVgV197bYe/l2x3M47qt50sMPjJzI5o3VqhiMDJYmPfGseZRtd9LTL+GXRY7MF1ehYI9kW12bDdz/e4cFAqj1yMrxJE0J+JKevYa+b7JQjdXAWlYHVNxmAYythbzhZyNjbQ4/eHV7SgBb2O5LCdBWP/wZ7SBy+Kfj5BDL17jBB7TDLzaIWqnlkI/VwtgcDqXlvZ9lJmIPK1KPswlyCMlgrG7/TPeghqiUut8pYohntFf2KAPrcj0OIEL/KkKOwrFOuLZKlanroBi2OUowcRUDWBn2hhjNZKRyyIQQ5BMlHtjTf7QIeD38lZoqCM9aRCaomi6XONRwSrFBa7C3w9gciXSKgUwYi7RrEva6RVDkuulMGTCgbgJbHmbUIr0kLQXi7VrxyPtwktLe7pfFKHEOCxWs/R4a1RHCn9G8UwPOWALKw0gMNTFHii8i8URCNV+1BXqKbGHHsb1XQEGCbpVw2UmQWdOmeNEh1qYp9RWUiZHHjmrFGgJflFSfS6IuN1wxEzetJCDWoxEUUuDUfMWCs1QwuiRdlVeKFk2D0rZhBSMrIwGIZbJcNy0kSawpgPy1LmsMdOoa5cwsMDxVBNdpGNtusJMBywyz4NVDHmiJ1CqMP//oSbmUSipOymxuxCS40Ak0MvpbksJXbxhvV7sVaXcHwOisNAyYNEzBTqDssM1sDC2IJETdaGFs9axcwJrelqu9goWkkeI0lhlQtAJcBOoQ6nsETMGVUBtVbwqEefljPI1/1IajFkppBUoJZOJdoMQ726UD2YRYq15PRKBOPb6/KaysKA1hW/mpx5WNDqXmcJvdsa8IJ7zmz7vNrLSgcmVQF15Zk6XlKZCmq0JG/5sY2KMAFyLnmD3obaTNL9sSAMET9TgHKpwSZSKaINrSssTcGLxeVVI5KimPYVpVIMzDaE90nSby/vr6/vv/0QTQZs0kHSlLBzM2tMxt9nXMN7oiIvv388dQ94evrj/ZvIV7NRhguTMDsDRHydMrqiLzzECb/F9B4v6D69Fec4zz4Hqh1/bt8dd3NphtK64tv3p0cK3ac/i36bCq+d98r98W/Gc4KSuZh3ht+B4/eCWRVaZ53mihaEOBR9sBmd1yZypaN/cgkmHIut1DyGzBwK28xbanVImmyveQRjioVmkTb/T6u0QTG0hCNTtCiVEzR/5RN8fPwoMsKYWkvwtJSoyRVPCNO6wpqJjhBjeI3gY/fvAkNQhTyXQFE7mw8WDg83aZuNyMRJ37rXGD4+vRQYI8i8a3BRCtmcvrA5wkRKZUTpj6tTGOM7/Y3h3Nt6vcyCy9jH6RKeRqrZBoirMlpU1YBE1fX/bhCkJ9FeQYIxtrLto4NLBxLJVJl11keOGEjEjwa0OgTiVtH1XcjuxCU6SRUM0+VA7homaVpk1WmN0PMTrwruZGremdy2RJPc+/VdeKCYem+ddItXttZj/lxDaM3rNWo4jmRJ/5QS0jLq8O0mwcenH5ePZyQHot+o8qOJaDUkE86/TfCx+3r+NJXIU5P+vALaO5SoP7JvbsOY4f/PHw+zGrj0iALD8Fl4iG8FGD7+cf44I7xL7uNWwPCmNkxw1ohD2sS4M6RwEz+doc0wLLlybkFLGvGygEKr9J/zx5lVWnJPiQJZat9Wh2mVT7lJpQfYaQdYRrR9FGCYqy2kfBkRTBU4wEU0fsowzWj8Giw7kcdYbRKxxCJWWyp62oG5Vls+3M1AskSLiXgD8bLuApb3W/rzjnW2vKmTFJxxMIl2bLxw5AMCAZLqPma8J5meVUnviYAwI0c7EbCSoxYhznLs+Edb3QISBRQOw1BCAUt4wL3ddkEdx5A6oQKkg6Ju2gMWr4dmTAxtUYxMfgKmskOZUFRdfALovIxU5klBJIoK+l2YZOtCJbQZHYlFofAQDzeiiY9FRmhRsbZzUJMqsBdvj6AjsZLezN0RYdp8JEeZTvfsise8mfShpqh+kBPzpoW9uOHMlAvJdsmozswciyNphS3eIcGoC/HEwBE/vjMStfv0e9FvT+g5HPCfD+9En2vIZEjl2zf+/XjK8hPIkNL5w9NmaVJzKNGZwNSwE+EhLnh56x6z3N3ux6tIlpvOAYenX2zvznKvVFcq/PVvUqnwIiiwmtmenYs0oCoVJJwtptPC0lMS1c7kLcLLL+6uNmFEjUQgQwm8CxNrnV6L0/q5Ymgt1dDKNiJoqvqagk+tj+kjBluTxOnABEpWhYZMklTPwVTJIVk4OZF/xWrk1rgfrEayMSvGzdfZazF0Swi9uWwFbdVPFBcF0x6rqCu1OqBjpr9eJTujLxQ1bVYIzDKtQF+XWrDLFGo6L7UssNJUl11TGmjnTNdpEeWB7QuqRHvecKjsXJUm26uuvcWyta1BiANVzbpsE6nmxplmWD8cwoOgryYLzsqamqIWYznY/lm8I0UiIWTXKdF4Z0GUehwkGd+kwNo1NSxetKAK2ZpSRUeb0BHZms6W/FLOGGpxThjStU6ZM4bUNO1yTonSZdncHwXmgndioqYTaphchXwbTwYccarJeGPmUJFHzj17VstWpMvrlXk6rBOly1MMSzhj6ADenSlatGL2hEqF0oBzDk88vo4z27yUs6N0GfV5t09AHZG38PyyLV9liS17QsaBog6d0SMkuamVQE9t3K/NW6cynSr3wx6F/iTsKZflPKVI1Sh9cdj8i29lsz5VBM8CTyRqqPvB1GHGP1bfivRc51MGnvkXHWL0y5zpknN1QA0B9ZGbJdKSyGNa9M/yRuUNJQlGEOsJ6Q14h0IfVqrSpFQjgMq8W1H0cq8jAytlJkbvs/ZXprJZAaa5FLFUETEL53yzKdBT+pF7W1C8Gyf3O/727nKlla5k5S7/3jwEgvsUR3OauXrN0rMVr81iDcG+PMfmFFMujKat+DC7dvshApFc8KQzJpwjizVVYeVdbHWaRzQWVtebPu/6Q33Zys2Ni44tEPUE3n7Lw3nXmuq5myzGku9LpV6+Bdczp4CKbLRX5NrN3rq24sPw9n3cMUkczAZXginufLGG5MbF5fpyed7VzXhhCXDg9TZOY2gfZ7RpD93BfLby6zG723cen4+++vmYF760GlsEgngp+uvJ2vdrOLm52ipALgFWe2GOGBqiN8ejA4S+AgO9/vW43MvjY8Wjs2bgAMcv8/54GFWhnnVcdDcKA+ufwE90glKWKqpvSz4XQwAD9UsVgUm1wlsjjtF8Dz+CqncvZg9dveVejB9zmm4l0Byp4YigX735O2Gec8m9ACwQVLsI2VmROyYSQTyu/q2mdjsAUiQRgaHuytWiGO6jmy4RBQzJc/tLJXhitxaDIq5R4ngQgLzBl6J3hNvereFVDzBpq4Nrr139vZePYWvvRcmB8cSyMEZHYCv2F2GdRF7b+Ypzx8J2W+3ebLEKgyAKnvvhbtZrt9xfrIPKwMDAwMDAwMDAwMDAwMDAwMDAwMDAoHz8B5aVqim7eOoRAAAAAElFTkSuQmCC;" parent="1" vertex="1">
          <mxGeometry x="788.71" y="82.20999999999998" width="64.79" height="64.79" as="geometry" />
        </mxCell>
        <mxCell id="ICR03PwGj1cyag1lzL8s-69" value="&lt;font style=&quot;font-size: 18px;&quot;&gt;schedule-china.hrtov.xyz&lt;/font&gt;" style="text;html=1;align=center;verticalAlign=middle;resizable=0;points=[];autosize=1;strokeColor=none;fillColor=none;" parent="1" vertex="1">
          <mxGeometry x="591" y="588" width="215" height="34" as="geometry" />
        </mxCell>
        <mxCell id="ICR03PwGj1cyag1lzL8s-70" value="&lt;font style=&quot;font-size: 18px;&quot;&gt;schedule-usa.hrtov.xyz&lt;/font&gt;" style="text;html=1;align=center;verticalAlign=middle;resizable=0;points=[];autosize=1;strokeColor=none;fillColor=none;" parent="1" vertex="1">
          <mxGeometry x="218" y="588" width="201" height="34" as="geometry" />
        </mxCell>
        <mxCell id="ICR03PwGj1cyag1lzL8s-72" value="" style="rounded=1;whiteSpace=wrap;html=1;" parent="1" vertex="1">
          <mxGeometry x="730.71" y="181" width="56" height="174" as="geometry" />
        </mxCell>
        <mxCell id="ICR03PwGj1cyag1lzL8s-75" value="" style="shape=image;imageAspect=0;aspect=fixed;verticalLabelPosition=bottom;verticalAlign=top;image=data:image/png,iVBORw0KGgoAAAANSUhEUgAAAOEAAADhCAMAAAAJbSJIAAAAvVBMVEX///8zZ5EAAAAuZI8jX4wqYo4oYY0fXYsbW4ogXovr6+v8/Pz5+fnx8fGKioobXIrw9PdoaGjJycnPz8/a2tqVlZXj4+OkpKRbW1uzs7MPDw8qKio8PDz09PR7e3tsbGzj6e9QUFC4yNYXFxefn5+9vb2EhIQzMzPJ1eBmiqmrvc5SUlKXrsNHR0eXl5cdHR3X4OhQep5+m7UwMDBehKW0xNOgtciLpbw/cJh0k6+EoLnE0d1TfaBghqYAUYPh+NiFAAAas0lEQVR4nNVdaVvqPBOG05W1CMguVBQFREFEFtH3//+stzQzadKmbVL0Ee8v5+LYJdPMnskkl7s4lMrFerddHT0N+ne9Xu9f767/9nxVve/Wi+XfHtvZqLQm1au3f/EYDF/qxf9iJKVSKcttlWZ90r6uPjwMH6ov3pzUG61gVir16tMygbgAzw/1H5rM5qQ97AyWd73Ta3q95ePtqNqeNG5k7i1Oqs93ouHeDa7uJ83G9aMUcRSdrtRrpXHTao8Svq/HO5MEGalMhmrDl8PV5LtmstgdCb9+CP2rakMgIpVu5zxCevF/Wl5/h0xOVAbYe67WOe5pDhMGGIu7zklzNiuVyo0H759Kc9J9GT4LLr1qnkde5TrD+B7v8a1N5elbdu4nrfjx3NTbnTA/dc6gsVgVDaLXfxwMngeDt2X89NwNvalsRehbPneG3ux0J5Nu++Vh1Hnus3/1VGQCcQGa3RCVVxl5tRSev7urh3a91SrelEsne1GuFFutRvd62BHqoGWIvqvreqsSfsdNsdl98C8cTVSGWZmMuIdfZ9E5dW7cdw+TSqwJLJUb7Yckbd+7biTZz3Izg1Ysd9k3Lhuq99+w32hwL8k9V/0wbSfyhmcqg/gXXjGvGap9pCYzgQ8qA2x1RzyV/XYWy1yquavxfLH7WK8P6/XHbjE/rtya4HWMoe2rTGOX4fCI7KSh3GT8k64y+7nT94+v171pF3TdNHyYpq5btrl/PWynYTJbzDzeS78kUKEPGV2jYtt3n6sC6autVtPpdCWckhOmn/+zDC0vgqaZBXO/PvJPbQzocK8kvWUqgrdh8au5U491DrOvzWYzO6x32/nRrcXMUus6dHttNf/Y5G3b8WF7yG/W22OU0tXMMoQUEjINx5qNuZvalMRHKYVMCWxz/+2OT+NzPNbRDM2DoRk+82ivX+vtyk15qDuf5R09PDfeIwrOfrZdhahcbex4Ek/3Wfn1irm+9UTVmoTSGIqudRefhmXG8Y6hW9p+Np/G8sh4YxTEN59g6IX8gZ+V3DhvJtKYN6zPMXP9C53GVH2DMnjLMN/x1dbjB4h0evP5uV1FqSxvNSvt7rxWsGf8F9olfBNyi7NnaGxQEuvJBKIWvQr+633vpA4QX6o7xmHusg8szfOW5M12fsHeunrV0+5wPgNerTxLkdiMEDh9laYPXlswX4/MMCXp82FqrHiVdsnS6L9sTbm7RO1GAqOWwJA90f9Yp/GKAPoXZbdFOn+GaNQPzDweY0SfvSEffE5q/uPVzQO5YIC/3X2KvAvfucHba58qEwgw7F2gdGqfaZyaz9trqjJQifTijAZKK/59mv4Jo9D2OMBVPsGsJcDMzwOuWqdyat7c02nHcOgxhsI3XlLHqQpUBANfN43xTCTgfNEx57bpJGoa5VTgwn8jIYHgGgzh5zH90QLY+LJjBgkOxqwH0/iezuqaQy9Hf0Xko5ZJyN4Hrl5lIlDf4QxmEEEWzoFKo4yw2Au8GgNvgba5J3+ZkF+1fZYp0F5BjbpZRJiDuaeGQ4nEG7AHtxECb5bcH2YZtGg+X4BRlTN9Hx6a/k5JlNAIBSSxFWf4u5y1nDtZBmUijx7SlbwEbHycN4sSV2/h4kmMPh2wU1jLJITavnzO94nCWuPoZNSejW7qk1ASG9wUrjPxqANs5Z6pZQJYMxzfXIJEc8XR8sBTSDyePvmxysRk2is86zObpRdB/8IBLiSMBjobxAnv83EOIRuC3kOmITpTcreEAZOHSZ1cCdnWD+TStoBN66y/5mZShBr4o9nsTOqoc6VXCZvh+pe2BFafMGmH/NhmYlILvJnFt+jRAAVUNxLijQ7HW9R1I//VJT8yGnuYwkxKKgkOWrqjhIomV5JQccAIIkS+JDk2zeavgSLdffMUenDQDKQ/G9gUBJHJ9bbZuHCXaRYM8sHK36lmENpKVhRBVOrsjPkYsQYk0yDMj3NkOAXUlUgNB8wty5OB41YaMP/hZoua3DNkOBUmmsVFIflCg6ilG874eaiwtiKTOUM9c0wZQVbYGACm8KkBThAh6JpSCG4O+bHOYu5N0HeHH5nCfJA6SIk7tU+WwmpI0XSkvpIYFhlA7fv8tRAMGHqKy4y8FKawysxpLcv78dO9/xCTeihAcFRLnACkkCz0DymFHcbeZ/K6dWDS2Y/NIWWT3DbpKyKFvRCFSyZyOmZRNBDb137CGCLQ780lTSLPpQGFrAewzWLvwV6Nf45J84FrM05w3ngKaYRYJr/JKD8yMJoGOjpb1CX9FrT7CboQJzqkaYgH0CP3Z9H3mN38KVMBQGWTYLFj7GGD9Uq/MgzTJmK4+kkx9EEmoRTvOIFPUyIUviCFJDlFklAycWYENnnO/Cd8UhaosuOdX/A8WiGvrcsY/CyZTrSGP+bQUFhkEuMdC5AXcNImPIUkIq7t1d+LLtvPeN0sdJDEjziFD9ETpEzpUmmbMR5ZXJoCUePZ0jtK0PIkCo2NoqwVM2d0mfBsCiFymn5THjgJ8DFjDYZD8okPoRj/XAqNcor8fx+Mr2SlZpE/Eze0XxZSmEHRgB+RKeySe4NhmoWCZVkFHfjFFfMLDoVE9LQc4dw51CCjuWE/zqmOSLcsPVIHpfx008rvZ7vt+/h4HL/Pd4RNS5/Cx2KIv2R0Z4RCdV0KK07MnUbB2X+tF/P39/li/ZV3sk+u5ux3kXrEE8TpMjAWzXCIf6a1gMfWwO027f36na3Hqx3XGWnUnM0xppRM7OQXiLEIm8NzLT7YIF+Da1Z+t4qOp3awMzCruZ+KyTu9TSiINvmwsJwdrFsQ+/hMfogZPAmOi1/VNGZxY5qqf7nCIaFcVGiatD35I0mO3gUJYZI/hcUo9TAdkkRz2/xw44dUU3V4C7v4h8UE6qjzntlQ4oQmGx9m0PmENXbrmKpfJFFtFvU1e3PJDVUWCykEzxySo0z1IUTApOJZeekI1yUjtcK1lQfmf12Vb0eXW70Hj9d7z/IUPHjWx57GUwgrmKBousxYWMFUzkTQChOWuONuo9l+sfP+g2oelejKxrvcD90yDcNEuwp/EEbBGqdo2BLFPkOzchiLsVNA3vtMc2gJjGYGxT/yomjguuhY0zVH26x360+iW8CpEbmIOJIRK3UEZLmNLJkqRwg0B0awOuQLBtBmOY6lG3kd19fH0l/PgSl8dzybOCVjXREKybNEwmTA6hBJlvbZUVUZk5+QIoihcMY8afpqo7QZ+62nGo7bL800UKiki41hNjyGMoMKNzJvRCZEChHsfZFMYZUZFrhtb+THRpFCI6BwugkMu0ZLDNydbkHkKrs0iaVHM4PROL4hw98iowZmqxv2aHKhlRnVdCKlkHdcCkHt7knFEN6SDSHBTfIX+qgN8he5weSJPG+098NQcHgCGBCyZPquaC6QS48aN0HmlnkBFhOVJfkDnYjCScyBF1b+l0c3X3ATTvwdy5GAcp+ZV9W6SdQ0EfkNdFlNQ904kySRTJwvbMb+6D2pBhVD4OaL4kOwhpBnCzL6PkhMTJJvqjVtqBXCfGMG8rk2MF8tJ4h4NVEJXgS12RgmR4aI3W0y2d2ovc8h64Kbo6pLX2McWnNGZqJ0WvIDJS+3/KbtSzxbaHRMBeDfqChpkOCATQmhYnaiTB/VOIkOJ245wDAXK3e19T8/6g4pEUAKBR4CmFYBLwD/3vTZSIkCVi4I3aqrT/BSkQ42HdshXxucYrkAGz9aVGGiSAhmAZwdcWFirthjPDnlaoPYz8oAbYpk+FmLYQuMj6JuCdIOey4iFcKDc1QN+XhpQUkuZtBKj8SynegQcU2DUNKLbA0dMX6banZed2WY2y4riACkrqN6CaysYBLgFnDZOmECQdU8q3xnClBvKQlhiHrkRKBAHIRo8h5y3tE/oHK6F9qKHC0Ey7TQDSKeEv3h2KQ8JnBPSpE/WHHmEB2agcBl83HDBsGKCxCOFIXAX3KBPtq2iI0FCqNhGNRKgP85yEVxx4SIinlvJyHqDgDpaEl/AqL1COfrcQKaZ6VNuCdoyKoatYyiHftWbsxx7qv4mWSuIgmHOAqRSZ/ZGIIHIf6O/FDLt0lSCLGNXPgJuj+y5h5HIYwBvO6wQ+OjyUqoWvGWnBxicC5pECHQDbsRYBPC6TK8HJj0JSdAiQ2MV0rKVE6Xop8iGWDDQ8Oq1xLnEnH1O4FJcSsNJDfkyctLUwhRrWQ+Fkt0QmILDnxY25tuKpOiP5clvJDzaXDPjmTSFN3MkDbFAJi3+JhmAJ+UbwZBATb/RmUY8Hy5ydGVKMTvFvLPQAOV+f/FnNAyztz7KLI+uXjtKg4ysUWgBiWTJJjn4TUTWlX+M0Gw1YjzSQFESmHdVCVXkxAfiiiU1NOoHvndHxiEceKJxvCK1ZYCEJsPGxAV1ti0V7mSP8U5RLXJux80AmbHB6oOPM9/cQTCOiksKypUjuBL00w5Uij7ZEzPcZOuCRgGBxDaix5Fi3W+FXZyayLGEUBNl3rQYdWOe7DAYXVAzwxYAoRYMv5AWZpA+q3T+BrsoTx3oBnn7gCOZCYWI8NGojH0MWI1kXwULFbgAsipXAZQ4FRmKYyafPwQV3Gxb4AuZxGltalF4vH0zUSqny5fAL9mwXwUgcknXw6sXS+pNxlnEV1pZooNu3lgbKEQmdEtjcxYMCtJiTbBQr6k6ZkTeoxFlF9GlLRzaMmk6csHlYjMvsPIygy8Hlbqk/RMDmsWYdFGuu5ei1+UZYEfX6lcAewAk3SAhGkZA0f8cCBiovQFgwkriPIVC3JVKpZKJgrhRPYWYwYHmR03kD+m+DMEFfaqmvRQyM1pXhCoebWEOpXE4H9gWmFLAV4ApmKZ1nTvlhVW2cIJyeyECbOhmKkESZzjhwmtcuMkQ8+W1M6JJL5akh+yWVM5CoVFqOlADZwL/gOSIQZLb1PCVPhoZHLcuI8aB8hiKxd3wn25d4cnmVAIwo1L98mm4oTKkp1r2UHEl38wsKBUQXWTMc4ZCg1S6H9Q/GNRylT4uGIjKMmcUVzylgMqdfWd8BY4NlBewGkacKdwCmNDXwbcPgWZFgZ5anKTrQs6YFn2HEG5CckdseuQOJ8V+SnECArshdxo2BLhtGHGlNgnAhcGSf4b0hh+SIUbEmF3xVNOBm+sxMpl3HAESVyK6ZVMXUGgyIHscUbXiJlClEK5PsLQtI4IsFxKBfkmKWiAVHW2dg0YgPp7cEF7npgBM2xVlSnkmylJlilCYiGh8BDVQ7aeIvT7nDgAlmO9l+FSD05hSt9SCnI1VDLIRTqwupYgtigwinUsCMyTeG/AtJdHLGaqwu0s0wCKl/yQy6lgMi92yxwKjJu1dQ11wE0U6I2GZKtOIaa+ieKVq8pAuxsbNqCpyNy6Bp0zVwPFXbZoq5GR4hTmbkgYDCs0cuYLljPjQ0oiqJm6NcAbYBLXGvmYUwdD+6bqFKJbAys0ctka3DIXk6rBGph59t36lM9BINamASYEgopol8R4TDg2lctHYWH9Vng55hnO2USLgS7RM2UTi47rSraQoMKxqVx2n5Z6bwSXo6nI1g8VYHyxY3x3cAcELIle5VRA5v2RPEKyuh41t5uPzhOudarWj4vf4OMT5RKbc6udL8Gzqdz76a6SVbTVKDhd2ZozBW9gdnUcbeQZIDA9LuRQ4u6SLMug3UMjrUbRqTu3UZ1Du5l6UwhqBns/q57gMGKNvmzVN24BiTRIRmudqXURCw2L9t//B2oGe7HKn2sBqHMWRlIDanTXgLvnZkuDDS9n98ygux7GGPaDpeinJdiiINpUsYmi9klf9MF0YsedOrEunTxow2f4lqAwghxpudV9GT3d3g7vEw/uyVFflkT60vW0TG3+akOb8YObdYY/E8Dg9t+WoS6hczpUqVXnj/S6Sz49psmxt/RiEe3D6WE6s+GgEfLBJTMiyQjavZ+AambwNBAeUZSY/uZ2mcrXYursLrbafGbqlg2W+nu6ETBsQtVMPJIUEKyIgyskrQUZhU7grqbAWJZ5bucBH0Fj8twgmbwTEhZLIeaCWkxZj9nZxj5wNftYb8xz+tD7MK0N8ulLMnEECefqwIoxkVZJLeEs4p9HnjPfn2UyDGvn0ocJD71bjl4mjWajfQu/E3wdSNdA+ZCUO1IAs5ArvcR/uvkZvKpvWD2Tu2kzJ9rdvXWuu0x8gSFHgrMD2gk+vsSnDxSpN//D2GBmlTmE4nevE1SaDQ/N6Jl8qEkSJJG/Ir2BuYm7BCHRM6jGHMAqij5kYMyEj4sDbMAP7w1iABVUEOqnxgWBpQrkozcYtbtRo5TtVAlmK6kciCgmrWTASGGEKT5XQGBYxdEGKmXqR2XKR+lUT7vb13idHYA7JkAIMKiQSE7ZJQG1oNyhez6wB075oL1uYU9pJgfOxvhz4+ia9RnX06WEA4k2jogCDAbojMQPj0kUqsIQAyCq9KnnNeu1JvEsMXAFeUr8Xe9Zi3BfntrquJjtcXs18FJiXAXOKR4HkbQoMeZvCYBmY+bThMckZeiQCs3CgyIfzbQMv7fSu9/HaPaaNzwX8TU0hSkJKjglAsJEcRrNJxDFIuIp4vM/wCnCsgN1iwHxNe8ia5pp+q2oTONkZjU9cDkgzFgmEohWH5PJccOilr4SPhMdk7T0aArMtai74U5qVZJmb4LYCs8niylpD08i2MSYdaPghK7QicsdZFHGPGTvIJlSK8Cfo4cE9tneHwmTuITrhGY/aN3CHf/br9JNHbVgHzZSqNrTICgxEfKRpuvsWYjBIXrpaWL4FmDTRD2CtLwL1waHug5GXSZ9WWZX6KyMc4gURvPTnsbRPxds7N+g5z1f51KBqgPmQxAK0z45sHWzc10v8qZqxlCDKUf1Nkaw9jTXbN3UCDzdWbCNzW7scu97oF9aKg8OE4OewSJMIj2dx08KdaInM5fZs++oyCqXnNB0cGk13x02n6+fm9l6+z51w4a/EeQz5Ba9yyGdFDrqxUL1fDKEI0HMNGVPzzOoa6fcjFnS7S4yZwPLrmTgObTApyXuJC96PMppN78g77PiurkEIqtuLQxB5BSljw2Kq+nXAyAbggXw5U1g+AsYEZYHAgLd7SeX39c0SqA6hWZa+sBjI+b86uRy9vCNcAvNB6whE6rZaOlPdoLnidpxt9f59Qv9lXEjlfsNM2cFClFsc3mpgdRB6Qg8FZK6B+O9Y2qms+cOVaRrzGV3/rG3w0cHa84HqxOUKQTPVxRQ3BS7D6F0qYSV4IBfJ8idHz8OH2P6Nl9UwQBOD3s72rBUs1/5borKRSdglLq31XqzRXIH5WKrWW8PO5FkcEf5rHrqT4trAUhECN5DbWcXQgRqpr0fhz6+cmtGiD9JSHTX77/1+8temDTyR4WKBQpcABGKbzfEGKXjYZ+3Cvrp6G7D8/yNPdvss5WRQkhhCDOILN4UNAwL+uBoPIlSym3bdFfvi/XBw247ddmrG/+yUYiFUFdiuhC3KYX6CaBP7vBWvRh42zIexP2/rBSCM/SYQF7/Wln+WASBUTVwzMrX7Bue04rIi6eHZKQQLG8seU9tJfsgwlPwtOGkWLmpFLuj8Gu6SauSFcLq2SjETieiqXsedlVqaWJR4kVArMceu3FJ9BaKMlCoaC24Ds9Xw9FodDUaDattz3SkxbgKeBASdQLjTtyNJlH/u9gNOID8j+oRGlBLQ5T62fwYi0mYMsAwlEPsje4nzZuSj6Jnk5fsH7NRqLPHASSsmJ2LYkTyTpx5srANMdcKQJ6krGlc/zZfsy1Tt8Wcg8ZTaMDLNtEulfAfvpdCyEP5uqCvWh2kiCbrVnQmgfYMp/OTKcy298kX+Mdv1C0xaE3uPW1WjejodjhdymPQCyhUjC0wwvefMFAvD/o+NIZxTsfbQ5NUv5ALVSkkkShJqSRtRv8PUG61o1Re3TfL2CKVXKZIIWcOJXdV/Cxak/Z9dejb5G4dFUOJpVBN03Bni8rs3volPAYUKuZpbNYcqlUD/6fwNWGm1v02Gx2Okt7xu/ApJOZaMSOskwcQ1zih9uC34UdgxOVSoxBT+qT2QLla9r+DTyFxm9XWLbDHAHew9iXCnwISh6v11oR0MNe14yLRCShUW10Dcwg5v28Jd38Go2B8amcqF7ijts/KxvwshgGPqR0Swh+X/oPh4bnwzRnJ96kdV2uwh8WlVFf8KtoBhUqd+7G3N4m/H3+ThBR0A12vtPcCY6fnS3dLSZ6HrGAp9SzkYieFlc//Hj6FZH1Dqe8A9E+EOq4LNvhE28P5fCoUWtxhcRds8EkAC5GBEoUkdgJj8aOZtjNRZCJ0JWtBjAUskvwiAek4DRDKABXa8GBk0bmELE0KGHOm0JWOS7RdtColbVOWyqebY8OGy1elwGfKITC0EWpdvFeaA8dUOXyCEwHIulBqwejvoh2ETwrBhU6Iur70NNQJE8YxlTaIfJImrar5l1EMlKH8STaoaMgq5M+tjn4LSgGflaQNIrRNIRl9+Q4tv4SnwGRLryAaZKmp/QesYQ6UKXEsZfOJWFjaufQsFEE9MBeyqgaYlIROvd8cvBR8VQM5azm/DYuhyKKM8FyOy8JJEKEqXi6hiB3Zbv+AQ+OjHYwzepJTwhS2Lj5Fg2gxClGmAxXsdoI028XrmRP8fBmUGqRvYMM+dmQKVXpd/R7ajOuV2imDtjLpXHyGJoCv9bGdzDrRJmo2tqAgYcVFVChI4JaZxNJngmNj7bF4GlbVLtwlpZiwCbPaPoZETc9vaWHQ899w2BBlP92C9RS1T5FCNZz8Nth+Qlbv336zEkoN13y6ZaHze0803dIO7OYMqIe84FXDMKCjHx2x+7F3dMPQNMMwC9b+a8HtPanwG3X/BsiukGXggZVX2/Xs62u2XoxXoS32uB30zwihj1IvTGLslbgb7cKzMxHAEkuaE1aCfbfKLQMvAFgTnxQMta5pYfXfYlEC7HE0iHHEKhNm5/ufUjKICi3ff46Ov9lmOxeo7ZW8HFSYHQqddrNyUy6VyjeVVvc6VBF/wUVsKajccoT03gaDt+iOhuEfCOpjUYrfgoN4+KMMStEQ9ToM5C9xm9hfQTemsn/ZOX+v3YWgVI/uM+pUG5dcjKCOUrP9cNv3lEyv/zy6737nZjuK/wPXFkgcthKiJgAAAABJRU5ErkJggg==;labelBackgroundColor=none;fillColor=#182E3E;strokeColor=#FFFFFF;fontColor=#FFFFFF;" parent="1" vertex="1">
          <mxGeometry x="741.96" y="188.49999999999997" width="33.5" height="33.5" as="geometry" />
        </mxCell>
        <mxCell id="ICR03PwGj1cyag1lzL8s-76" value="Postgres" style="text;html=1;strokeColor=none;fillColor=none;align=center;verticalAlign=middle;whiteSpace=wrap;rounded=0;" parent="1" vertex="1">
          <mxGeometry x="728.71" y="214.99999999999997" width="60" height="30" as="geometry" />
        </mxCell>
        <mxCell id="ICR03PwGj1cyag1lzL8s-79" value="" style="rounded=1;whiteSpace=wrap;html=1;" parent="1" vertex="1">
          <mxGeometry x="730.71" y="248" width="55" height="51" as="geometry" />
        </mxCell>
        <mxCell id="ICR03PwGj1cyag1lzL8s-78" value="" style="shape=image;verticalLabelPosition=bottom;labelBackgroundColor=none;verticalAlign=top;aspect=fixed;imageAspect=0;image=data:image/png,iVBORw0KGgoAAAANSUhEUgAAAOEAAADhCAMAAAAJbSJIAAAA8FBMVEX///9DmTRFpThGoDdAlDNPqkFKpzxXrkdgsk+2tZipqohbr09XrUtVrEhesVJis1HCwac/ozFmtVg1oCXOzbfz+fJAnjA2kCfb2sc5mydcqk88litmsVlSrT75/PhtuF5PpEGo0qM1lCK32rHV6NJJqTXk8OLe7ty+3bqx1KxNnj+Pxoiex5c+ly693bl4u3CBv3osjRpcnk7t7eWWy4xzumWWxo97uHLJ4sVrsWE8pCp3tm4tkherzqZbpk90sWqEuHygx5t6sXORvoxooVmJsnV0pGOXsX2ntY16q2ShtIhkplq6waPF0beio37f39LVdvCnAAAKW0lEQVR4nO2cCXvaOBCGwY4P8EEMAQqlDjkKKdmmSbPJptkuzZ7tdo/8/3+zPrAtyZIss+HRWM33C/Q+M5pvNGNotZ71rGc9SzUtZB9g5/peecTLI9kn2LVurKHsI+xWC8v8TvYZdqsjyxspHcShZfuTW9mn2KW+t+zD0UThcnr3yrZv9JG6QTy1bNs+1PWBqjdxGQPaPV0fPcg+ym6URDDSXNcnS9mH2YXuNoC9aRTED7JPswNdvLILQn2iXu92kgGmhPrkVPaJnlgF4IZQ19WqpwhgRjiahrJP9YQ6QgDzGI5m6iBigDmhPlGmoOKAds/RM8QfZR/taUQA2j1XVwuRBEx6mhzxB9nH+/86s3scQgUQF6+sPkno6Shiw19SYd+wDklCV8cQmz22OX9lWX0yTR0dR3wj+5T/QxevrUhkEH2dQLyTfc6ttUgASxexr5OITX0thraVEvYqCEfzhnbh8SW0KGk6Iwmb+iA+eW2JEuqTc9mn3ULLHNCy8Zt4WCbUByeyz1tboYWomrCB1ebSQAgPqwkb9yB+8xqNod+vJNQnD7LPXEunGCARxBsqoT64kH3qOjrEAfGLyCDUJw1yxYv7PkHYEyBskisapkME8abyHupNGhMfBYZrsy8ik1BvymJxaEQi0hQ1fTZhU/L09nWZEA0im1CfNKKeLoI4hkZvG8Jm1NNLzeCnKY9w1IAWfHmfABo+M01L70MsiPB3UjdmSmiRlihGCL/Y3KW3sBzEojflEuqTM9kIFZqZGSFp+nmakpMoMoqyEfg6y0NoeITp5zHs8QlhdzahZRQiLmIvR+QT6qC/ezsKEEJmNa0ghDzoDzUE0PBYpl9BCHnFf4Imadn0DwUJAa8yZprDIcxrTWUMwfZuy8B0eEEUJ4QaxO8C08UIiVqTVdNKQqieGDqa6bkcwk2t6c0rCYFu3E4Hpmn6WDUlENNxjQDhaCobhqrzICLE05S4iGlvKkAIc6cY3keApuGhhNTeVIRwBPE7lLOEEK+mZG8qTAhyKHWjJYQ+L00TwxAjhNe6LQLTLCPSqmlfhBCgYRxlhFzTFyeEV2v62oaQa/pxbyoYQ2jjjNP7DaBpOBVpKkYIrjk9z5K0otZEpi9KCKuvGXpaTuhZHMLI9PtuNR68ND0LvJwQN323lKaChMAs8TxwTHqaWsRLv9/rT6vpEsKfZFOhCrQihny/sPt9p5pOn07nU0id23KgGSzEUm/KJZzrbsS2bsf6CChN3ww0zWEFkRxIMbJ0Pp+vp6v1qp3rGFCavgs4hCVLJN1iHkVt2l4hbKnermVzFTK0SC6j1pS67znCNp2vS2S5PoIx/eU9QYgF0SQRvfi6zfPrxtYxmC3N2YAgxE2fTNPZdDVlBw5N00+yyTKdBzEhUk0NrP0mq+lchC7RCsrHbh8SQo1p+kSaToUJj4FshIdaKs/ICV1ebypO+BLIaHgxSAmNghCvNcT3Q+KEUC7ixYaQaYnetoTtNgy/uA3KhLxHYg3CjzAu4ruMEDEMjTOQqkEIpHHztDIhL4g1CF8+yIaLFQ5ohBzTr0H4diWbLtayIDQLRM5Aqk6l+QjB8+8KQrE0rUMIwvPfIISI6Xsei3BWhxBC852bBa83dbckBNHVvEMImZaIfnpShxBEV+MhgFhvyrqItQghFFM0hJrpMYLo2FsRtl/KxoteFvcoIfOlb21JeCy/M10MMELkIrLStB6h/JHiKU7IrDX+loTyDfGOIKw2/XqE8jelZwQh0/T9phIe4ZUGraYG/QupeoTy14i3AU6o+VVpWo/wZ9mAm1EiIqOqN63nh/LbthKhydpCZQOpeoTyP6y5JAmZpu8pQ8jcQvW3IXyQDVjOUvZAylGQkLpKbBphyS3wgZQChKTjEzeRsixtGuHJoEzI702bVkvJzjsWfyBVj/BX2YBUQmZv6jSxpyHfh4lYvanl1+5L5W8uljRC7rK0HqH8gemCRsgdSDXtfRhS3II/kGraFKNVdnyN35vWIwTw90oujRBBLC1L+7UI5c/a8Kk+LU1J06+ze2ofy8Zr0ds23PSJZalfh7AtG6+FfIqBV1PWstSxa+0tIHztTbV83ocZdbIUQOON7fFRMQdSZq0dsPyWJpJPLTWo6eMbjFqE8g2/RX3lE2mKW2KdewjjW296MdVc4wkIAawPW4zeW2NbYg3Ct3/Jhks0NCoJnS0JAbx/E9G7GpTQ3ZYQRKFhXkTWO1iIcL1erVd7e/J33ImWDEKG6VcQRmTr93uJxhC+NUnk0QkZps8gXK2iwO3Fgcs1lr9a26i8u0jEGEiVHX+9igK3QtlSXQF4/qaizdvYFxEljFNyXSLLBeQaRmIQogMpDyNMUnK1LocNFZxrKJKmiCVO2/zAFYTyd/i5yA8yMlFNf8qPHHINQTSlqUJ6DOmmPxME3IPwvs/FeF9QB1KiIRzLH+gjYjz0qd13WzRJAQwSETn0IFK2UJZoDCF8WoqI1ZuW38GihHAamlRD4d7UEyUEVEkTMSwR+bZ9k6auGCEku0/FqDVl03dFzD6qM0CehohmggMpQcI92TxlMdrv0rJULEuh1ZlE9LlpqdaIVZorOM+KQozmlOxNhQjHQEZQhOhBRL+QSqqpUAihWUUqRhDJNBUJ4S+yWRjyqjbeMaEnEkIw4wtCdE9EBlLxuMYRCCE4t89FnQ2beK3xGxxC1goD/6VQ9QN4DGNbQRf1JexhvWk1IbCHIa7QpAWxIIxe+tPKEEItpKmo3y1gF7HS8ME9mwjRGnCE0PCrhhhA25lCC9pTGBl+m5UxhPATfK6O+J9FmxWPpyv5n1tW6kM5T5EnlMEnBO0UmWhfnDqiMYReZlJR6mlOqH14z81RQKsKnspTqXwgpf3yGy+CcBtSXKHL/Mme9vsfPEKIL3uqypt9V4QQ4HyNqdIvabJqGnxmE4L3ekznJOImiMEXJmEjjAIR2b1lhJ3fxyzExlzCVENipOFlhF8ZhKDfTFQtiSCmvanR/UInbFKVyXRK+U8Qbdb99y0VEMTHwHWFF9RkIKV96nZpTc1Vo8poIfyZEdca7U8q4fhB9lG31e2ASNOY8I/SRQQ+t+DqEkGMe9Pgc7f7mSQcfwL/6OUIRYwJv3a7X0nAhjk9KQTRjVuabrezUgoQRYx6U6cb6TccsMkpmqpA9CM77OIXUQVApAt341La7eyrlKKpMtPwtM8xYdF8N+ZNX6ns/zH9LwlhJ+tkHmQf7Ol0N0j68HknAeykpt/MXpSlpREhBn+mIez8vRrvjffgbgm30tAPtCC9hp39/f33V3817MFbrfDdINgkaUR4oFSGZrqN3XB/Qyj7MLvRP0UIr2WfZTcK/80IX8g+yq6Ux1DRELZaB5tKuq9CM0rVdUfpOhMpVP0atlr7aQgVJjxICR9ln2N3eqE84WMCqKrfx7pWnjBMAFUmbB0khMoafuubIVTYDiO7iEOoPOELpQkflSe8PvgGCF88EzZbCaHCjXdMGIXwWmXHjwkflSZsPUaEj0oTtsLra8UJI4XKEz7rWc/6xvQfB0dYePp+cmsAAAAASUVORK5CYII=;fillColor=#182E3E;strokeColor=#FFFFFF;fontColor=#FFFFFF;" parent="1" vertex="1">
          <mxGeometry x="740.71" y="249" width="36" height="36" as="geometry" />
        </mxCell>
        <mxCell id="ICR03PwGj1cyag1lzL8s-77" value="&lt;font style=&quot;font-size: 10px;&quot;&gt;Mongo DB&lt;/font&gt;" style="text;html=1;strokeColor=none;fillColor=none;align=center;verticalAlign=middle;whiteSpace=wrap;rounded=0;" parent="1" vertex="1">
          <mxGeometry x="728.71" y="273.49999999999994" width="60" height="30" as="geometry" />
        </mxCell>
        <mxCell id="ICR03PwGj1cyag1lzL8s-82" value="" style="endArrow=classic;startArrow=classic;html=1;rounded=0;exitX=1;exitY=0.5;exitDx=0;exitDy=0;" parent="1" edge="1">
          <mxGeometry width="50" height="50" relative="1" as="geometry">
            <mxPoint x="441" y="255.5" as="sourcePoint" />
            <mxPoint x="608" y="256" as="targetPoint" />
          </mxGeometry>
        </mxCell>
        <mxCell id="ICR03PwGj1cyag1lzL8s-93" value="" style="rounded=1;whiteSpace=wrap;html=1;" parent="1" vertex="1">
          <mxGeometry x="-78" y="473.5" width="165" height="69" as="geometry" />
        </mxCell>
        <mxCell id="ICR03PwGj1cyag1lzL8s-94" value="" style="shape=image;imageAspect=0;aspect=fixed;verticalLabelPosition=bottom;verticalAlign=top;image=data:image/png,iVBORw0KGgoAAAANSUhEUgAAAOEAAADhCAMAAAAJbSJIAAAAvVBMVEX///8zZ5EAAAAuZI8jX4wqYo4oYY0fXYsbW4ogXovr6+v8/Pz5+fnx8fGKioobXIrw9PdoaGjJycnPz8/a2tqVlZXj4+OkpKRbW1uzs7MPDw8qKio8PDz09PR7e3tsbGzj6e9QUFC4yNYXFxefn5+9vb2EhIQzMzPJ1eBmiqmrvc5SUlKXrsNHR0eXl5cdHR3X4OhQep5+m7UwMDBehKW0xNOgtciLpbw/cJh0k6+EoLnE0d1TfaBghqYAUYPh+NiFAAAas0lEQVR4nNVdaVvqPBOG05W1CMguVBQFREFEFtH3//+stzQzadKmbVL0Ee8v5+LYJdPMnskkl7s4lMrFerddHT0N+ne9Xu9f767/9nxVve/Wi+XfHtvZqLQm1au3f/EYDF/qxf9iJKVSKcttlWZ90r6uPjwMH6ov3pzUG61gVir16tMygbgAzw/1H5rM5qQ97AyWd73Ta3q95ePtqNqeNG5k7i1Oqs93ouHeDa7uJ83G9aMUcRSdrtRrpXHTao8Svq/HO5MEGalMhmrDl8PV5LtmstgdCb9+CP2rakMgIpVu5zxCevF/Wl5/h0xOVAbYe67WOe5pDhMGGIu7zklzNiuVyo0H759Kc9J9GT4LLr1qnkde5TrD+B7v8a1N5elbdu4nrfjx3NTbnTA/dc6gsVgVDaLXfxwMngeDt2X89NwNvalsRehbPneG3ux0J5Nu++Vh1Hnus3/1VGQCcQGa3RCVVxl5tRSev7urh3a91SrelEsne1GuFFutRvd62BHqoGWIvqvreqsSfsdNsdl98C8cTVSGWZmMuIdfZ9E5dW7cdw+TSqwJLJUb7Yckbd+7biTZz3Izg1Ysd9k3Lhuq99+w32hwL8k9V/0wbSfyhmcqg/gXXjGvGap9pCYzgQ8qA2x1RzyV/XYWy1yquavxfLH7WK8P6/XHbjE/rtya4HWMoe2rTGOX4fCI7KSh3GT8k64y+7nT94+v171pF3TdNHyYpq5btrl/PWynYTJbzDzeS78kUKEPGV2jYtt3n6sC6autVtPpdCWckhOmn/+zDC0vgqaZBXO/PvJPbQzocK8kvWUqgrdh8au5U491DrOvzWYzO6x32/nRrcXMUus6dHttNf/Y5G3b8WF7yG/W22OU0tXMMoQUEjINx5qNuZvalMRHKYVMCWxz/+2OT+NzPNbRDM2DoRk+82ivX+vtyk15qDuf5R09PDfeIwrOfrZdhahcbex4Ek/3Wfn1irm+9UTVmoTSGIqudRefhmXG8Y6hW9p+Np/G8sh4YxTEN59g6IX8gZ+V3DhvJtKYN6zPMXP9C53GVH2DMnjLMN/x1dbjB4h0evP5uV1FqSxvNSvt7rxWsGf8F9olfBNyi7NnaGxQEuvJBKIWvQr+633vpA4QX6o7xmHusg8szfOW5M12fsHeunrV0+5wPgNerTxLkdiMEDh9laYPXlswX4/MMCXp82FqrHiVdsnS6L9sTbm7RO1GAqOWwJA90f9Yp/GKAPoXZbdFOn+GaNQPzDweY0SfvSEffE5q/uPVzQO5YIC/3X2KvAvfucHba58qEwgw7F2gdGqfaZyaz9trqjJQifTijAZKK/59mv4Jo9D2OMBVPsGsJcDMzwOuWqdyat7c02nHcOgxhsI3XlLHqQpUBANfN43xTCTgfNEx57bpJGoa5VTgwn8jIYHgGgzh5zH90QLY+LJjBgkOxqwH0/iezuqaQy9Hf0Xko5ZJyN4Hrl5lIlDf4QxmEEEWzoFKo4yw2Au8GgNvgba5J3+ZkF+1fZYp0F5BjbpZRJiDuaeGQ4nEG7AHtxECb5bcH2YZtGg+X4BRlTN9Hx6a/k5JlNAIBSSxFWf4u5y1nDtZBmUijx7SlbwEbHycN4sSV2/h4kmMPh2wU1jLJITavnzO94nCWuPoZNSejW7qk1ASG9wUrjPxqANs5Z6pZQJYMxzfXIJEc8XR8sBTSDyePvmxysRk2is86zObpRdB/8IBLiSMBjobxAnv83EOIRuC3kOmITpTcreEAZOHSZ1cCdnWD+TStoBN66y/5mZShBr4o9nsTOqoc6VXCZvh+pe2BFafMGmH/NhmYlILvJnFt+jRAAVUNxLijQ7HW9R1I//VJT8yGnuYwkxKKgkOWrqjhIomV5JQccAIIkS+JDk2zeavgSLdffMUenDQDKQ/G9gUBJHJ9bbZuHCXaRYM8sHK36lmENpKVhRBVOrsjPkYsQYk0yDMj3NkOAXUlUgNB8wty5OB41YaMP/hZoua3DNkOBUmmsVFIflCg6ilG874eaiwtiKTOUM9c0wZQVbYGACm8KkBThAh6JpSCG4O+bHOYu5N0HeHH5nCfJA6SIk7tU+WwmpI0XSkvpIYFhlA7fv8tRAMGHqKy4y8FKawysxpLcv78dO9/xCTeihAcFRLnACkkCz0DymFHcbeZ/K6dWDS2Y/NIWWT3DbpKyKFvRCFSyZyOmZRNBDb137CGCLQ780lTSLPpQGFrAewzWLvwV6Nf45J84FrM05w3ngKaYRYJr/JKD8yMJoGOjpb1CX9FrT7CboQJzqkaYgH0CP3Z9H3mN38KVMBQGWTYLFj7GGD9Uq/MgzTJmK4+kkx9EEmoRTvOIFPUyIUviCFJDlFklAycWYENnnO/Cd8UhaosuOdX/A8WiGvrcsY/CyZTrSGP+bQUFhkEuMdC5AXcNImPIUkIq7t1d+LLtvPeN0sdJDEjziFD9ETpEzpUmmbMR5ZXJoCUePZ0jtK0PIkCo2NoqwVM2d0mfBsCiFymn5THjgJ8DFjDYZD8okPoRj/XAqNcor8fx+Mr2SlZpE/Eze0XxZSmEHRgB+RKeySe4NhmoWCZVkFHfjFFfMLDoVE9LQc4dw51CCjuWE/zqmOSLcsPVIHpfx008rvZ7vt+/h4HL/Pd4RNS5/Cx2KIv2R0Z4RCdV0KK07MnUbB2X+tF/P39/li/ZV3sk+u5ux3kXrEE8TpMjAWzXCIf6a1gMfWwO027f36na3Hqx3XGWnUnM0xppRM7OQXiLEIm8NzLT7YIF+Da1Z+t4qOp3awMzCruZ+KyTu9TSiINvmwsJwdrFsQ+/hMfogZPAmOi1/VNGZxY5qqf7nCIaFcVGiatD35I0mO3gUJYZI/hcUo9TAdkkRz2/xw44dUU3V4C7v4h8UE6qjzntlQ4oQmGx9m0PmENXbrmKpfJFFtFvU1e3PJDVUWCykEzxySo0z1IUTApOJZeekI1yUjtcK1lQfmf12Vb0eXW70Hj9d7z/IUPHjWx57GUwgrmKBousxYWMFUzkTQChOWuONuo9l+sfP+g2oelejKxrvcD90yDcNEuwp/EEbBGqdo2BLFPkOzchiLsVNA3vtMc2gJjGYGxT/yomjguuhY0zVH26x360+iW8CpEbmIOJIRK3UEZLmNLJkqRwg0B0awOuQLBtBmOY6lG3kd19fH0l/PgSl8dzybOCVjXREKybNEwmTA6hBJlvbZUVUZk5+QIoihcMY8afpqo7QZ+62nGo7bL800UKiki41hNjyGMoMKNzJvRCZEChHsfZFMYZUZFrhtb+THRpFCI6BwugkMu0ZLDNydbkHkKrs0iaVHM4PROL4hw98iowZmqxv2aHKhlRnVdCKlkHdcCkHt7knFEN6SDSHBTfIX+qgN8he5weSJPG+098NQcHgCGBCyZPquaC6QS48aN0HmlnkBFhOVJfkDnYjCScyBF1b+l0c3X3ATTvwdy5GAcp+ZV9W6SdQ0EfkNdFlNQ904kySRTJwvbMb+6D2pBhVD4OaL4kOwhpBnCzL6PkhMTJJvqjVtqBXCfGMG8rk2MF8tJ4h4NVEJXgS12RgmR4aI3W0y2d2ovc8h64Kbo6pLX2McWnNGZqJ0WvIDJS+3/KbtSzxbaHRMBeDfqChpkOCATQmhYnaiTB/VOIkOJ245wDAXK3e19T8/6g4pEUAKBR4CmFYBLwD/3vTZSIkCVi4I3aqrT/BSkQ42HdshXxucYrkAGz9aVGGiSAhmAZwdcWFirthjPDnlaoPYz8oAbYpk+FmLYQuMj6JuCdIOey4iFcKDc1QN+XhpQUkuZtBKj8SynegQcU2DUNKLbA0dMX6banZed2WY2y4riACkrqN6CaysYBLgFnDZOmECQdU8q3xnClBvKQlhiHrkRKBAHIRo8h5y3tE/oHK6F9qKHC0Ey7TQDSKeEv3h2KQ8JnBPSpE/WHHmEB2agcBl83HDBsGKCxCOFIXAX3KBPtq2iI0FCqNhGNRKgP85yEVxx4SIinlvJyHqDgDpaEl/AqL1COfrcQKaZ6VNuCdoyKoatYyiHftWbsxx7qv4mWSuIgmHOAqRSZ/ZGIIHIf6O/FDLt0lSCLGNXPgJuj+y5h5HIYwBvO6wQ+OjyUqoWvGWnBxicC5pECHQDbsRYBPC6TK8HJj0JSdAiQ2MV0rKVE6Xop8iGWDDQ8Oq1xLnEnH1O4FJcSsNJDfkyctLUwhRrWQ+Fkt0QmILDnxY25tuKpOiP5clvJDzaXDPjmTSFN3MkDbFAJi3+JhmAJ+UbwZBATb/RmUY8Hy5ydGVKMTvFvLPQAOV+f/FnNAyztz7KLI+uXjtKg4ysUWgBiWTJJjn4TUTWlX+M0Gw1YjzSQFESmHdVCVXkxAfiiiU1NOoHvndHxiEceKJxvCK1ZYCEJsPGxAV1ti0V7mSP8U5RLXJux80AmbHB6oOPM9/cQTCOiksKypUjuBL00w5Uij7ZEzPcZOuCRgGBxDaix5Fi3W+FXZyayLGEUBNl3rQYdWOe7DAYXVAzwxYAoRYMv5AWZpA+q3T+BrsoTx3oBnn7gCOZCYWI8NGojH0MWI1kXwULFbgAsipXAZQ4FRmKYyafPwQV3Gxb4AuZxGltalF4vH0zUSqny5fAL9mwXwUgcknXw6sXS+pNxlnEV1pZooNu3lgbKEQmdEtjcxYMCtJiTbBQr6k6ZkTeoxFlF9GlLRzaMmk6csHlYjMvsPIygy8Hlbqk/RMDmsWYdFGuu5ei1+UZYEfX6lcAewAk3SAhGkZA0f8cCBiovQFgwkriPIVC3JVKpZKJgrhRPYWYwYHmR03kD+m+DMEFfaqmvRQyM1pXhCoebWEOpXE4H9gWmFLAV4ApmKZ1nTvlhVW2cIJyeyECbOhmKkESZzjhwmtcuMkQ8+W1M6JJL5akh+yWVM5CoVFqOlADZwL/gOSIQZLb1PCVPhoZHLcuI8aB8hiKxd3wn25d4cnmVAIwo1L98mm4oTKkp1r2UHEl38wsKBUQXWTMc4ZCg1S6H9Q/GNRylT4uGIjKMmcUVzylgMqdfWd8BY4NlBewGkacKdwCmNDXwbcPgWZFgZ5anKTrQs6YFn2HEG5CckdseuQOJ8V+SnECArshdxo2BLhtGHGlNgnAhcGSf4b0hh+SIUbEmF3xVNOBm+sxMpl3HAESVyK6ZVMXUGgyIHscUbXiJlClEK5PsLQtI4IsFxKBfkmKWiAVHW2dg0YgPp7cEF7npgBM2xVlSnkmylJlilCYiGh8BDVQ7aeIvT7nDgAlmO9l+FSD05hSt9SCnI1VDLIRTqwupYgtigwinUsCMyTeG/AtJdHLGaqwu0s0wCKl/yQy6lgMi92yxwKjJu1dQ11wE0U6I2GZKtOIaa+ieKVq8pAuxsbNqCpyNy6Bp0zVwPFXbZoq5GR4hTmbkgYDCs0cuYLljPjQ0oiqJm6NcAbYBLXGvmYUwdD+6bqFKJbAys0ctka3DIXk6rBGph59t36lM9BINamASYEgopol8R4TDg2lctHYWH9Vng55hnO2USLgS7RM2UTi47rSraQoMKxqVx2n5Z6bwSXo6nI1g8VYHyxY3x3cAcELIle5VRA5v2RPEKyuh41t5uPzhOudarWj4vf4OMT5RKbc6udL8Gzqdz76a6SVbTVKDhd2ZozBW9gdnUcbeQZIDA9LuRQ4u6SLMug3UMjrUbRqTu3UZ1Du5l6UwhqBns/q57gMGKNvmzVN24BiTRIRmudqXURCw2L9t//B2oGe7HKn2sBqHMWRlIDanTXgLvnZkuDDS9n98ygux7GGPaDpeinJdiiINpUsYmi9klf9MF0YsedOrEunTxow2f4lqAwghxpudV9GT3d3g7vEw/uyVFflkT60vW0TG3+akOb8YObdYY/E8Dg9t+WoS6hczpUqVXnj/S6Sz49psmxt/RiEe3D6WE6s+GgEfLBJTMiyQjavZ+AambwNBAeUZSY/uZ2mcrXYursLrbafGbqlg2W+nu6ETBsQtVMPJIUEKyIgyskrQUZhU7grqbAWJZ5bucBH0Fj8twgmbwTEhZLIeaCWkxZj9nZxj5wNftYb8xz+tD7MK0N8ulLMnEECefqwIoxkVZJLeEs4p9HnjPfn2UyDGvn0ocJD71bjl4mjWajfQu/E3wdSNdA+ZCUO1IAs5ArvcR/uvkZvKpvWD2Tu2kzJ9rdvXWuu0x8gSFHgrMD2gk+vsSnDxSpN//D2GBmlTmE4nevE1SaDQ/N6Jl8qEkSJJG/Ir2BuYm7BCHRM6jGHMAqij5kYMyEj4sDbMAP7w1iABVUEOqnxgWBpQrkozcYtbtRo5TtVAlmK6kciCgmrWTASGGEKT5XQGBYxdEGKmXqR2XKR+lUT7vb13idHYA7JkAIMKiQSE7ZJQG1oNyhez6wB075oL1uYU9pJgfOxvhz4+ia9RnX06WEA4k2jogCDAbojMQPj0kUqsIQAyCq9KnnNeu1JvEsMXAFeUr8Xe9Zi3BfntrquJjtcXs18FJiXAXOKR4HkbQoMeZvCYBmY+bThMckZeiQCs3CgyIfzbQMv7fSu9/HaPaaNzwX8TU0hSkJKjglAsJEcRrNJxDFIuIp4vM/wCnCsgN1iwHxNe8ia5pp+q2oTONkZjU9cDkgzFgmEohWH5PJccOilr4SPhMdk7T0aArMtai74U5qVZJmb4LYCs8niylpD08i2MSYdaPghK7QicsdZFHGPGTvIJlSK8Cfo4cE9tneHwmTuITrhGY/aN3CHf/br9JNHbVgHzZSqNrTICgxEfKRpuvsWYjBIXrpaWL4FmDTRD2CtLwL1waHug5GXSZ9WWZX6KyMc4gURvPTnsbRPxds7N+g5z1f51KBqgPmQxAK0z45sHWzc10v8qZqxlCDKUf1Nkaw9jTXbN3UCDzdWbCNzW7scu97oF9aKg8OE4OewSJMIj2dx08KdaInM5fZs++oyCqXnNB0cGk13x02n6+fm9l6+z51w4a/EeQz5Ba9yyGdFDrqxUL1fDKEI0HMNGVPzzOoa6fcjFnS7S4yZwPLrmTgObTApyXuJC96PMppN78g77PiurkEIqtuLQxB5BSljw2Kq+nXAyAbggXw5U1g+AsYEZYHAgLd7SeX39c0SqA6hWZa+sBjI+b86uRy9vCNcAvNB6whE6rZaOlPdoLnidpxt9f59Qv9lXEjlfsNM2cFClFsc3mpgdRB6Qg8FZK6B+O9Y2qms+cOVaRrzGV3/rG3w0cHa84HqxOUKQTPVxRQ3BS7D6F0qYSV4IBfJ8idHz8OH2P6Nl9UwQBOD3s72rBUs1/5borKRSdglLq31XqzRXIH5WKrWW8PO5FkcEf5rHrqT4trAUhECN5DbWcXQgRqpr0fhz6+cmtGiD9JSHTX77/1+8temDTyR4WKBQpcABGKbzfEGKXjYZ+3Cvrp6G7D8/yNPdvss5WRQkhhCDOILN4UNAwL+uBoPIlSym3bdFfvi/XBw247ddmrG/+yUYiFUFdiuhC3KYX6CaBP7vBWvRh42zIexP2/rBSCM/SYQF7/Wln+WASBUTVwzMrX7Bue04rIi6eHZKQQLG8seU9tJfsgwlPwtOGkWLmpFLuj8Gu6SauSFcLq2SjETieiqXsedlVqaWJR4kVArMceu3FJ9BaKMlCoaC24Ds9Xw9FodDUaDattz3SkxbgKeBASdQLjTtyNJlH/u9gNOID8j+oRGlBLQ5T62fwYi0mYMsAwlEPsje4nzZuSj6Jnk5fsH7NRqLPHASSsmJ2LYkTyTpx5srANMdcKQJ6krGlc/zZfsy1Tt8Wcg8ZTaMDLNtEulfAfvpdCyEP5uqCvWh2kiCbrVnQmgfYMp/OTKcy298kX+Mdv1C0xaE3uPW1WjejodjhdymPQCyhUjC0wwvefMFAvD/o+NIZxTsfbQ5NUv5ALVSkkkShJqSRtRv8PUG61o1Re3TfL2CKVXKZIIWcOJXdV/Cxak/Z9dejb5G4dFUOJpVBN03Bni8rs3volPAYUKuZpbNYcqlUD/6fwNWGm1v02Gx2Okt7xu/ApJOZaMSOskwcQ1zih9uC34UdgxOVSoxBT+qT2QLla9r+DTyFxm9XWLbDHAHew9iXCnwISh6v11oR0MNe14yLRCShUW10Dcwg5v28Jd38Go2B8amcqF7ijts/KxvwshgGPqR0Swh+X/oPh4bnwzRnJ96kdV2uwh8WlVFf8KtoBhUqd+7G3N4m/H3+ThBR0A12vtPcCY6fnS3dLSZ6HrGAp9SzkYieFlc//Hj6FZH1Dqe8A9E+EOq4LNvhE28P5fCoUWtxhcRds8EkAC5GBEoUkdgJj8aOZtjNRZCJ0JWtBjAUskvwiAek4DRDKABXa8GBk0bmELE0KGHOm0JWOS7RdtColbVOWyqebY8OGy1elwGfKITC0EWpdvFeaA8dUOXyCEwHIulBqwejvoh2ETwrBhU6Iur70NNQJE8YxlTaIfJImrar5l1EMlKH8STaoaMgq5M+tjn4LSgGflaQNIrRNIRl9+Q4tv4SnwGRLryAaZKmp/QesYQ6UKXEsZfOJWFjaufQsFEE9MBeyqgaYlIROvd8cvBR8VQM5azm/DYuhyKKM8FyOy8JJEKEqXi6hiB3Zbv+AQ+OjHYwzepJTwhS2Lj5Fg2gxClGmAxXsdoI028XrmRP8fBmUGqRvYMM+dmQKVXpd/R7ajOuV2imDtjLpXHyGJoCv9bGdzDrRJmo2tqAgYcVFVChI4JaZxNJngmNj7bF4GlbVLtwlpZiwCbPaPoZETc9vaWHQ899w2BBlP92C9RS1T5FCNZz8Nth+Qlbv336zEkoN13y6ZaHze0803dIO7OYMqIe84FXDMKCjHx2x+7F3dMPQNMMwC9b+a8HtPanwG3X/BsiukGXggZVX2/Xs62u2XoxXoS32uB30zwihj1IvTGLslbgb7cKzMxHAEkuaE1aCfbfKLQMvAFgTnxQMta5pYfXfYlEC7HE0iHHEKhNm5/ufUjKICi3ff46Ov9lmOxeo7ZW8HFSYHQqddrNyUy6VyjeVVvc6VBF/wUVsKajccoT03gaDt+iOhuEfCOpjUYrfgoN4+KMMStEQ9ToM5C9xm9hfQTemsn/ZOX+v3YWgVI/uM+pUG5dcjKCOUrP9cNv3lEyv/zy6737nZjuK/wPXFkgcthKiJgAAAABJRU5ErkJggg==;labelBackgroundColor=none;fillColor=#182E3E;strokeColor=#FFFFFF;fontColor=#FFFFFF;" parent="1" vertex="1">
          <mxGeometry x="-64.75" y="479.75" width="33.5" height="33.5" as="geometry" />
        </mxCell>
        <mxCell id="ICR03PwGj1cyag1lzL8s-95" value="Postgres" style="text;html=1;strokeColor=none;fillColor=none;align=center;verticalAlign=middle;whiteSpace=wrap;rounded=0;" parent="1" vertex="1">
          <mxGeometry x="-78" y="506.25" width="60" height="30" as="geometry" />
        </mxCell>
        <mxCell id="ICR03PwGj1cyag1lzL8s-96" value="" style="rounded=1;whiteSpace=wrap;html=1;" parent="1" vertex="1">
          <mxGeometry x="7" y="474" width="79" height="68.5" as="geometry" />
        </mxCell>
        <mxCell id="ICR03PwGj1cyag1lzL8s-97" value="" style="shape=image;verticalLabelPosition=bottom;labelBackgroundColor=none;verticalAlign=top;aspect=fixed;imageAspect=0;image=data:image/png,iVBORw0KGgoAAAANSUhEUgAAAOEAAADhCAMAAAAJbSJIAAAA8FBMVEX///9DmTRFpThGoDdAlDNPqkFKpzxXrkdgsk+2tZipqohbr09XrUtVrEhesVJis1HCwac/ozFmtVg1oCXOzbfz+fJAnjA2kCfb2sc5mydcqk88litmsVlSrT75/PhtuF5PpEGo0qM1lCK32rHV6NJJqTXk8OLe7ty+3bqx1KxNnj+Pxoiex5c+ly693bl4u3CBv3osjRpcnk7t7eWWy4xzumWWxo97uHLJ4sVrsWE8pCp3tm4tkherzqZbpk90sWqEuHygx5t6sXORvoxooVmJsnV0pGOXsX2ntY16q2ShtIhkplq6waPF0beio37f39LVdvCnAAAKW0lEQVR4nO2cCXvaOBCGwY4P8EEMAQqlDjkKKdmmSbPJptkuzZ7tdo/8/3+zPrAtyZIss+HRWM33C/Q+M5pvNGNotZ71rGc9SzUtZB9g5/peecTLI9kn2LVurKHsI+xWC8v8TvYZdqsjyxspHcShZfuTW9mn2KW+t+zD0UThcnr3yrZv9JG6QTy1bNs+1PWBqjdxGQPaPV0fPcg+ym6URDDSXNcnS9mH2YXuNoC9aRTED7JPswNdvLILQn2iXu92kgGmhPrkVPaJnlgF4IZQ19WqpwhgRjiahrJP9YQ6QgDzGI5m6iBigDmhPlGmoOKAds/RM8QfZR/taUQA2j1XVwuRBEx6mhzxB9nH+/86s3scQgUQF6+sPkno6Shiw19SYd+wDklCV8cQmz22OX9lWX0yTR0dR3wj+5T/QxevrUhkEH2dQLyTfc6ttUgASxexr5OITX0thraVEvYqCEfzhnbh8SW0KGk6Iwmb+iA+eW2JEuqTc9mn3ULLHNCy8Zt4WCbUByeyz1tboYWomrCB1ebSQAgPqwkb9yB+8xqNod+vJNQnD7LPXEunGCARxBsqoT64kH3qOjrEAfGLyCDUJw1yxYv7PkHYEyBskisapkME8abyHupNGhMfBYZrsy8ik1BvymJxaEQi0hQ1fTZhU/L09nWZEA0im1CfNKKeLoI4hkZvG8Jm1NNLzeCnKY9w1IAWfHmfABo+M01L70MsiPB3UjdmSmiRlihGCL/Y3KW3sBzEojflEuqTM9kIFZqZGSFp+nmakpMoMoqyEfg6y0NoeITp5zHs8QlhdzahZRQiLmIvR+QT6qC/ezsKEEJmNa0ghDzoDzUE0PBYpl9BCHnFf4Imadn0DwUJAa8yZprDIcxrTWUMwfZuy8B0eEEUJ4QaxO8C08UIiVqTVdNKQqieGDqa6bkcwk2t6c0rCYFu3E4Hpmn6WDUlENNxjQDhaCobhqrzICLE05S4iGlvKkAIc6cY3keApuGhhNTeVIRwBPE7lLOEEK+mZG8qTAhyKHWjJYQ+L00TwxAjhNe6LQLTLCPSqmlfhBCgYRxlhFzTFyeEV2v62oaQa/pxbyoYQ2jjjNP7DaBpOBVpKkYIrjk9z5K0otZEpi9KCKuvGXpaTuhZHMLI9PtuNR68ND0LvJwQN323lKaChMAs8TxwTHqaWsRLv9/rT6vpEsKfZFOhCrQihny/sPt9p5pOn07nU0id23KgGSzEUm/KJZzrbsS2bsf6CChN3ww0zWEFkRxIMbJ0Pp+vp6v1qp3rGFCavgs4hCVLJN1iHkVt2l4hbKnermVzFTK0SC6j1pS67znCNp2vS2S5PoIx/eU9QYgF0SQRvfi6zfPrxtYxmC3N2YAgxE2fTNPZdDVlBw5N00+yyTKdBzEhUk0NrP0mq+lchC7RCsrHbh8SQo1p+kSaToUJj4FshIdaKs/ICV1ebypO+BLIaHgxSAmNghCvNcT3Q+KEUC7ixYaQaYnetoTtNgy/uA3KhLxHYg3CjzAu4ruMEDEMjTOQqkEIpHHztDIhL4g1CF8+yIaLFQ5ohBzTr0H4diWbLtayIDQLRM5Aqk6l+QjB8+8KQrE0rUMIwvPfIISI6Xsei3BWhxBC852bBa83dbckBNHVvEMImZaIfnpShxBEV+MhgFhvyrqItQghFFM0hJrpMYLo2FsRtl/KxoteFvcoIfOlb21JeCy/M10MMELkIrLStB6h/JHiKU7IrDX+loTyDfGOIKw2/XqE8jelZwQh0/T9phIe4ZUGraYG/QupeoTy14i3AU6o+VVpWo/wZ9mAm1EiIqOqN63nh/LbthKhydpCZQOpeoTyP6y5JAmZpu8pQ8jcQvW3IXyQDVjOUvZAylGQkLpKbBphyS3wgZQChKTjEzeRsixtGuHJoEzI702bVkvJzjsWfyBVj/BX2YBUQmZv6jSxpyHfh4lYvanl1+5L5W8uljRC7rK0HqH8gemCRsgdSDXtfRhS3II/kGraFKNVdnyN35vWIwTw90oujRBBLC1L+7UI5c/a8Kk+LU1J06+ze2ofy8Zr0ds23PSJZalfh7AtG6+FfIqBV1PWstSxa+0tIHztTbV83ocZdbIUQOON7fFRMQdSZq0dsPyWJpJPLTWo6eMbjFqE8g2/RX3lE2mKW2KdewjjW296MdVc4wkIAawPW4zeW2NbYg3Ct3/Jhks0NCoJnS0JAbx/E9G7GpTQ3ZYQRKFhXkTWO1iIcL1erVd7e/J33ImWDEKG6VcQRmTr93uJxhC+NUnk0QkZps8gXK2iwO3Fgcs1lr9a26i8u0jEGEiVHX+9igK3QtlSXQF4/qaizdvYFxEljFNyXSLLBeQaRmIQogMpDyNMUnK1LocNFZxrKJKmiCVO2/zAFYTyd/i5yA8yMlFNf8qPHHINQTSlqUJ6DOmmPxME3IPwvs/FeF9QB1KiIRzLH+gjYjz0qd13WzRJAQwSETn0IFK2UJZoDCF8WoqI1ZuW38GihHAamlRD4d7UEyUEVEkTMSwR+bZ9k6auGCEku0/FqDVl03dFzD6qM0CehohmggMpQcI92TxlMdrv0rJULEuh1ZlE9LlpqdaIVZorOM+KQozmlOxNhQjHQEZQhOhBRL+QSqqpUAihWUUqRhDJNBUJ4S+yWRjyqjbeMaEnEkIw4wtCdE9EBlLxuMYRCCE4t89FnQ2beK3xGxxC1goD/6VQ9QN4DGNbQRf1JexhvWk1IbCHIa7QpAWxIIxe+tPKEEItpKmo3y1gF7HS8ME9mwjRGnCE0PCrhhhA25lCC9pTGBl+m5UxhPATfK6O+J9FmxWPpyv5n1tW6kM5T5EnlMEnBO0UmWhfnDqiMYReZlJR6mlOqH14z81RQKsKnspTqXwgpf3yGy+CcBtSXKHL/Mme9vsfPEKIL3uqypt9V4QQ4HyNqdIvabJqGnxmE4L3ekznJOImiMEXJmEjjAIR2b1lhJ3fxyzExlzCVENipOFlhF8ZhKDfTFQtiSCmvanR/UInbFKVyXRK+U8Qbdb99y0VEMTHwHWFF9RkIKV96nZpTc1Vo8poIfyZEdca7U8q4fhB9lG31e2ASNOY8I/SRQQ+t+DqEkGMe9Pgc7f7mSQcfwL/6OUIRYwJv3a7X0nAhjk9KQTRjVuabrezUgoQRYx6U6cb6TccsMkpmqpA9CM77OIXUQVApAt341La7eyrlKKpMtPwtM8xYdF8N+ZNX6ns/zH9LwlhJ+tkHmQf7Ol0N0j68HknAeykpt/MXpSlpREhBn+mIez8vRrvjffgbgm30tAPtCC9hp39/f33V3817MFbrfDdINgkaUR4oFSGZrqN3XB/Qyj7MLvRP0UIr2WfZTcK/80IX8g+yq6Ux1DRELZaB5tKuq9CM0rVdUfpOhMpVP0atlr7aQgVJjxICR9ln2N3eqE84WMCqKrfx7pWnjBMAFUmbB0khMoafuubIVTYDiO7iEOoPOELpQkflSe8PvgGCF88EzZbCaHCjXdMGIXwWmXHjwkflSZsPUaEj0oTtsLra8UJI4XKEz7rWc/6xvQfB0dYePp+cmsAAAAASUVORK5CYII=;fillColor=#182E3E;strokeColor=#FFFFFF;fontColor=#FFFFFF;" parent="1" vertex="1">
          <mxGeometry x="27.5" y="476" width="43" height="43" as="geometry" />
        </mxCell>
        <mxCell id="ICR03PwGj1cyag1lzL8s-98" value="&lt;font style=&quot;font-size: 12px;&quot;&gt;Mongo DB&lt;/font&gt;" style="text;html=1;strokeColor=none;fillColor=none;align=center;verticalAlign=middle;whiteSpace=wrap;rounded=0;" parent="1" vertex="1">
          <mxGeometry x="21" y="512.5" width="60" height="30" as="geometry" />
        </mxCell>
        <mxCell id="ICR03PwGj1cyag1lzL8s-104" value="" style="rounded=1;whiteSpace=wrap;html=1;" parent="1" vertex="1">
          <mxGeometry x="730.71" y="302.5" width="55" height="51" as="geometry" />
        </mxCell>
        <mxCell id="ICR03PwGj1cyag1lzL8s-106" value="Redis" style="text;html=1;strokeColor=none;fillColor=none;align=center;verticalAlign=middle;whiteSpace=wrap;rounded=0;" parent="1" vertex="1">
          <mxGeometry x="728.71" y="330.49999999999994" width="60" height="30" as="geometry" />
        </mxCell>
        <mxCell id="ICR03PwGj1cyag1lzL8s-107" value="" style="shape=image;verticalLabelPosition=bottom;labelBackgroundColor=default;verticalAlign=top;aspect=fixed;imageAspect=0;image=data:image/png,iVBORw0KGgoAAAANSUhEUgAAAgAAAAIACAYAAAD0eNT6AAAACXBIWXMAAAsTAAALEwEAmpwYAAAgAElEQVR4nO29CXgd1Xnw7zRrE7IHCHzGunNXSbaubJTQBEhME7K0hGYrSZM2adO0pF/SljbN9ydtyNLka7amafmTNHWaQvCVbCzjBQwGbLBZYxbbeJEsS94wYIMxNnjBuzzfeUcaWd6ku8zcd+bM7/c8v4enqTH3zp2Z9z3nvOc9Y8YAAAAAAAAAAAAAAAAAAAAAAAAAAAAAAAAAAAAAAAAAAAAAAAAAAAAAAAAAAAAAAAAAAAAAAAAAAAAAAAAAAAAAAAAAAAAAAAAAAAAAAAAAAAAAAAAAAAAAAAAAAAAAAAAAAAAAAAAAAAAAAAAAAAAAAAAAAAAAAAAAAAAAAAAAAAAAAAAAAAAAAAAAAAAAAAAAAAAAAAAAAAAAAAAAAAAAQOx58l1jf3tVS8ubffuy2VdrfyYAAACoAQnoayY2Tu5pbbxybWv++2uL+Y6eYuHBntbCevPP7eb/PrS2teCebH6v+TNPmj+zwvxzvvnnz8yf/ar53z/WNz6bcceMeZn2dwMAAABDT6Hw+jWtjR80Afs7JmDfLgH81MG9ds3f/4JJCBaZhOAnkhSsaWx8q/b3BwAASARdzc1nrCk2fsQE4GtNQH7ceCSsgD9qQtBaOGo+x2qTFFzX25q7bGlb22u1rw8AAIA19BWzk0yQ/aYJuPeffvpeX5OM7DOf8Q6TFHzFJAT/S/u6AQAAxAr3ijEvN4H+Ym+UH+KUfsizA/1e3UFL4aqu5ua3a19TAACASHJc0JdCvQgE8TCSgfXF9Fna1xoAAECVwaD/PuMU4/PagbouFvOHTDJwm/nn56SAUfs3AAAAqBs9LY1tMtI3QXCrekDWnRnYv7ZY6OydmLuULYYAAGAla1oazzdB/19N0N+sHXijqEkGNppr8+3uSU0N2r8VAABATaxpazxH1r1NcFuuHWDj4lC9QGvjlSuKxddp/4YAAABlIS11TQC7XKa2o7xlLw6a67jLJARTWSIAAIDI4q/r21bBHx3za6XbIUsEAACgTldb8zgTlK4xwalXP0AmQ+l8KLsI1hQbP7G0re2V2vcAAAAkBDlFb+3EwhUm6M/TbMOLYn6nt4VyQr6ofV8AAICFuGPG/JYZ6f+uCTa/NkFnj37gwxMdPO3wCxQOAgBAzUg/exPwr5ZjdLUDHJZrfrdfOKh9/wAAQIyQKn6m+O3QJAI9ksD1TcyeqX1fAQBAROlubRpvAv4PqeK30fxBSegksZP2y9r3GgAAKLOqpeXN0nCGRj3J0SR4T0uit7aYd7TvPwAAqCNS0Cfrw16jHm9kqB+UUCERGOg4uLC3mPu87OzQvi8BACAk1hQb89JIxoz8ntAOPhg1B7YTmsSwVfs+BQCAAJDjZs2L/YuyRUw/yGAsLOYfMvfLn7OdEAAghnhteaVBDHv2sWrZTggAEAt6JhXOlS1fJvD36QcPtMmeYmGNd2+15d+mfZ8DAIChq7n5VT0thT80I7U72LOPYWvusX0yK7BmYuNkTicEAFBg7YR8o7dnv7WwTTsoYEL1ZpryV6+aMOFs7ecBAMBq/EN4ZOuWCfxH1QNAFW78yAfctZOa1T8HBufg6YQL5d5cPHnyK7SfEwAAa7CpoO/JL37OPfzcNnfH9b90N1x2qfrnwYAt5rfQZAgAoAaGdehbqf5SD9i9Sx5yPfr73Zcefsjdes3Vbu8FreqfC4PTbzIkswJSp6L9PAEARJrjOvQV84e0X+JhuenTH/eC/3CO7Nzh7px6vbvxY7+v/vnq5Ybff7+76YqPqn+O8B1oMtTTUmjRfsYAACLFuvGZ8wa37yWmQ9+u2291T8f+7i732e9+0+179yT1zxm0G37vfe62H/+Lu+/xZa579KhJAP5A/TPV1/xSmdmiyRAAJBb/yN04F/TVGgiPHjx42iTAWyHYu8fdNW+u++SVX1D/vDV918suPRb0h7Fv2WPqn01Lc9+/KLMCa1oaz9d+FgEA6gJH7h5zZ/uvR0wAhnNwwzr3uf/4ibtu8rvUP3c5bvrEZe7zv7jO+9ynY8vVX1X/nNEwv7SnpXBVV3PzW7SfTwCAQNnQln6jTHvKi07/ZRsd173nne6RXbvKTgIEmTXYveCOgVmBiY3q32G4Q0F/44ZRv8fh7dvd3ndMUP/MUbKntbBf6l+kDoYmQwAQa4Zt39ur/XKNqtuv+2lFCcBwDm5+wgu46z90idrnHwr6T2yq6LM/P+Xn6tc+2ubXSl1M38TsmdrPMQBAWaxpazxHXlxmNLNe/yUafWX73+FntladBHj0H/G2E2752lVu7/khNxma1ORu/rPPen0MDj25uaqPe/TIEXf9ByerX/t4mD8oswI9xcLl7hVjXq79fAMAHIe8mIZt3zus/9KMl8/88zW1JQDDOLz9ueCbDA0G/Z0dU70mRrWy++4F6tc8jpqk+impn+me1NSg/cwDQMLpaSkUvK5nrflntV+OsXZSs3tg/emL5aqiv9+rupfthFU1GTKfaSjob98e6Ed78i//VP+ax9jhTYaWtrW9Uvs9AAAJYVNDw2uSvH0vLJ++6suBBtnh9O/e5b5w84zRm+4MD/rPPx/KZ5ECwagVL8baYn6rJOF947MZ7XcDAFjKsIK+3eovPUvdt3xpKEF3OCc2Geq9oOg+/bd/5SUI0o0wbLb98Hvq19lGJRk3icCDsttmaVvba7XfFwAQc4b68RcLK7RfcElw8+f/KPQA7CNNhvY+9ID55976/Tdfesntu+gd6tfZds3z+oIk670Tc63a7xAAiBF+P34zophqXiT7tF9mSXPPooV1C8j15oXO6erXN3kOtB7uam4+Q/vdAgARpa8lO3Zw+95G/ZdWct340Q972+RsJHl9/6Nkfrck9ZLca79rACAC+P34zcthnhntH9F/SaEo6/G2keS+/1HTPOvd3uFbbfm3ab+DAKDOyNqgeQFca9yh/TLCk13//ovd/n37tGN2oND3P3rKEp83K9CSey+thwEspu+C7BsGC/oe1H7x4Og+/9+/0I7ZgUHf/xhYzPfJrMCqCRPO1n5XAUBA0I8/nvZdeH5oe/HrDX3/46MsBfpNhhZPnvwK7fcXAFRIV3Pz2+V4URP0V2u/ULA6N3/uU+7+VSu0Y3fNeH3/FQ8rwhos5rd4nT6LeUf7nQYAIyDZ+tqJ+Y+aoH8r/fjj6QYTKJ/7j59UfLJelKHvf/z1Wg+3FuavKTZ+gtbDABFi3fjMeV5FbzG/WftFgZW77j3vdLdec7V3mp979Kh2vA4c+v7bZn6nLCn2tBRatN99AInE375HP/542vvOFq/97u4Fd7hHDx3SjtGhQd9/2x1oMrSiWHyd9jsRwHp6J+WaZE3OuF3/4ceKHHak7pEXdmrH5rpw9OBBL8mRZKf3/Gb93wBD0byPXpRZgTUtjedrvyMBrKKnUHh9bzH3ea8yNwIPO1bmxo/9vvv8L65zDz31pHY8VuXwc9u85IdugLabXyoFyF3NzW/RfncCxJZh2/f26D/UWInSyGfbj//F3ff4Mu24G0nkREK5Pusmv0v9t8Jw7Gkt7F9bLHRK62GaDAGUwabWhjdx+l487b2g1d3ytavcPfcttraXf9DIEoFcL7luLBHYbH6tFCr3Tcyeqf2OBYgUnL4XYwfX9aV3vxx1C9VzePtzg0sEH9X/XTEk8wdlVsC85y53rxjzcu13L4AaPZMK5w6evrdB/8HEStz0icvcHdf/0mtxC8HDEoH9mvfeU1LQ3D2pqUH7XQxQFyTrldG+ZME064mX6z842QtKB9au0Y6PiYElAvv1mgwNth6myRBYSffEppzXUrM1/6z2A4fl23ex3U164gRLBAmwmN8q78m+8dmM9jsboCZo1hNP/SY9u+bNdfv379eOe3AKDm5Y57VMZonATgdnBR6Ugugn3zX2t7Xf5QBl0zcx2zx4gMbz2g8SlunExoFivpk3uUdefFE7vkGZHD1wwN1913z3qa9c6a6dxBKBjZp36QuyHbp3Yq5V+90OcEr6Lsi+YXD73oPaDwxWr/TllwI/SQZk3VnW/KWJj1T5y1q0FKfJVDTb/KLH0BLBpz6mfh9hWA60Hu5qbj5D+50PMLxZz179hwPr6WjJgjQBku5/Rw8f1o6NiWNoieCSd6vfJxiG+d2ybVoKqrVjACSMVS0tb5Ys1NyEq/QfBIy8Exvddb97obvpkx/xTsbb+o9fM8nC990d/zPFffGW2e7eB+5196/pdg9ve9bqg4HqjczSSAL23L/90O278Hz9+wBDsadY6Jbt1GsaG9+qHRvAUvxmPd72PWlmEYEbH+1UOgpuuOxSb2ZBihGf/e43vZkFmd6Wg3VkZkFGuP1792jHWDVk7V+Cu1wLuSbSk0FmYGQmRq6bXD+2DSbLntbCAVoPQ6D0tub+12Czno3aNzjiifZd9A5340c/7G7+wh+b4Pe37rYffNfdt+wx7fhcNUcP7HcPPrnZ+w675s9zd0693pst2XL1V48F9guK6tcdI24x3yfv7VUTJpytHUMgZnQ1N7+qp6Xwhybo3yHbUdRvZsQK3PChS9z+ffu0Y/lJHNm1y5u5kJ4KssVSRu0yuyGzHE985hPu+kvf4y2XaF8/tMhi/pBJBG42//ywzOJqxxaIMCboF2T7ngn629RvXMQa3P7za+sW2E+cjpelCinAYzoeI2Uxv0Xe770tubR2rIGIsKmh4TU060HblGZGMpUeFi89ssTdePkHvXoF7e+KWInDmwwtbWt7rXYMAgW6W5vGD7bm3aF9QyKG4VN/9eehJQBP/82X1L8fYq0ONRlqzU3UjkkQMhva0m8c3L63TPvGQ6yHe+5ZEHjwP7R1C133lHxsQt69qzHn/ud557p3Fxx3TVH/M9ljfmlPS+Gqrubmt2jHKggQmvVgUl0fQkGgrO9rf68kudoE+Qeb8+6t+Zw7K5d1Z+ez7j+e+TbP7779LHeac567dEJO/XPaYk9rYT/bCWOOyeLeLtmcCfqrtW8oRE23X/fvgQV/OZ5Xmhppfyfb7TFBf+mEgruwKecFfAn8vsMTAN9/Ml439hz3zrzMCuTVP7895nvZThgTjmvW423/0L55EPXtfccE9+CmjYEkALtunaP+fWx2VUveva85584dHO2fytm5kxOA4f7z2We5U1Nj3YfHZ9S/jy2ahOyIFIpLwfjiyZNfoR3rYBh9LdmxkqWZoL9J+0ZBjKJPfekLgSQAmz/3KfXvYps9xkfHy9r+qQN+pQnAcH9y7tvdW7MNbhe1AsFZzG+VAvK+8dmMduxLLH3Z7KvND/Fp4wKa9SCO7u6Fd9UU/A+sXaP+HWxypQnKMtq/JV9e4K8mAfD99tlnujekxrpLxmfVv7ctetsJWwt390wsfFa2k2vHxESwdkK+0WvWUyw8p30DJEVpvbr+fRd6DV1k77d0bfPd/Od/4j555ReMf3bc/77xY7/v/fn1H3iv2/fuSerfAWsvCHzmO99Q/w5xd01rZaP9oBKAU88KUCsQlCYevcjphCFBs57glYAu07lPX/Vl99nvf9d9fsrP3Rfnzho4ma57tddE5sjOHcGdTtff77WClY5xB3q63Zce/s1AO9hf/2qg1/v/9/deP/sNv/c+tpiF6Pbrflrdz7d7l9v3ronqnz+urmwZGO3PrTLon2gtCYDvtwZnBR5qZlYgSE2M6pElaSlE146dscbbvteav9a4U/tHjaMycn/iM590n/n2P7nP/2qK16ZVgm//3r3BBPWQkKTj4MYN7p77Frs7Sze4z/7LP7tPfvFzbt/F71S/pnHXKwg017ZS5FAe7c8eN2WPfq2j/TATgFPNCqxmViAwhxcOyvky2vE0FvjNekwWtVz7B4yTfb/T6j75F593n/v3f/VOUZNDV+Q8dNs4tOVpd8/iu93n/+tn3uzFusnvUr/2cVOWbCri6FF34x98SP1zx8UVLXl3UVPenRNw0A8zAfD95llvc6eMO9dd1JhWv452aQaxxfyUvmJ2knaMjSRDzXqK+Zf0f6zou+69v+MFQBmZ7V+1wj16+HA4ETfqmOB0cON698VZM9yt11w9sIQQgd8n6u5ecGfZl3jvQw+of96o221G+0vG59zbC6ffvheHBGC4Pzr3bHdmZpy7soUmQ0HaUyx0e7vW2vJv0467qvRMKpy7ptj4j2a0v177R4mDmz5xmdeFTY5TTWzALwOpM3jh5hneMbNyKI727xZF139wstv/0ktlXU9JNLU/b1Stx2hfKwHwvebMY7MCPRG45rYoHQeN09dMbPxAYo4qliYKJgO63GRAt5jR/mHtHyHSTmx0N//pZ9wXZnS4h7c/F3LYtBOpd5Dah6f/7iskAyf43LX/Nur1O/TMVooyT/DYaL++QV8rARjuD84ZmBWQxEf7d7DKYv4Jkwx8p3tSU4N2jA6FdeMz5w0263lC/WJHXNlC9/x//5e33g3BIbsQXpzV6RUUSnKl/TtrO1AQuH7Eaya7BrQ/Z1T0R/uzR+jSZ3sCwKxAuA4eVbxQBsmxP4dAtu+taWn8jPlS97B9bxQnNXnFWVL5LuvaEC4HNz/hLackfWeB9G84HbIbQ7aLan9GTaWvvoz2b6vT2n5cEoDhfv+cs90Z6fPcZRxIFKgmCVhh4uYXlra1vVI7lldE76RcE816ylOq95/76Y+8I1ah/vTv2e3ubP+1u/7S96jfC1ruvmv+Ka/NrttvVf9sGsqIduggnggE+1P5jQgE/hP9xlnDDyTS/x2tsZjfLDvjIn0GQU+h8Pre1txfmofnYfULFgNl+vXZ737TPfzctjqHPDgVMtqVwsH1779I/d6ot+vff7Hbv3fPSddk8+f/SP2z1dOuwWN351XYmpcE4GS/N3hM8bIJNBkKSq9YfmLhCu1YfxxrJjW+23ywX61tze/RvkBxccv/+TuvuAqihxQNyvG5kqBp3yf1VPpHDOdAb4/6Z6qHcRjtxzEB8OWY4jDM39k1qTmrFvS7mpvPMA/Ol2SNQv9ixEeZZt599wKl0AaVcGBdn7v5c59Wv2fqZe/5ze6Bvt6h7y+zU9qfKUxXD472b43BaD/OCcBwvzs4K/AYtQI1O7iF8Et1Dfyytr+2mL/OBP5d2hcgbj7zza9HvgUvnEB/v7vjxuu94Kh9/9RDOdhJClClLsLGvv/mvTU02tcO4LX6TxEI6MwKRMBi/vrQTyKU9oVy0pH0Nlb/wjFTgseO63+pHcqgBvYteywx1fC777jN3dl+o/rnCNK4j/ZtSwCG++2zz/IOJHp4fEb9Pomv+XmhFAiaoH+JbOHT/4LxVI7BfemRJdrxCwJAejIkoR++LFPZ8D1lbT+sg3iioC0JwHD9A4m6mRWo5n7/VXCBv6VQWFssdGp/qTgrRWTSQx3s4fCzz3DWQMRdZYKHHLt7i0Wj/VN5zVn6ATu8WYGBY4p/wzHFldmSf39NgV9O4lvbmv8FLXprdFKTu+feRdrxCkJAGgitu+Td+vcYDmn7aD9pCcCpZgW6mBUo5zm4v+rgLwcSmL/gSe0vYYPb/vUH2nEKQkSOI9a+x7DgriwWvNH+XMtH+0lOAHy/NTQrQK3A6ZQ2wn0XZN9QUeB3rxjz8p5i4d9p1RuMG37//WWfsgbxRXo5aN9rSXRNa/JG+yQAJ88KzMk2uKs4pvgkH2nKjC87+C9ta3utdypfBD64Le6aN1c7NkEdkCOHZalH+35LiitbBtb250Yg+EbBb5x9lnog1nb4gUTa92cUlG2uc3K5iWUF/67m5lfJmoH2h7ZJOVimf/9+7dgEdUIOb9K+52z22LG78d+3H7TXkAAMKcsDt+Qa1O9XbR+dkHc70ulcWQmAV+wXgQ9tk8/88zXaMQnqyK5b56jfczbqH7s7JwKBNqoyA0CB4InOy2XKSwBkf7/2h7VROUwGksPBjevV7zlbPDba1w+ucTCpCQBbBE/tI+PzbruTLjsBmK/9gW1UqsMhORzZtUv9nrNBCf73xOwwHm2TtgRAk6DTu8o8Pzel0+UlAN5BPrT0DUUO+kkWR3buUL/nbHJoFiDPmj8JAG2Cy7GrpeDOzma84F9WArB60vgm7Q9tqzs7pmrHJKgjB3q61e85W6UOIJkJgH9Q0O35lNtV1L8Po6xcn1mZY8FfvNFx8iMmAHfl0xdpf3Bb3fK1q7RjEtSRndNK6vec7fqzAvOpDTg+ATjLrgSAo4IrUxLkm08I/mXNAHQ0NDTKnlrtL2Cj0v9fpoUhGWz69MfV77kkyayAXQkAxwJX55LmvDs9nT4p+JedANyVp4IyLHdOvV47LkEd2N+1Sv1eS6rSDfDhCcnuBhjnBOB7g6P9pYz2K77v7zb3/KkCf0UJQIf5gytb9L+QjfZd9A738LZnteMThEl/v7v5Tz+jfq+hzAoUEtkhMG4JwDfOOjba72G0X7HLW/InrfdXnQDIH5TKwTUUWYTi03/zJe0QBSGy44b/Vr/H8HiTdkbAtyIQ1Mvx++ec7c5In+cuY7Rf9X29yNzTHaME/ooTAHG+uZF6IvAlbXTH/0zRjlMQAi89/JDb+84W9fsLT28STgmMcgIwvEc/8aV6pbnPzDJG/VUnACQB4bqzdIN2vIIA2b9qhdv37knq9xWWp7zXbJ0ViGIC8AMz2p+ZGecVa2r/9nFWGvvcma8s8FedAIjSQ3hNBL64dU5qcne2/1o7bkEAvPTIEu+wJ/V7Cqty1eBpgrdYMisQlQSA0X5weh0xC1l32mkq/ENLAETZU7h8gv5FsNGtX/8HTgmMMXLGQ2/bePX7CGtXjkxdat5zC6X1cIyTgW8qB/4fnTsw2l/Zwtp+zfek8UFzP86oIfDXnACI04z3N/GDhuETn/mkd3gMxIcjL7zgbrn6q+r3DobjapMMPNicd2+NYethjQTgm2cdG+1r/3Y2KMnoQ825itf5R3JqJpOtOgHwvSWbYR0nBGUU+dx//MQ9evCgdmyDUdi94A533e9eqH7PYPjKCMyfFdAO7FFMAPyDeFazfS+w+22JCfyn6uQXiQTAnw1Y1JijNiAEN378Mnfv/Yu1YxycggN9ve5TX/4L9XsEdewanBWYF/HlgW+fFW7Q/9bgsbsPcexuYErgfyikwB94AjC8NuCR8SwLhOHmz33Kfenh32jHPDAc2vK0++x3v+mundSsfl+gvsNnBaJ4THFYCYA/2u9itB/ovfRAU7BT/XVLAHzn5DLmgeCmCMMnv/g5d8/iu123/4h2HEwc0tJ36z/9H7f3fAI/nloJht6sQCE6SwRBJgDfHhztLxnPaD9IZfZcauo6AyjuU08AfKVvAPUB4bj+0ve4z//iOq/4DMLj6KFD3hr/k1d+Qf03x3g5dCCR8hJBEAnAsdG+/nW1SUkY7zbJ4k11DPx1SwBEaUt4e55EICyl09zTf/tX7q55c9k+GCD7u7vcbT/+F3f9+yjuw9r0jym+XWkHwbfOOrOqoP/dsweP3WW0H7hyyu7CGvfxxyIBGEoEzBedbxKBx+kfEJpyuNAz3/pHd899i0kGKqX/iLvv8WXuc//+r+6GD12i/luinWocU1xJAsCxu+G6bELeGxB3KAZ+lQRguHOzFAuGbe8FRfep//1Fd+e0knvwyc3a4TWSHNm5w9112y3u1q9/1V333gvUfzNMjv6swPxCNBIAjt0NT7/N9LzcyMfzJiYB8JUjC6WrEdsHw3f9+y/2lgp2XP9Lb6R79PBh7fhbdw5vf85bz5ep/Sc+8wmv/bL274IY9qzA6RKA4aN9jt0NXolrspVvVjb8iv5YJgC+N6UzXh+Brhb9Hy0pynLBk3/5p+62f/2Bu+vWOe6B3rX2JAVHj7qHnnrS3b3wLnf7z/7DS3ykaFL7miOOpASMhycEfyDRt88+67jA/38HR/vLWNsPRWmCJPFMo7AvlgmArxQMyslGj7OFUMXed0xwN33qY+6Wr/2t+9y1/+a+OHum+9LSR93D257VDumn5MiLL7r7V690d82f5z7/Xz/ztuhJv4S+C9vUryViLa5oGTymOKAE4Btnnen+/LxzB9f29b+fjS43cetOKeyLQHCPZQIwPBG4NUedQJSU5GD9hy4xAfbT7tN/9xV32w++6z7/y//0Dr/Zfdd8d+9DD7j7Vq7wzjA4/Nw298iuXe7RAwfKCuRHjxzx/vyRHc+7Bzc/4e7vXu2+9PBD7u4Fd3pJyI5f/4+77cff93rtb/7CH7sbL/+g2/c7rerXBDFsZWr+4fF5947G6nYQ3JbPunOyDe7j7MIK5/dpjeb6fqwTgOHOzqa9dRSOj4y5k5rdde9555BSpKj+mRBj5MpioaxjiqWWQLoSLmXHVWgeW9/XD+RWJwC+0iHpXpMFd1Osgpg4pd/Fpk9c5m752lXeIVnS90J6NchslPZnq7f+qPPEWoHbC1mvC2E3U/yhubol796j1Lgn0QmAr18nsJw6AUTrlGJN6booZy3s7JjqLQVJQacUdp6ItMTW/rzarhpsPUyjtXCN2/q+tQnAcGdnMiwPIMZM2YEi2zBPHM3379tXfgHozh10acTQjev6fiISAF9ZHljcmHVXM/WFGBkrGc1XypZ/+Bv174d2Krsk5ES+MI/ijYLTs9mMFQmAr3/uACcRItbH047mQ2xFLX0rtL832qes78dh/z4JQBnOpssgYmCGOZqvBOlJIbtItK8H2uNyE/ilrqwjAnGLBCBgpcvg3Y1ZdxXLA4gj2nfxO4dG83LUtLRNDns0XxEm2XjqK3+pfp0w/krd2JLmnDsnZ/c0f+ITAF9/eUCKOrRvPkQte89vdjdcdmkkRvOV8sKMDvXrh/G2q5j3tpN3ZvRjkraJSgCGOzs7uDxATwG01NON5o8eiMhovkIOPf2U2/fuSerXFeOpjdv4SABqVIo9FpqbYhV7aDGGDh/NywmH0pZ5aDRvE/397uY//xP1643xsqdY8NrJ35rgaX4SgDK9PZd1l3L2AEZQKcoaUPkAACAASURBVHqzaTRfKTtu+G/13wDjY5cJ/IubskzzjyIJwCmUvZ+0HMZ6e7rR/OHtz2nHX1XkcCnOjcByHJrmTzPiL0cSgJEujlFuJk7RwiA9/Wi+vJMTk4ScEvnEZ/9Q/TfD6CrV/EzzVxnjSADKk5bDWIm9beMZzQfA9p9fq/5bYjSVA4/ub5JqfgJ/tZIAVOgMv6cAswLYemw0v/Waq90d1/+S0XyA7F/T7SVS2r8xRsuV5t27kGn+QCQBqNKOdNo7IIKeAvZ7+tH8du0YaS1HDx50N33yI+q/PUZD//hjWw/l0ZIEIAApGrTDU43mD25Y561DQ33Z9pMfqt8PqG+3Ufq1zMrqv+dtlAQgyIvpUDQYBzd+9MPeSXLb//9/8w6V2b96pdu/e5d2zINB9i191F07qUn9PkE9VxYL3lLrdKb5w41ZJADhSNFgdJUz5OXUukNbt2jHOjiB/n373I0f+YD6PYI6yimu0q69IyGn8WlLAhCyFA1GWDPKlHX9PfctjnwP/KQgZxOo3xdYV+W0VhkszaKav+6SANRJigajrYw6Zd3/yAsvaMfAxLJ3yUPu2omN6vcC1sfVZlC0qDHntWPXfj8n0ZKTPvqrQuH1JAB1lqLB6Nr7zhavQc++Fcu142GikBqM9R+6RP33x/BdbgL/nXlG++qmnKdGDP4kAOFK0WC0lR0BsuWvf38y+u1rsvXr/6D+e2N4yjT/kuacOzdL4I+KJcf5EQlARKRoMLrKsbqy/9+6E/Yiwp5FC9V/YwzH1cW8N9s5g/X9SFlKOQdvTKfHkQBETIoGI+xg0aD0B6A3QDAc2bnDXfe7F+r/thio/jR/RwTeqXgKU6mvjRr8SQD0pGgw2q7/wHu9g3wkgEH1bPnqX6v/lhiMMnvJNH8svOvbY8b8FglATKRoMLr6RYPSGhgq48VbZqv/fli7q4sF7/3USTV/HFxSymbfUFbwF0qpVCECHxodigaj7hN/9PGBosF9+7Rja+Q5vO1Zr/Wy9m+G1bt8QsF7H00j8MfDVPpRk6S9sezgL0xznLPVPzieJEWD0bXvwjavoc2B9eu042w0OXrUferLf6H+O2HlyvvmkfE599Yc0/zx0pnd2dx8RkXBf2gWwHE26H8BPJVSXbuoMes11dB+OeDJbv6zz1I0eAI7p7er/y5Ymd2D1fydVPPHSmn2U0qlv+WOGfOyqoK/MNVx/lr7i+DIUjQYbde//2Lv/IHDz2zVjr+qyFbKvndPUv89sDxXmIHFQm+an8AfQ7dObch8uOrA73NDQ8NrTCaxKQJfCMuQosHo2vuOCceKBpN2/kB/v7v5C3+s/hvgyMo0vwwkZECh/S7Dqp1x47mNb605+PuUxmXON0nAvgh8MSxTigajrRxL7J0/sCsZRxHv+J8p6tccT293seDe35RzZzLNH1tLqfSzpXT6M4EF/uG0pzKfNknAEe0viZVL0WB07bvw/IGiwd612jE6NA5uWOf2XlBUv9Z4siuZ5o+9EpdN8P/ZDQ0Nbwol+A9LAj7KTEB8pdNgtJXzB3bNm+sePXxYO2YHhhRAPvGZT6pfWzwm0/z2WEo5Szsc54JQA/9wSg2ZS0wSsEP7i2P1UjQYbde/70KvaPDQ1i3a8btmtl/37+rXEwfsNj7YlHNn0a3PBjfKdH9NFf7VMj2TOa89lb4/AhcBa3RWNu2t/ckaoPYLCk9w8PyBPfctjmXR4P413W5v23j965hwpZp/QSHr1QVpv2+wNmXw3ZFKXy3F+XUP/MNZPHnyK0qO8z3qAuzQLxpcPoFZgSi68fIPDhQNvvCCdlwvi6MHDribPnGZ+nVLskzz22Mp5ewppdLfD32dv1KmplKt5gM+rH2BMDgpGoyuUky39Zqr3QM93doxfkS2/fj76tcqiR6b5td/j2DteoHfca41gf/t2rH+tMjpQh2pzJXtKWeX9gXD4LyJosFIK0WD3vkD+/drx/vj2Ld8qbd8oX19kuTKYsF7VqdTzW+FHSnn4E2ZzJTOsWPfoh3fy6Y0btw5JSf9S5YF7FLO9Zb+39IHXPtFhyfbd/E7zYj7X9xDTz+lHfu9w5A2fOQD6tckKS6dkHdvz2e9wl7t9wTW7k3md1zUOLwmK7+0p7Xxyp5C4fXa8b1s5BhhkwR0al9MDN6ZdBqMroNFg3L+gNuvc/7AM/98jf51sNw1Rlmim0XTHmuUcxbua8q5a077Xs3vWVvM32C8WDu+l01HKjXZJAL3al9cDN5pxrvoNBhZ13/gve7zv7jOPbJzR92C/97fPOiundio/t1tdWVLwb3bPHM3Mdq3xllV1Vvle82f/05XW/M47RhfFh3p9MWlVHqe9sXGcJSiwQe97FX/JYnH2/vOlmPnD4RI/+5d7voPTlb/vjbqT/NrP+cYnHOztS+pmiSg3yQD83on5i7VjvFlITMC7an0Au2Lj+E4w4xMKBqMrk/80ccHigb37Qs8Adhy9VfVv59NyohwiRkZzqVpjzVKLdXt+Yy7LIQGbOZ+ebi3mPsj94oxL9eO86MyzXGKJceZQlthO6VoMNr2XfSOgfMH1q8LJPjvuWeB+neyxa5i3qux6czoP8cYjLJcKj1WVtRhYGQSgY1SNBjpRGBTQ8NrzAf945UtuYfuacweZU3LXv2iwa4W/ZcrnuzmP/usVzQoPfur4ciO5911v3uh+veIu8snFLwgMS0CzywGo5y9sqgxq/Lu6ykWutcUGz+iHeuPo3dirnVtMX/d2tb8zuEfVqpaH2zO07zCYr0sOJ/xXnTaL1s82fWXvsc7f+Dws89UlAA8/fd/rf7Z46pM88ssmcyWaT+fGJyzs4M1UVG4x4qFOarFgjLa7y3mPm+C/pJyHgjaV9ovRYPRtfcdE44VDY5y/sCLc25W/7xxVPZ4y/kbnWzjs8ZoL3vm90oMrmvg723Jpc1o/8cmA9lezYeWnvR3SIOLCPy4GI6y9CNnkVM0GE03fvTD3vkDUuF/IjJTIA2ItD9jnFxp7nO536fRrc8aJT5JnHo8BmeomFj8867m5leFGvh7WgotZiQ/1QT/w0F86NXFvLeOQotLe/WzZ6l67mFWIHL2XXj+QNFg79qB6H/0qPvU//6i+ueKi7KNj1lNu7xJcX2/Fs37da4c5Bd44O8t5n5H9iSa4H80jA8u6ykybXYz02ZWOzOdpmgwwj75xc+5z37vW+qfI+r63fp4X9nl7Gw69gelyUxAYIFfCgxkxB9W4D+VUidA/2u7Hdgzm/VGT9oPDGK5rm7Je73c2dlkl9Fd36/SWlsKrygWX2dG/D8xHtT6EpyAlQyPFQ2SDGA0XW4Cv+xy0X5WMDiPre/r31+BW8wvqjr4m6B/kRnxr1f/EoPKdNsDLA9Yr180uJKiQYyAfre+OWzjs8oZJo4sjuH6fkX3brFwpKu5+YyKAr87ZszLTObwf+Vf1v4Cp5O+2fYrmbkUVT0yPh/rtTiMp13FggkQOa/Ri/azgME5NNMYgXusHi5vzjaXHfz7stlXm5ftTdofulwH1uI4Oct2h4oG2T2AIStLjmzjs0upI5PBxKMh9OePsjJwmpvNTior+Mu2ATPyX6D9oavR7zI4m0M1rJaiQQxLf1aRomN7vMk/uCyhA4el43NyP+fKSgB6ioWfan/gIJRCHZoL2S9Fg1ir0o9Cqr7nZFlOtMmhNr0JfzfIrEdZCUDPxMKF2h82aFdz4lYinJ4eOIUrDl26MBrSptc+/ZqhpE3zn065DnJNykoA1rbmb9H+wGHJmdvJcHinQe17DqOp7Cy5m5ohq5QBwAJajR+nHDc9YzC5HTUBkL3+Ua74D9JlE3LufJYHrJfjiXG4y6SpWI71fZuUU2UfYJr/JKVQes6wwe6oCcDatgmN2h+63q42F2lgeYBZAZv1iwYl8dO+57C++sfwMvNnj9E+jU/fbpMMzTnhfr/RcfIjJgB35fMXaX9wLTmaODlK0WDc+3vj6Ho7gmgYZpXTHep8RnNlS8GddYp7ftQZgI6GhsaVTJWyPpgQpbFLkrcG2erAiaI5WoZbpN//o5tp/hGVZmmnu+/LSgCkiEL7S0TFYz0F9B8ADE+ZTpzP8kDsXW5GhdT12KUs23Bs+OjKbKY0whvp3i8rAZhm/iBVlCfrHf7hdQXTfygwPNk3HD+lcQ9Ld/YoMcg7lIc4VJZyncppfFdWAiB/UJphJKU/cqVKZeV97Bu2Xv8gIpLhaOoX9tG4xx5lu9oiyw/lCfoZuLep/BmvshMA8Q6WAka9+FI0SMtQu6WpSLSU504KOGdR0W+NXifPZp6vSnzMvI8qLW6tKAEQZRpG+4vGQYoGk6E8cPcn6PSwKCnX3OvYxzNmhZzlUZ1y6N2d+eqS34oTAPE28x9bQwFGWcpLivPC7ZeWw/V9pu6lot8aZeeNN81PTKnsORjc2TKthmtfVQIgynQbBRmVSdGg/Q4tD5AIBK4ECLby2aM/zU/vjcqVouQZAdScVZ0AiHIm9oP0Vq9YigaT4dDugQjcc3G2u5URvy0yzV+bS8YH28RqaiaTrToB8J2Xy1AZXYUUDSZDydQXN1HJXKnd3hRn1lte0f4NscZnwPyGNNiqXtndMjuEAWMgCYAoswGSpdOcoTopGrRfGf1Isc7jE/TvtyjLiN8epWHaQA8N/fsqbvrbWsNsOhdYAnDsB8+wPaoGKRpMhhxacrIEfjtkm2ztyrbWepxXEXgC4CsvuOWs89QkRYP269UJJLwQalVLwZv9Yqo/3srvt4BGWVUrg796BX7f0BIAUda178xnvelt7YsbZykatF+pE5AOXkk62ESWQu6kT3/slYB1H62yq7Z7cDufxvJvqAmAr7/2SSJQmxQN2q/s6bV5FDWwrpl3b2OJK9bKO51lrNo8dkKl3u9YlwRg+E1zl8wIUBBSsxQN2q+cYveYJctoMosl6/szuV9j7XRnoOHVCksT1Hr4+GDnvijMfNU1AfClSCQ4ZdpNejGUc/ITxtNZ2bTX8jZundJkR9CjZoTIcbzxl5bXtRvFEypVEoDhSuB6iGZCgUjRoN3KVtv55gUi065RLhpcZl50cmriDKr5Yy/T/LU5dFBVROu31BMA34FjH3OJKoIKS79ocGZEbzqsXdkqJ8merKdr77GWUaGM9KV2YWZG/9pgjfeW459rof8ui6v+kldnxJ+HyCQAw28+zlwPRooGk6HM+Eg3zvubst76YtjNuOS+kulMSTLlYLBpjPStUOoz7mUQVpNSm7XQm4WNxzMRuQTA168ToGd0cDcmRYPJUJLoW0xCcI95Ef2mOedNyVf7UpeRzFIzupdubvJiuyVLwLfNueY3leZjdHGt3iiu75djZBOA4UoPZOoEgpFOg8lVkj8p5pIgLiP3O0xAv3O4+ax7m3mJyb0ho8FajhnFaCu/7R35LCe61mCP/y6NcQF2LBIAX3kpSSVqN5lqIFI0iJgspUaDaf7alFmxxeYa2lDkGqsEwJe9qCHc0HQaRLTWW80o9eGEt5yu1bit75djLBOA4bJ+FZwUDSLao9RRMc1fu7K+b+s7MfYJgK8/tcWZ68Eo3RopGkSMnwNbqrO8C2vQhvX9cpyezWasSAB8pbjFO3OdrDcQ/aLBuZY/CIhxV4ql5WRJ7XdGnF3t799PyMDHugRguP7ygPZNZYvHigZJBhCjoD/Nz9HrNb7b5GTKBBZEW50A+PpdBuPWSz2qHus0qP/bIibRoWl+3mlVO3AyZc5rd6z9e2qZiATAV7JlKeZYNoFZgaAeoIfH570udBz2ghi+zGrWrmwjv59dT56JSgCG6zcXYltMMK5soWgQMQyHBi6cnlqTKyzcxleriU0AfKWZgwSuVVTMBqJfNJjkaTXEIJxhkmnv3cQ0f9X6W5vj2Ka3HiY+AfD1i2mWUUwTmBQNIlauHJEuZy9on/IYZ2Wa/17qlEaVBOAUettpvAeQZCCoh1Gu5yy2EiKeUv/ws0eZ5q9JDj2rTBKAkS5O2j8Xm4cyCId3GtT+bRGjIG3Ng5EOplXefyQAoyvZuaxpU30bnFJzsYhMHROqHGx2L1uTa1LqjWRm8Waq+auWBKBCOzNpegoE/BBTNIhJkbNLatffcTSd2qKaJQGoUn9rDmt2wSndzCgaRNvkUJ5g9A/l0f49bZIEIACPVe3ygAfhsaJB/d8WsVplizHd+mpTZgilX8sspvlDkQQgyItJ0WDgUjSIcdM/lIcmY9W7uiXvLbVSIxSuJAAhSNFgWC+ErNccRfv3RTxRqT6XbXxLSf5r0usdkqe1eL0kAQhZigaD1T+nm6JBjIIy67egIJ1ECfy1PtNzeKbrf/+SANRHigaDV47wvCtP0SDW35szdOur1a5i3tsK2Um3PjVL2ewbSADqLEWDweoXDbIfGMOWbXy1O7TbJwK/Z5ItOektIwZ/EoBwpWgweNkqhEHrz96xvl+9kjA9Mp6lu0iZSv8bCUAEpGgweKVo0JtepGgQq3RofZ/RftVK7dP9TTLNT+CPkqWUc3jquHEOCUDEpGgwWCkaxEqdaYKVJI/dPINVS1OvaFtynG+MGvxJAPSkaDB45cCVBaw94mn09+9r36dxVZJtpvnjoLO4c8yYl5MAxESKBoNVRnb3UTSIzsD+fdb3a3+emOaPhyUn/Xjn2LFvKSv4C6VUqqD9oXHAY0WD+g+9LXKMaDKVWSCO4a3NlebaLWSaP06uuPHcxreWHfyFGxoa3h6BD47DpGgwjJfZwAljtB612xmZgf783cymVaVM80vSLF0PtX9LLN+S48w3sfxNFQX/oVkAJ/2E9hfAU+sXLFE0GIzeGePNeQ4fsczZ2TT9+WvQn+afyXMRK03sPmqC/w/LXvM/Fe2O8/faXwRHlqLB4H1MlgcY6cTa28zv9xjr+1W7sjgwMzadaf7YWUo520sN6Y9XHfh9OseO/e32lPOU9hfC8qRoMFiHegrQsjQWSjJ8R571/Vr0G2pRGxNPS6n0vGmOc3bNwd+n1NDwLpNRHND+Yli+FA0Gq99TQNrBav+2eLJSjMbBPNXrLX+xOybWlpz0znbH+WJggf+4JCCV/lNZU9D+kliZFA0Gr3dsqVcBrf/7Jl0p3JTCvq4W/fsijvoFsEzzx1cvLqec6zuz2TNDCf4+7en0Z81/6JD2F8bqpNNgsMqJZotZHlC6lzNeYRpLXdXJNL81rjBx+aJQA/9wpjZkPmySgN0R+OJYpRQNBiuHndRPCfzSyGlNBH73uCnX7KHmHLtcLFBO85Pp/poq/KtlekNDynyIJdoXAWt3oAUqZ5sH5fIJBa8IrSMCv61Nyha0B+Qo3gj8xnFT6iKY5rfDUsrZI1v7flUovL7ugX84nc3Nryql0j+lLsAOKRoMVlkeWERzoZplxF+9HI9tkSnngAn814a+zl8pUzOZC82HW61+gTAwKRoMTlmjlpEr1dWVOTOT9mamGPFXeL+1Ms1vkzKTKAOzlS35g+ZZuGlNa+MH3TFjfks77h/H4smTX1FKpa8yH3iv9gXD4BxonZpzV7M8ULO0US1PRvzVKf0q5FllxskO/W2tq0+1rbWY32zeJ9/pntTUoB37j6M9lWowiUC7+QL92hcQg5OiwWClTuBkGfFXeS/JltQ8o31bnG6Ueo1ydmqZZ6W/p1hYaLzcHTPmZdrxf4iOTKatPeXco30xMXhnZdl+FZTUCQx2rmzmXqpEmR2RJbo5WWaTbHHGYD+Lag+qMknACpMQfGFpW9srteP/EO0N6d8rpdKPaF9cDF4JWgsbabkayAvdPPTeYSsJSgRuzcmMEnUmlbiqpeDewzS/VXq7W4Jc8vKWBxqvlGV57fg/RIfjXGq+7MPaFxvDUdrjUjRYu1674fH2juxkXfPOfNZdzgE9FelP87NkZI9hz3yZd8n6tRMLV2jH/uO4PZ/56s2ZzLPaFx/DUYoGZf1qFUWDNStbuObn7KgT8JeN6EBZvjSXstOBma96JsD5O7smNWfVgn5Xc/MZMiUhaxT+h5IRwB3sT7VWigaDU4KmnEY4M2bthr2+EuYeWMo0f0V2m99bkqVOtvFZo39C5eNKy6U9rYX9xi/VNfCvnZBvXFvMX2cC/4un+2B0qLLfm/2e7RF4ucZZWR6Qs+3vKkS3aHAg8ct4yxj83pUptTQLvQOmeBfaojyn3oxoVA6qKuav39TQ8JpQA39va26ieVlNNYH/SLkfrNt4H1mv1Q51GqRosGYlGXh4vEkGzKhC+yCiGYPr+hL0uyNwbeIkvSHsdKbfyyKSO6Xy80IpEDQ38yXGu2t9IGTdizPX7dYvGmTPdzDKktpi88KZl8uEPpt2k/n7ZZR/r/nvLTP/XX7DypXZkQfN9ZuV1X8WMTiH3msRr3Uxz+yvggv8LYXC2mKhM+gPKZWv1AnYLUWD4SjTyVJhLNdWgrW0hZ1W4W8jMzazTYCanx/oBvkb82JbyexNTa5kydM6/XqnZXHb2dKSf39NgX9DW/qNJpP4z7XF/OFwH5qC1xKRtTF7pWiwPkpB4UqjvKzkWp+oJN2SjLF+H6wcymOfkiBLXIrr4MXE7vurDv69E3OXSsOBen5g6ZAk1dDUCditFA3K78yWMYyzXk+HZpYzbfNmv3FPJNf3K7o/+/suyL6hosDvXjHm5T3Fwk/Nv3xU88GicMZ+pSc2RYMYN7uGBir6zxAGZ1zW9yvxkabM+LKD/9K2tteaLz9X+0MPV9Y6WR6w39km636IokGMsHLAkySsldZaYHT1lyaXxm19vwwlkZmTy00sN/i/0rx879P+0KdTpovva8rGrlkKVqZsOaNoEKOiv2uJbn12KUWadxdypz6K1xIfNUlNRzqdKysB8Ir9IvChy3kgWR6wX8nM59NlDpXsHhxwUI9klzdHev9+sMqW4bISgDUTGydrf9hqZMtNMvSLBqs9RhOxXGVEKFsieafYowwmZAbnkQQNJh4xg2Tvu5eTAJhR9XztD1yL0p1Mmm7cTLZutRQNYlhKoyU5jU/7Hsfg3xdJO85clk/9VuKjJgDeQT4VtPSNurI8IEUdHRHtpY7BSNEg1irr+3Y6M8HbjLtaCt4xxP61GDUBWD1pfJP2hw5DaS7E8oD9DhUNJizLx+r12/QyY2iXNm7jq0RJeGadcE/f6Dj5EROAu/Lpi7Q/eOgPe3P+pAuDdinrfPPqfg43xsnVxYH1/aietIiVK1sykzjNf6Ly/U+V0I46A9DR0NCYlP7fj3rtOkkEbHdWduB4Yk6uQ1H278uZIx0RuDcxGAdO48smcpr/RJeYAe700yS1ZSUAcuSo9peop1Lp63XyYiRgtUktAsIB2S5sn/40v/a9FQVldluWP0e6XmUlAJIZy5q59heqt34vb4qA7JcXRzKUl6IUh7K+b48Sn2QGh90/x5RDvcpZ1i4rAZA/KJWDaxI8nTLUcjgCNzyGp3SS9CqEE5jw2uxq8+6S33UGgd8a5bdc1Mg0/3AlwZVrUu5yVtkJgDg/l038tirpACYVwhQN2q2cLXGXSfiWW9gDPEk+Lv35Wd+3StniK4XbSY9FJyrNfWZWGJcqSgBEkoBjcsZ3MqSnQPz0G/fQ78MO/UN5lrGL5ySlsU+1TaoqTgBE6SG8JgJfPCpSNJgMj/UU0L/n8NRKUk5hnz3exOFfp1Vmo+/xTsKt/vpWlQCIUkQj22e0L0KUpGgwGfqjEXoKREO/Y9+cLM+dLUrNmSy1MtA89f0u12ZGAAPOqhMAUQriZD+19gWJohQNJkNvPdI7PUz/nkuafkV/peueGE1luYZmXadXOhgGfb9PzWSyVScAvreYbI291KeWosFkKNk4LYfroxzVKgMPKvrtUDovymCJZ+fU+jPLYWxdDSQBEGWkK200mbI5vX7RIBXJdjtfipUmMDMWtPJuuZdWvdZ4s9etL+cldNr3VhSVwB92z4rAEoDhP2qSzlWuRooGk6G/e0D7fou7QyN+Du6KvZzJUcb93jowa9xZhxmuwBMA3zm5jDfi1b6YUZaiwWTo9SU3CV83dQIVKS/CxU2M+G1wOtP8Zd3vkujWc2AYWgLgK30DqA8YXYoG7VfOHljIS3BUGfHb40ym+UdVTqGU7XynO7AnTENPAER/2xSJwOhSNGi//jQoM2THS+C3Q7m/ZVaTpeCRlfN1Fta4j79W65IADN0Y6YECqcfpH1CWFA3ar3cIkXlR9iR4eUB6uUv/cqb6461/uibv95FdJu/1XDTe63VNAIYrLz4yxPKkaNB+h6ZKI3C/1cuVJvAvUB4BYRD37sABWt1M859Wv1lV1Oq91BIA31kZOj5VchNRNGi309MZbz1wtcXLZUvNi9Cb2SLwx1r/CO0kz16Npl/RH9Xjp9UTAF/p+byIY1jLlqJBu/XOOC9kvelC7XstCKW25f6mbGRfhFjBfSnLuBYnqEEohX2LYtCzIjIJwPAbTE42etySF1/YDrxYo5thYu1Kj/sHmuNZSf2YeY7vyme945W1ryNWr+xJZ5p/dL1TKGM0MItcAuBLJWnlUjRot7JNSM62f9T8zlGedpXZqbsL9WlkguHqnXXRTNAfSVmalcZGcTyFMrIJwHE3YTbNeewVSNGg/Uof/IWNWfexCHRUk2RERvpyFgLbV+OvP82/nFnYEfUPo5oV41MoY5EA+EpAYxqqfCkaTIYyMyDbih40v/XKOqzNyn0la8APNOW8Rl/Tmd63QkkqZTtmV4Rnl6Lg6sEZLhvu+1glAL5+nQAZavlSNJgcpfDottxAUe2S5rwXrKvdZdPdOrBvWUY695iX3jzz90a9sAkr05/mZ4Z1ZOO2vl+OsUwATrx5WR4oXzoNJlNJmmVNXgoKbzWjdhm532VeZneeoPzvt5ggL/fHTRaMcPD098PtnFpZlnFd3y/H2CcAvrI8sLgx665m+qpsKRpETJbSZllqNVax3XpEZcfNAwnYXTU9m81YkQD4+pktfdbLd5VJA/yu/QAAFAVJREFUmu4xLwV6sCPaqZzO+hum+UdV1vfjsH8/KK1LAIY7my6DFUnRIKI9Mhgq3+Um8EtdmfZvVm+tTgB8b/KnvVgeKFtvLzcHtCDGTt535ekPeOZk7VzfL8dEJAC+fkb8aAT2TsdFqQKnaBAx+jLjWZ5dxcE+KRn930zbRCUAxz0s2cGHhZ4CZSvTZHdQNIgYGRnUVPb+sm0bX60mNgHwlSnuhQWpiuUBKtfVQxk0swKIGs4w7y2m+UdXulRG8RjeqJj4BGC40k1tKWcPlP9wtQ6sod3Cw4VYF2Xm8iGm+UdVuhnKtvAZDFJGlATgFN7MyVcV6xcN2tAeEzFKyjS/NKJhmn90h7r18R4qSxKAkS6OUW4mzr4uX4oGEYNRznhYwPLkqMpMJNP8Vd5jJADlScvhyqVoELFyZ5p3zX1M84+qtDW/v4lapFokAajQY600ycrLtYuiQcRRnZvNeDU1PRT2jaiceLmQaf5AJAGo0o4063KVKrMnNh+sgVipMjsms2QsM/Lu0JAEIAApGqzclRQNYoKV6vRF5v7v4lCeER2qKcrynghDEoAgL6ZD0WClyjqnnEU+mwccE6DXrY9DeUZ1ZbHAAKEOkgCEJEWDlUunLrRRDuUp36EjyjmDpC6SAIQsRYOVS9Eg2uBNdOsrS5kFlMESW4frLwlAnaRosHIp/ME4erO/jY+aoBFdbQZFi0yiz4mjOpac9NFfFQqvJwGosxQNVu5KjifGCCvT/NKI5hFaiY+qt9SXZ7Svbsp5asTgTwIQrhQNVi5Fgxgl/Wd4Bc/wqM+tTPPz3EbHkuP8iAQgIlI0WLlSMDSfToOooNSn3CezeBF4DqKsnBzKNH/0LKWcg9MzmfNIACImRYPVvGQKFA1iXZQRrMxAad/zUdef5ic5j6rOP4wa/EkA9KRosHL9okG2EWGQchpf+c+ftDKeyzR/pC056Tu/PWbMb5EAxESKBiuXokGsVelHwfr+6A7NwPGsxcElpWz2DWUFf6GUShUi8KHRoWiwGqX4iFEJVqIsw0mbXhLukV0+oTDQuIvAHw9T6UdNkvbGsoO/MDWdPkv9g+NJUjRYxQvL7zRIe1E8hd76Psfwjqi8b2Sro2x51P69sBKd2Z3NzWdUFPyPzQI46/W/AJ5K/1CR1cwKlG1XseAu5hxxdIat79Omd+RnpmXwmWG0Hyul2U8plf6WO2bMy6oK/oLJHr6i/UVwZCkarFw6DSZX/xhe1vdHVq7PQmbN4urWqQ2ZD1cd+H2uzWZfbf6yjRH4QliGFA1W96JbwEFE1jtjsD8/M2anl2l+K5xx47mNb605+PtMa8hOMn/pSxH4YlimFA1WbnfRP39c//fD4Jw51J9f/x6LqnLv38/SWKwtpdLPltLpzwQW+IdTSqU+VXLSR7S/JFYuRYOVOTAKkuUBmpnE2YH+/CTAI8k0f/yVuGyC/89uaGh4UyjBf1gS8AfmP7ZP+wtjddJpsHJXmpERPQXio1/Yt5TCvtNK/Ys9llLO0g7HuSDUwH9cEtCQucQkATu0vzhWL0WDlesfRMS55dGUwr7R9Ze4buYetsGNMt1fU4V/tchBAu2p9P0RuAhYo7LeLWt/3ayPlq30FLiDg4giodS6SAHnqhb9+yKqUuRqjzL47kilr76hoeE1dQ/8w1k8efIrSo7zPeoC7NAvGlzO1GnZrjJJ0z0FTjvT8KZ0xtubTuJ6apnmt8tSytlTSqW/H/o6f6VMTaVazQd8WPsCYXBSNFj5y5aWw/VRki3Z5rqGba6nVI4oZieLPXqB33GuNYH/7dqx/rTI6UIdqcyV7Slnl/YFw+C8iaLBil3GiYShOIOtfCPqF6tOp5rfDlPObhP4f9g5duxbtON72UiWYj70FJO1HFa/gBiYstY9sKUqp/6ii4urBk8k5IVcmzOGRvz6v2kUld0OJJw26TxfSqW/WfHBPVFCThEsOelO/YuJQTuTToMVKWvU99JgpWI7M1KcmuVwnlPo7Uihmt8qTbx8wgT+q6aeffbrtON3YLSnUu81Gc1i7YuLwSsVxXfRabBs/Rar1AmMLCP+07uypeA17ZnOaN8aTdBfVXKcP5nS1vZK7XgdGh3p9MXmi87TvtgYjlI0+CDrs2XrbyPU/t2iJIH/9PrT/Nq/EQZnKeU82OE4l6vs49diYEYgfZccU6j9A2Dw+oetUDRYntQJpN2Z5p6huO9kZZpfduLQeMoq+9sdZ3ZHQ+bd2rFYlRsdJy9bG2grbKcUDVam1Anc15RN1HnrshTycHOeraYn2FXMezMhMwj81ji4lW9KR0NDo3bsjRRT0+mzzIX5jrlA27V/JAxHv2iwi05toyrBUEZ9sy2tE5DEcH4u622V1L7WUVMacN1Jtz7bfEbiW6BH89rItdnsq6emMp9vd5zuCPxoGILyYrsznzEvOv2XbRx81OsnYEciIEmgdO1bzTT/cfqFoTJbpv0bYXCWnPTj0hdHvV1v3PAaCjnOpRQM2i1Fg+UrPe4XNWa9bXHav1slyvGyMtqX43iZ5j9eWfK5n62httlv4tZCKezTjqNW0N7QMNFkUlPbU86hCPy4GILS1nVhgaLBcuwpyqxAzr0jwtvApBnNrSboyzIG+/dPdqW5z+V+n5bgok/bLKWcAxKnbmxoaNKOmVYy2F3wOxxBbK9+0aD00+9hVmBUZeZkiUkG5uez6gcRyQ6G+fmM+5tm6jxOJ4fy2KcZ7T/L+n4d6WxuPqOUyvxNeyrdq/3jY3jOHNwPTjApT5lel33iskwwNxd+EZnMPswzydpi8xs9xsmRp9Xfxke3Prs0QX95eyr1OROPXqUdExOJNE7w6gScdCdHEdurzApI85OlBJmKlBkUqSiXGosFhZwXrCWpqrRXvFx/CV5SiHhPIes+ZP4+6frIev7Irm6RZCyX6N4Otil9a/z1/UQ17ok607PZjJyYxPKA3R4rGiQZqNaeweC0wigj94fH57wll2PmvWRL/v9dLMNUrHR3vNOSXRs4oL++XxqXbdaOdTACsjzQ3pD+K/ODdWnfNBieftHgSooGMQJKUiXJ05ws6/uWudUMLL/B+n4M8c4dkOUBjiS2VpmenscWM1RSZkhkmn8G0/xWaWLGUvbvW8K08847ly6D9jtUNMi0NYbsymKBbXyWKXVk0ndG6sq0YxaEgN9lULozad9sGJ4UDWJY+qfxVVpIidHVDAyfk/qx6ZnMedoxCupERybTRnMh+6VoEGvVX9+fa+m5DEnVb9M75ZxzXqsdj0AJaS7UkUpf3e44T2vfkBiesmddDlh5nFkBLFPa9Fppvz/NzzY+GEKaOZib4or2lPNQBG5SDMnhnQa1AwxGU9lZcnejfmdFDNCUs0uOnZ/e0JDSjjUQcUoNDe8yWWK77P1Uv3ExNDmeGIfrre/nWN+3S6fbvMu/NPXss1+nHVcgZkxNp8+S5YGSk96kfyNjWPpFg8smMCuQNP1jeFnft8p+uvVBYAw/mlhaQUbgBseQlKJB6dtOTwG7lf78UhxKf36LTDm7S44zhdP4IDSmZjJZ2TLS7jjPq9/wGJrS2EXWgVfRU8AqVxfpz2+bpZSzXmZqO8aNe7N2fICEIB2iBnoKOMu1HwAMT1kekKN2l41n90Cclf7882V9PwL3FAajCfwPSuF255gxL9eOB5BgBnoKOFNKTnqf9kOB4Tk7S0+BuCmFfdIqWvvewcDcL/1bpqbTE7Tf+wDHcUNDw5tKqfRVFA3arX8Q0SoOIoqkFPbZp3mnbpF27hzKA5FnqGhQDiJy0ke0Hx4MR7+ngAQb7aCHA4FfCjgp7LNHOZRHlloXT578Cu33OkDFUDSYDCXoPCDLAxEIhElTOvZJP4cZBH4rlP4r3jR/KtWq/f4GCAQpGpSCFZMM/Eb7AcPwPNZyWD8w2m5360Dgp6LfGp+Raf7ObPZM7fc1QGhQNGi/sjxwWy7jPsrZA4Erxz3LVj5a9dqhP80/pa3tldrvZoC6QdFgMpw1dCKhfvCMs4z47dEE/YNSIzU1k7lQ+z0MoApFg8lQ1qgXN2a9Eax2MI2T3V7znqy3vKL9G2KNppxtUhNVymbHar93ASIHRYP2K8sDd+Yz7gq2EY4c+FsHRvxM9cdfaZjWkcpc2Tl27G9rv2MBIs+12eyrKRq0X7YREvgtVg7lmSezm9rvU4DYQtGg/UqXwYeakn0I0aqWgruwkGOqP+aaoP+ieV9d255KNWi/OwGsgaJB+/XqBJqy3rq3dkCul7IUckeBPv0WuFbeT1POOee12u9KAGuhaNB+p6Uz7gITFFdaWicw0K5X+vRT0R9zZZp/oXkfXe6OGfMy7XcjQKKgaNB+5TTCxyzpJ9A12LVvZkb/umINppxdsizZ0dDQqP0OBEg8Mu1mkoAvGpepvxwwFGdl0+79TbnYbSPsMZ/30fE5L5Fhmj/elpx0jwn8X+5sbj5D+50HAKeAokG7leUBOdtedg9EuWhw2YS8d2riDBr3xF2m+QHihl80aB7gjRF4iWAISlc8OXtA1tO1Ow3KQUgy0pfaBab4LTDl7PYGEuOyzdrvMgCoEooGk+G0dNorqru/Kes+3pL3pt5Dndo3LjWj/Puacu5t+Yw3M6F9DbB2SylnfUcqfXXHuHFv1n53AUCAUDSYHKcbbzEJwT1mRP6b5pw3JV/t9kKpO1hqRvdypoFM69+SJeDbpgn8D0rzsc4xY16u/Z4CgBCh02BylQ57N2cyXhCXkbvswb9zuPmse1su684xycNM82enReAzYziaoL9HpvmnZTLjtd9JAKAARYOIydI87xtkmr9z7Ni3aL9/ACACdGazZ5bS6a/TaRDRPs1zfVSq+Uup1B9IXZD2+wYAIghFg4hWud88x1Pb0+kW7XcLAMSI6dlsxju/O+Vsj8CLDBHL1AT9LebZ/c6N5za+Vfs9AgAxZqhoMOU8qP1iQ8TT61fzL548+RXa7w0AsAy/aNC8bF7Sftkhohf0D8g0/zTHKWq/HwAgARw7ntjZoP0CREyoW2WavyOff5v2+wAAEogUDZbS6cvMKOR280Lqj8BLEdFuU+n7TeD/Q6b5ASAy/Hps7n/JiISiQcRgNc/UQW9nTkPDu7SfcwCA03KsaDC9UPvFiRhrU842bydONjtW+7kGAKgIigYRK9eM9h/vSGWu7Bw79re1n2EAgJroTKffKC8083Jbo/1yRYyo/aVUep404tJ+XgEAAue4ToMp53AEXrqIuqacXSXHuXZ6Q0NK+/kEAKgLw4oGn1N/CSPWWXPfr5dDeWRLrfazCACgQmdz86soGsSk6Hfr6xwz5uXazx4AQGQojcucP1g0uFf7RY0YlH63vqnp9ATtZwwAINL4RYPmxdml/fJGrMFn6NYHAFAF7pgxL6NoEOOmuVeXTk1lPj+lre2V2s8QAEDsmXbeeedK0VS74zyt/YJHPMmUc0gS1fZ0+iLtZwUAwEooGsSI+YK3jS+TOU/72QAASAztDQ0Tzajrl+0UDWL9XdOeSv3lDQ0Nr9F+DgAAEkspm32D12kw5ayOQGBAi2UbHwBAROlIpy+maBCD1D+NzwT+C7TvbwAAGIXSuHHneEWDKecp7QCCMdVv08v6PgBA/BheNGhGcUfVgwpGXhP0N5j75aqpZ5/9Ou37FwAAAqCjoaFRRnSllLNHO8hg9PT37y+ePPkV2vcqAACEgHQabE+l/9bYqx10UD3oHzZJ4U2s7wMAJIyhokEnfUQ7GGEdTTm7ZTaoPZVq0L4HAQBAkY5xubQJCD9sd5zn1YMThulWrz//uHFv1r7nAAAgQlybzb5a1oFNoFgRgWCFgeksY30fAADKoiOVmtyeSs+kp0Bs7TeBf44s82jfSwAAEEOGegpwEFE8HDiYZ2ppXLZZ+94BAAALONZTwHlQPcjhScr2Thr3AABAqHRkMm0m2EwxI8192oEv6ZrAv10K+248t/Gt2vcFAAAkhKnp9FntqfQ1LA8oBH4n/cRUx/nrKeec81rt+wAAABLKt8eM+a0Ox7mclsP1CfzSqld2bGj/7gAAAEO0NzRMbHecG+UUOe1gaZNej37H+fMpbW2v1P6NAQAATss0xzlb1qZljVo7eMZZM+Lf1JHKXEngBwCAWCFr1O0N6b/i7IEKA3/KWW+u25/RvAcAAGKNO2bMyzoc59JSKj2POoERAv/giJ/ADwAA1jGtITvJa1ZDncCxwM+IHwAAkoJfJ5DkQ4hMIvQ4ffoBACCRSJ2ASQS+3J5y1mkH5DoF/aPGO0vp9Pu1rz0AAIA60k9gquN80gTJJdpBOiT3msD/y2mOU9S+1gAAAJGkPZ2+qD3lTCulnAMRCNw16nRL177OdPqN2tcVAAAgFnRms2fKaYTSCEc/kFfkC+2p9H+bz/0e7WsIAAAQW2R5QIKp8RdRLRqU2QrjrPZ0+hO06gUAAAgY6YpXSqcvkxF2BA4i2uqN9BvSH+9sbj5D+9oAAAAkhqmpVKtJCL5ecpz5JSe9ow4B/2aTePx9aVzmfGlwpP39AQAAEo8E5FIqVZC99SYh+JEJ1LPbU85qE7j3Vzadn37R/LvLpBBRjjw2f9cfdozLpbW/HwAAAFTIDQ0Nb5qezWZuTKffIW2JTzKTaStls2PNn3uN9mcFAAAAAAAAAAAAAAAAAAAAAAAAAAAAAAAAAAAAAAAAAAAAAAAAAAAAAAAAAAAAAAAAAAAAAAAAAAAAAAAAAAAAAAAAAAAAAAAAAAAAAAAAAAAAAAAAAAAAAAAAAAAAAAAAAAAAAAAAAAAAAAAAAAAAAAAAAAAAAAAAAAAAAAAAAAAAAAAAAAAAAAAAAAAAAAAAAAAAAAAAAAAAAACAivh/pDZcZx72G+gAAAAASUVORK5CYII=;" parent="1" vertex="1">
          <mxGeometry x="738.07" y="302.5" width="41.28" height="41.28" as="geometry" />
        </mxCell>
        <mxCell id="ICR03PwGj1cyag1lzL8s-109" value="" style="shape=image;verticalLabelPosition=bottom;labelBackgroundColor=default;verticalAlign=top;aspect=fixed;imageAspect=0;image=data:image/png,iVBORw0KGgoAAAANSUhEUgAAAgAAAAIACAYAAAD0eNT6AAAACXBIWXMAAAsTAAALEwEAmpwYAAAgAElEQVR4nO29CXgd1Xnw7zRrE7IHCHzGunNXSbaubJTQBEhME7K0hGYrSZM2adO0pF/SljbN9ydtyNLka7amafmTNHWaQvCVbCzjBQwGbLBZYxbbeJEsS94wYIMxNnjBuzzfeUcaWd6ku8zcd+bM7/c8v4enqTH3zp2Z9z3nvOc9Y8YAAAAAAAAAAAAAAAAAAAAAAAAAAAAAAAAAAAAAAAAAAAAAAAAAAAAAAAAAAAAAAAAAAAAAAAAAAAAAAAAAAAAAAAAAAAAAAAAAAAAAAAAAAAAAAAAAAAAAAAAAAAAAAAAAAAAAAAAAAAAAAAAAAAAAAAAAAAAAAAAAAAAAAAAAAAAAAAAAAAAAAAAAAAAAAAAAAAAAAAAAAAAAAAAAAAAAQOx58l1jf3tVS8ubffuy2VdrfyYAAACoAQnoayY2Tu5pbbxybWv++2uL+Y6eYuHBntbCevPP7eb/PrS2teCebH6v+TNPmj+zwvxzvvnnz8yf/ar53z/WNz6bcceMeZn2dwMAAABDT6Hw+jWtjR80Afs7JmDfLgH81MG9ds3f/4JJCBaZhOAnkhSsaWx8q/b3BwAASARdzc1nrCk2fsQE4GtNQH7ceCSsgD9qQtBaOGo+x2qTFFzX25q7bGlb22u1rw8AAIA19BWzk0yQ/aYJuPeffvpeX5OM7DOf8Q6TFHzFJAT/S/u6AQAAxAr3ijEvN4H+Ym+UH+KUfsizA/1e3UFL4aqu5ua3a19TAACASHJc0JdCvQgE8TCSgfXF9Fna1xoAAECVwaD/PuMU4/PagbouFvOHTDJwm/nn56SAUfs3AAAAqBs9LY1tMtI3QXCrekDWnRnYv7ZY6OydmLuULYYAAGAla1oazzdB/19N0N+sHXijqEkGNppr8+3uSU0N2r8VAABATaxpazxH1r1NcFuuHWDj4lC9QGvjlSuKxddp/4YAAABlIS11TQC7XKa2o7xlLw6a67jLJARTWSIAAIDI4q/r21bBHx3za6XbIUsEAACgTldb8zgTlK4xwalXP0AmQ+l8KLsI1hQbP7G0re2V2vcAAAAkBDlFb+3EwhUm6M/TbMOLYn6nt4VyQr6ofV8AAICFuGPG/JYZ6f+uCTa/NkFnj37gwxMdPO3wCxQOAgBAzUg/exPwr5ZjdLUDHJZrfrdfOKh9/wAAQIyQKn6m+O3QJAI9ksD1TcyeqX1fAQBAROlubRpvAv4PqeK30fxBSegksZP2y9r3GgAAKLOqpeXN0nCGRj3J0SR4T0uit7aYd7TvPwAAqCNS0Cfrw16jHm9kqB+UUCERGOg4uLC3mPu87OzQvi8BACAk1hQb89JIxoz8ntAOPhg1B7YTmsSwVfs+BQCAAJDjZs2L/YuyRUw/yGAsLOYfMvfLn7OdEAAghnhteaVBDHv2sWrZTggAEAt6JhXOlS1fJvD36QcPtMmeYmGNd2+15d+mfZ8DAIChq7n5VT0thT80I7U72LOPYWvusX0yK7BmYuNkTicEAFBg7YR8o7dnv7WwTTsoYEL1ZpryV6+aMOFs7ecBAMBq/EN4ZOuWCfxH1QNAFW78yAfctZOa1T8HBufg6YQL5d5cPHnyK7SfEwAAa7CpoO/JL37OPfzcNnfH9b90N1x2qfrnwYAt5rfQZAgAoAaGdehbqf5SD9i9Sx5yPfr73Zcefsjdes3Vbu8FreqfC4PTbzIkswJSp6L9PAEARJrjOvQV84e0X+JhuenTH/eC/3CO7Nzh7px6vbvxY7+v/vnq5Ybff7+76YqPqn+O8B1oMtTTUmjRfsYAACLFuvGZ8wa37yWmQ9+u2291T8f+7i732e9+0+179yT1zxm0G37vfe62H/+Lu+/xZa579KhJAP5A/TPV1/xSmdmiyRAAJBb/yN04F/TVGgiPHjx42iTAWyHYu8fdNW+u++SVX1D/vDV918suPRb0h7Fv2WPqn01Lc9+/KLMCa1oaz9d+FgEA6gJH7h5zZ/uvR0wAhnNwwzr3uf/4ibtu8rvUP3c5bvrEZe7zv7jO+9ynY8vVX1X/nNEwv7SnpXBVV3PzW7SfTwCAQNnQln6jTHvKi07/ZRsd173nne6RXbvKTgIEmTXYveCOgVmBiY3q32G4Q0F/44ZRv8fh7dvd3ndMUP/MUbKntbBf6l+kDoYmQwAQa4Zt39ur/XKNqtuv+2lFCcBwDm5+wgu46z90idrnHwr6T2yq6LM/P+Xn6tc+2ubXSl1M38TsmdrPMQBAWaxpazxHXlxmNLNe/yUafWX73+FntladBHj0H/G2E2752lVu7/khNxma1ORu/rPPen0MDj25uaqPe/TIEXf9ByerX/t4mD8oswI9xcLl7hVjXq79fAMAHIe8mIZt3zus/9KMl8/88zW1JQDDOLz9ueCbDA0G/Z0dU70mRrWy++4F6tc8jpqk+impn+me1NSg/cwDQMLpaSkUvK5nrflntV+OsXZSs3tg/emL5aqiv9+rupfthFU1GTKfaSjob98e6Ed78i//VP+ax9jhTYaWtrW9Uvs9AAAJYVNDw2uSvH0vLJ++6suBBtnh9O/e5b5w84zRm+4MD/rPPx/KZ5ECwagVL8baYn6rJOF947MZ7XcDAFjKsIK+3eovPUvdt3xpKEF3OCc2Geq9oOg+/bd/5SUI0o0wbLb98Hvq19lGJRk3icCDsttmaVvba7XfFwAQc4b68RcLK7RfcElw8+f/KPQA7CNNhvY+9ID55976/Tdfesntu+gd6tfZds3z+oIk670Tc63a7xAAiBF+P34zophqXiT7tF9mSXPPooV1C8j15oXO6erXN3kOtB7uam4+Q/vdAgARpa8lO3Zw+95G/ZdWct340Q972+RsJHl9/6Nkfrck9ZLca79rACAC+P34zcthnhntH9F/SaEo6/G2keS+/1HTPOvd3uFbbfm3ab+DAKDOyNqgeQFca9yh/TLCk13//ovd/n37tGN2oND3P3rKEp83K9CSey+thwEspu+C7BsGC/oe1H7x4Og+/9+/0I7ZgUHf/xhYzPfJrMCqCRPO1n5XAUBA0I8/nvZdeH5oe/HrDX3/46MsBfpNhhZPnvwK7fcXAFRIV3Pz2+V4URP0V2u/ULA6N3/uU+7+VSu0Y3fNeH3/FQ8rwhos5rd4nT6LeUf7nQYAIyDZ+tqJ+Y+aoH8r/fjj6QYTKJ/7j59UfLJelKHvf/z1Wg+3FuavKTZ+gtbDABFi3fjMeV5FbzG/WftFgZW77j3vdLdec7V3mp979Kh2vA4c+v7bZn6nLCn2tBRatN99AInE375HP/542vvOFq/97u4Fd7hHDx3SjtGhQd9/2x1oMrSiWHyd9jsRwHp6J+WaZE3OuF3/4ceKHHak7pEXdmrH5rpw9OBBL8mRZKf3/Gb93wBD0byPXpRZgTUtjedrvyMBrKKnUHh9bzH3ea8yNwIPO1bmxo/9vvv8L65zDz31pHY8VuXwc9u85IdugLabXyoFyF3NzW/RfncCxJZh2/f26D/UWInSyGfbj//F3ff4Mu24G0nkREK5Pusmv0v9t8Jw7Gkt7F9bLHRK62GaDAGUwabWhjdx+l487b2g1d3ytavcPfcttraXf9DIEoFcL7luLBHYbH6tFCr3Tcyeqf2OBYgUnL4XYwfX9aV3vxx1C9VzePtzg0sEH9X/XTEk8wdlVsC85y53rxjzcu13L4AaPZMK5w6evrdB/8HEStz0icvcHdf/0mtxC8HDEoH9mvfeU1LQ3D2pqUH7XQxQFyTrldG+ZME064mX6z842QtKB9au0Y6PiYElAvv1mgwNth6myRBYSffEppzXUrM1/6z2A4fl23ex3U164gRLBAmwmN8q78m+8dmM9jsboCZo1hNP/SY9u+bNdfv379eOe3AKDm5Y57VMZonATgdnBR6Ugugn3zX2t7Xf5QBl0zcx2zx4gMbz2g8SlunExoFivpk3uUdefFE7vkGZHD1wwN1913z3qa9c6a6dxBKBjZp36QuyHbp3Yq5V+90OcEr6Lsi+YXD73oPaDwxWr/TllwI/SQZk3VnW/KWJj1T5y1q0FKfJVDTb/KLH0BLBpz6mfh9hWA60Hu5qbj5D+50PMLxZz179hwPr6WjJgjQBku5/Rw8f1o6NiWNoieCSd6vfJxiG+d2ybVoKqrVjACSMVS0tb5Ys1NyEq/QfBIy8Exvddb97obvpkx/xTsbb+o9fM8nC990d/zPFffGW2e7eB+5196/pdg9ve9bqg4HqjczSSAL23L/90O278Hz9+wBDsadY6Jbt1GsaG9+qHRvAUvxmPd72PWlmEYEbH+1UOgpuuOxSb2ZBihGf/e43vZkFmd6Wg3VkZkFGuP1792jHWDVk7V+Cu1wLuSbSk0FmYGQmRq6bXD+2DSbLntbCAVoPQ6D0tub+12Czno3aNzjiifZd9A5340c/7G7+wh+b4Pe37rYffNfdt+wx7fhcNUcP7HcPPrnZ+w675s9zd0693pst2XL1V48F9guK6tcdI24x3yfv7VUTJpytHUMgZnQ1N7+qp6Xwhybo3yHbUdRvZsQK3PChS9z+ffu0Y/lJHNm1y5u5kJ4KssVSRu0yuyGzHE985hPu+kvf4y2XaF8/tMhi/pBJBG42//ywzOJqxxaIMCboF2T7ngn629RvXMQa3P7za+sW2E+cjpelCinAYzoeI2Uxv0Xe770tubR2rIGIsKmh4TU060HblGZGMpUeFi89ssTdePkHvXoF7e+KWInDmwwtbWt7rXYMAgW6W5vGD7bm3aF9QyKG4VN/9eehJQBP/82X1L8fYq0ONRlqzU3UjkkQMhva0m8c3L63TPvGQ6yHe+5ZEHjwP7R1C133lHxsQt69qzHn/ud557p3Fxx3TVH/M9ljfmlPS+Gqrubmt2jHKggQmvVgUl0fQkGgrO9rf68kudoE+Qeb8+6t+Zw7K5d1Z+ez7j+e+TbP7779LHeac567dEJO/XPaYk9rYT/bCWOOyeLeLtmcCfqrtW8oRE23X/fvgQV/OZ5Xmhppfyfb7TFBf+mEgruwKecFfAn8vsMTAN9/Ml439hz3zrzMCuTVP7895nvZThgTjmvW423/0L55EPXtfccE9+CmjYEkALtunaP+fWx2VUveva85584dHO2fytm5kxOA4f7z2We5U1Nj3YfHZ9S/jy2ahOyIFIpLwfjiyZNfoR3rYBh9LdmxkqWZoL9J+0ZBjKJPfekLgSQAmz/3KfXvYps9xkfHy9r+qQN+pQnAcH9y7tvdW7MNbhe1AsFZzG+VAvK+8dmMduxLLH3Z7KvND/Fp4wKa9SCO7u6Fd9UU/A+sXaP+HWxypQnKMtq/JV9e4K8mAfD99tlnujekxrpLxmfVv7ctetsJWwt390wsfFa2k2vHxESwdkK+0WvWUyw8p30DJEVpvbr+fRd6DV1k77d0bfPd/Od/4j555ReMf3bc/77xY7/v/fn1H3iv2/fuSerfAWsvCHzmO99Q/w5xd01rZaP9oBKAU88KUCsQlCYevcjphCFBs57glYAu07lPX/Vl99nvf9d9fsrP3Rfnzho4ma57tddE5sjOHcGdTtff77WClY5xB3q63Zce/s1AO9hf/2qg1/v/9/deP/sNv/c+tpiF6Pbrflrdz7d7l9v3ronqnz+urmwZGO3PrTLon2gtCYDvtwZnBR5qZlYgSE2M6pElaSlE146dscbbvteav9a4U/tHjaMycn/iM590n/n2P7nP/2qK16ZVgm//3r3BBPWQkKTj4MYN7p77Frs7Sze4z/7LP7tPfvFzbt/F71S/pnHXKwg017ZS5FAe7c8eN2WPfq2j/TATgFPNCqxmViAwhxcOyvky2vE0FvjNekwWtVz7B4yTfb/T6j75F593n/v3f/VOUZNDV+Q8dNs4tOVpd8/iu93n/+tn3uzFusnvUr/2cVOWbCri6FF34x98SP1zx8UVLXl3UVPenRNw0A8zAfD95llvc6eMO9dd1JhWv452aQaxxfyUvmJ2knaMjSRDzXqK+Zf0f6zou+69v+MFQBmZ7V+1wj16+HA4ETfqmOB0cON698VZM9yt11w9sIQQgd8n6u5ecGfZl3jvQw+of96o221G+0vG59zbC6ffvheHBGC4Pzr3bHdmZpy7soUmQ0HaUyx0e7vW2vJv0467qvRMKpy7ptj4j2a0v177R4mDmz5xmdeFTY5TTWzALwOpM3jh5hneMbNyKI727xZF139wstv/0ktlXU9JNLU/b1Stx2hfKwHwvebMY7MCPRG45rYoHQeN09dMbPxAYo4qliYKJgO63GRAt5jR/mHtHyHSTmx0N//pZ9wXZnS4h7c/F3LYtBOpd5Dah6f/7iskAyf43LX/Nur1O/TMVooyT/DYaL++QV8rARjuD84ZmBWQxEf7d7DKYv4Jkwx8p3tSU4N2jA6FdeMz5w0263lC/WJHXNlC9/x//5e33g3BIbsQXpzV6RUUSnKl/TtrO1AQuH7Eaya7BrQ/Z1T0R/uzR+jSZ3sCwKxAuA4eVbxQBsmxP4dAtu+taWn8jPlS97B9bxQnNXnFWVL5LuvaEC4HNz/hLackfWeB9G84HbIbQ7aLan9GTaWvvoz2b6vT2n5cEoDhfv+cs90Z6fPcZRxIFKgmCVhh4uYXlra1vVI7lldE76RcE816ylOq95/76Y+8I1ah/vTv2e3ubP+1u/7S96jfC1ruvmv+Ka/NrttvVf9sGsqIduggnggE+1P5jQgE/hP9xlnDDyTS/x2tsZjfLDvjIn0GQU+h8Pre1txfmofnYfULFgNl+vXZ737TPfzctjqHPDgVMtqVwsH1779I/d6ot+vff7Hbv3fPSddk8+f/SP2z1dOuwWN351XYmpcE4GS/N3hM8bIJNBkKSq9YfmLhCu1YfxxrJjW+23ywX61tze/RvkBxccv/+TuvuAqihxQNyvG5kqBp3yf1VPpHDOdAb4/6Z6qHcRjtxzEB8OWY4jDM39k1qTmrFvS7mpvPMA/Ol2SNQv9ixEeZZt599wKl0AaVcGBdn7v5c59Wv2fqZe/5ze6Bvt6h7y+zU9qfKUxXD472b43BaD/OCcBwvzs4K/AYtQI1O7iF8Et1Dfyytr+2mL/OBP5d2hcgbj7zza9HvgUvnEB/v7vjxuu94Kh9/9RDOdhJClClLsLGvv/mvTU02tcO4LX6TxEI6MwKRMBi/vrQTyKU9oVy0pH0Nlb/wjFTgseO63+pHcqgBvYteywx1fC777jN3dl+o/rnCNK4j/ZtSwCG++2zz/IOJHp4fEb9Pomv+XmhFAiaoH+JbOHT/4LxVI7BfemRJdrxCwJAejIkoR++LFPZ8D1lbT+sg3iioC0JwHD9A4m6mRWo5n7/VXCBv6VQWFssdGp/qTgrRWTSQx3s4fCzz3DWQMRdZYKHHLt7i0Wj/VN5zVn6ATu8WYGBY4p/wzHFldmSf39NgV9O4lvbmv8FLXprdFKTu+feRdrxCkJAGgitu+Td+vcYDmn7aD9pCcCpZgW6mBUo5zm4v+rgLwcSmL/gSe0vYYPb/vUH2nEKQkSOI9a+x7DgriwWvNH+XMtH+0lOAHy/NTQrQK3A6ZQ2wn0XZN9QUeB3rxjz8p5i4d9p1RuMG37//WWfsgbxRXo5aN9rSXRNa/JG+yQAJ88KzMk2uKs4pvgkH2nKjC87+C9ta3utdypfBD64Le6aN1c7NkEdkCOHZalH+35LiitbBtb250Yg+EbBb5x9lnog1nb4gUTa92cUlG2uc3K5iWUF/67m5lfJmoH2h7ZJOVimf/9+7dgEdUIOb9K+52z22LG78d+3H7TXkAAMKcsDt+Qa1O9XbR+dkHc70ulcWQmAV+wXgQ9tk8/88zXaMQnqyK5b56jfczbqH7s7JwKBNqoyA0CB4InOy2XKSwBkf7/2h7VROUwGksPBjevV7zlbPDba1w+ucTCpCQBbBE/tI+PzbruTLjsBmK/9gW1UqsMhORzZtUv9nrNBCf73xOwwHm2TtgRAk6DTu8o8Pzel0+UlAN5BPrT0DUUO+kkWR3buUL/nbHJoFiDPmj8JAG2Cy7GrpeDOzma84F9WArB60vgm7Q9tqzs7pmrHJKgjB3q61e85W6UOIJkJgH9Q0O35lNtV1L8Po6xcn1mZY8FfvNFx8iMmAHfl0xdpf3Bb3fK1q7RjEtSRndNK6vec7fqzAvOpDTg+ATjLrgSAo4IrUxLkm08I/mXNAHQ0NDTKnlrtL2Cj0v9fpoUhGWz69MfV77kkyayAXQkAxwJX55LmvDs9nT4p+JedANyVp4IyLHdOvV47LkEd2N+1Sv1eS6rSDfDhCcnuBhjnBOB7g6P9pYz2K77v7zb3/KkCf0UJQIf5gytb9L+QjfZd9A738LZnteMThEl/v7v5Tz+jfq+hzAoUEtkhMG4JwDfOOjba72G0X7HLW/InrfdXnQDIH5TKwTUUWYTi03/zJe0QBSGy44b/Vr/H8HiTdkbAtyIQ1Mvx++ec7c5In+cuY7Rf9X29yNzTHaME/ooTAHG+uZF6IvAlbXTH/0zRjlMQAi89/JDb+84W9fsLT28STgmMcgIwvEc/8aV6pbnPzDJG/VUnACQB4bqzdIN2vIIA2b9qhdv37knq9xWWp7zXbJ0ViGIC8AMz2p+ZGecVa2r/9nFWGvvcma8s8FedAIjSQ3hNBL64dU5qcne2/1o7bkEAvPTIEu+wJ/V7Cqty1eBpgrdYMisQlQSA0X5weh0xC1l32mkq/ENLAETZU7h8gv5FsNGtX/8HTgmMMXLGQ2/bePX7CGtXjkxdat5zC6X1cIyTgW8qB/4fnTsw2l/Zwtp+zfek8UFzP86oIfDXnACI04z3N/GDhuETn/mkd3gMxIcjL7zgbrn6q+r3DobjapMMPNicd2+NYethjQTgm2cdG+1r/3Y2KMnoQ825itf5R3JqJpOtOgHwvSWbYR0nBGUU+dx//MQ9evCgdmyDUdi94A533e9eqH7PYPjKCMyfFdAO7FFMAPyDeFazfS+w+22JCfyn6uQXiQTAnw1Y1JijNiAEN378Mnfv/Yu1YxycggN9ve5TX/4L9XsEdewanBWYF/HlgW+fFW7Q/9bgsbsPcexuYErgfyikwB94AjC8NuCR8SwLhOHmz33Kfenh32jHPDAc2vK0++x3v+mundSsfl+gvsNnBaJ4THFYCYA/2u9itB/ovfRAU7BT/XVLAHzn5DLmgeCmCMMnv/g5d8/iu123/4h2HEwc0tJ36z/9H7f3fAI/nloJht6sQCE6SwRBJgDfHhztLxnPaD9IZfZcauo6AyjuU08AfKVvAPUB4bj+0ve4z//iOq/4DMLj6KFD3hr/k1d+Qf03x3g5dCCR8hJBEAnAsdG+/nW1SUkY7zbJ4k11DPx1SwBEaUt4e55EICyl09zTf/tX7q55c9k+GCD7u7vcbT/+F3f9+yjuw9r0jym+XWkHwbfOOrOqoP/dsweP3WW0H7hyyu7CGvfxxyIBGEoEzBedbxKBx+kfEJpyuNAz3/pHd899i0kGKqX/iLvv8WXuc//+r+6GD12i/luinWocU1xJAsCxu+G6bELeGxB3KAZ+lQRguHOzFAuGbe8FRfep//1Fd+e0knvwyc3a4TWSHNm5w9112y3u1q9/1V333gvUfzNMjv6swPxCNBIAjt0NT7/N9LzcyMfzJiYB8JUjC6WrEdsHw3f9+y/2lgp2XP9Lb6R79PBh7fhbdw5vf85bz5ep/Sc+8wmv/bL274IY9qzA6RKA4aN9jt0NXolrspVvVjb8iv5YJgC+N6UzXh+Brhb9Hy0pynLBk3/5p+62f/2Bu+vWOe6B3rX2JAVHj7qHnnrS3b3wLnf7z/7DS3ykaFL7miOOpASMhycEfyDRt88+67jA/38HR/vLWNsPRWmCJPFMo7AvlgmArxQMyslGj7OFUMXed0xwN33qY+6Wr/2t+9y1/+a+OHum+9LSR93D257VDumn5MiLL7r7V690d82f5z7/Xz/ztuhJv4S+C9vUryViLa5oGTymOKAE4Btnnen+/LxzB9f29b+fjS43cetOKeyLQHCPZQIwPBG4NUedQJSU5GD9hy4xAfbT7tN/9xV32w++6z7/y//0Dr/Zfdd8d+9DD7j7Vq7wzjA4/Nw298iuXe7RAwfKCuRHjxzx/vyRHc+7Bzc/4e7vXu2+9PBD7u4Fd3pJyI5f/4+77cff93rtb/7CH7sbL/+g2/c7rerXBDFsZWr+4fF5947G6nYQ3JbPunOyDe7j7MIK5/dpjeb6fqwTgOHOzqa9dRSOj4y5k5rdde9555BSpKj+mRBj5MpioaxjiqWWQLoSLmXHVWgeW9/XD+RWJwC+0iHpXpMFd1Osgpg4pd/Fpk9c5m752lXeIVnS90J6NchslPZnq7f+qPPEWoHbC1mvC2E3U/yhubol796j1Lgn0QmAr18nsJw6AUTrlGJN6booZy3s7JjqLQVJQacUdp6ItMTW/rzarhpsPUyjtXCN2/q+tQnAcGdnMiwPIMZM2YEi2zBPHM3379tXfgHozh10acTQjev6fiISAF9ZHljcmHVXM/WFGBkrGc1XypZ/+Bv174d2Krsk5ES+MI/ijYLTs9mMFQmAr3/uACcRItbH047mQ2xFLX0rtL832qes78dh/z4JQBnOpssgYmCGOZqvBOlJIbtItK8H2uNyE/ilrqwjAnGLBCBgpcvg3Y1ZdxXLA4gj2nfxO4dG83LUtLRNDns0XxEm2XjqK3+pfp0w/krd2JLmnDsnZ/c0f+ITAF9/eUCKOrRvPkQte89vdjdcdmkkRvOV8sKMDvXrh/G2q5j3tpN3ZvRjkraJSgCGOzs7uDxATwG01NON5o8eiMhovkIOPf2U2/fuSerXFeOpjdv4SABqVIo9FpqbYhV7aDGGDh/NywmH0pZ5aDRvE/397uY//xP1643xsqdY8NrJ35rgaX4SgDK9PZd1l3L2AEZQKcoaUPkAACAASURBVHqzaTRfKTtu+G/13wDjY5cJ/IubskzzjyIJwCmUvZ+0HMZ6e7rR/OHtz2nHX1XkcCnOjcByHJrmTzPiL0cSgJEujlFuJk7RwiA9/Wi+vJMTk4ScEvnEZ/9Q/TfD6CrV/EzzVxnjSADKk5bDWIm9beMZzQfA9p9fq/5bYjSVA4/ub5JqfgJ/tZIAVOgMv6cAswLYemw0v/Waq90d1/+S0XyA7F/T7SVS2r8xRsuV5t27kGn+QCQBqNKOdNo7IIKeAvZ7+tH8du0YaS1HDx50N33yI+q/PUZD//hjWw/l0ZIEIAApGrTDU43mD25Y561DQ33Z9pMfqt8PqG+3Ufq1zMrqv+dtlAQgyIvpUDQYBzd+9MPeSXLb//9/8w6V2b96pdu/e5d2zINB9i191F07qUn9PkE9VxYL3lLrdKb5w41ZJADhSNFgdJUz5OXUukNbt2jHOjiB/n373I0f+YD6PYI6yimu0q69IyGn8WlLAhCyFA1GWDPKlHX9PfctjnwP/KQgZxOo3xdYV+W0VhkszaKav+6SANRJigajrYw6Zd3/yAsvaMfAxLJ3yUPu2omN6vcC1sfVZlC0qDHntWPXfj8n0ZKTPvqrQuH1JAB1lqLB6Nr7zhavQc++Fcu142GikBqM9R+6RP33x/BdbgL/nXlG++qmnKdGDP4kAOFK0WC0lR0BsuWvf38y+u1rsvXr/6D+e2N4yjT/kuacOzdL4I+KJcf5EQlARKRoMLrKsbqy/9+6E/Yiwp5FC9V/YwzH1cW8N9s5g/X9SFlKOQdvTKfHkQBETIoGI+xg0aD0B6A3QDAc2bnDXfe7F+r/thio/jR/RwTeqXgKU6mvjRr8SQD0pGgw2q7/wHu9g3wkgEH1bPnqX6v/lhiMMnvJNH8svOvbY8b8FglATKRoMLr6RYPSGhgq48VbZqv/fli7q4sF7/3USTV/HFxSymbfUFbwF0qpVCECHxodigaj7hN/9PGBosF9+7Rja+Q5vO1Zr/Wy9m+G1bt8QsF7H00j8MfDVPpRk6S9sezgL0xznLPVPzieJEWD0bXvwjavoc2B9eu042w0OXrUferLf6H+O2HlyvvmkfE599Yc0/zx0pnd2dx8RkXBf2gWwHE26H8BPJVSXbuoMes11dB+OeDJbv6zz1I0eAI7p7er/y5Ymd2D1fydVPPHSmn2U0qlv+WOGfOyqoK/MNVx/lr7i+DIUjQYbde//2Lv/IHDz2zVjr+qyFbKvndPUv89sDxXmIHFQm+an8AfQ7dObch8uOrA73NDQ8NrTCaxKQJfCMuQosHo2vuOCceKBpN2/kB/v7v5C3+s/hvgyMo0vwwkZECh/S7Dqp1x47mNb605+PuUxmXON0nAvgh8MSxTigajrRxL7J0/sCsZRxHv+J8p6tccT293seDe35RzZzLNH1tLqfSzpXT6M4EF/uG0pzKfNknAEe0viZVL0WB07bvw/IGiwd612jE6NA5uWOf2XlBUv9Z4siuZ5o+9EpdN8P/ZDQ0Nbwol+A9LAj7KTEB8pdNgtJXzB3bNm+sePXxYO2YHhhRAPvGZT6pfWzwm0/z2WEo5Szsc54JQA/9wSg2ZS0wSsEP7i2P1UjQYbde/70KvaPDQ1i3a8btmtl/37+rXEwfsNj7YlHNn0a3PBjfKdH9NFf7VMj2TOa89lb4/AhcBa3RWNu2t/ckaoPYLCk9w8PyBPfctjmXR4P413W5v23j965hwpZp/QSHr1QVpv2+wNmXw3ZFKXy3F+XUP/MNZPHnyK0qO8z3qAuzQLxpcPoFZgSi68fIPDhQNvvCCdlwvi6MHDribPnGZ+nVLskzz22Mp5ewppdLfD32dv1KmplKt5gM+rH2BMDgpGoyuUky39Zqr3QM93doxfkS2/fj76tcqiR6b5td/j2DteoHfca41gf/t2rH+tMjpQh2pzJXtKWeX9gXD4LyJosFIK0WD3vkD+/drx/vj2Ld8qbd8oX19kuTKYsF7VqdTzW+FHSnn4E2ZzJTOsWPfoh3fy6Y0btw5JSf9S5YF7FLO9Zb+39IHXPtFhyfbd/E7zYj7X9xDTz+lHfu9w5A2fOQD6tckKS6dkHdvz2e9wl7t9wTW7k3md1zUOLwmK7+0p7Xxyp5C4fXa8b1s5BhhkwR0al9MDN6ZdBqMroNFg3L+gNuvc/7AM/98jf51sNw1Rlmim0XTHmuUcxbua8q5a077Xs3vWVvM32C8WDu+l01HKjXZJAL3al9cDN5pxrvoNBhZ13/gve7zv7jOPbJzR92C/97fPOiundio/t1tdWVLwb3bPHM3Mdq3xllV1Vvle82f/05XW/M47RhfFh3p9MWlVHqe9sXGcJSiwQe97FX/JYnH2/vOlmPnD4RI/+5d7voPTlb/vjbqT/NrP+cYnHOztS+pmiSg3yQD83on5i7VjvFlITMC7an0Au2Lj+E4w4xMKBqMrk/80ccHigb37Qs8Adhy9VfVv59NyohwiRkZzqVpjzVKLdXt+Yy7LIQGbOZ+ebi3mPsj94oxL9eO86MyzXGKJceZQlthO6VoMNr2XfSOgfMH1q8LJPjvuWeB+neyxa5i3qux6czoP8cYjLJcKj1WVtRhYGQSgY1SNBjpRGBTQ8NrzAf945UtuYfuacweZU3LXv2iwa4W/ZcrnuzmP/usVzQoPfur4ciO5911v3uh+veIu8snFLwgMS0CzywGo5y9sqgxq/Lu6ykWutcUGz+iHeuPo3dirnVtMX/d2tb8zuEfVqpaH2zO07zCYr0sOJ/xXnTaL1s82fWXvsc7f+Dws89UlAA8/fd/rf7Z46pM88ssmcyWaT+fGJyzs4M1UVG4x4qFOarFgjLa7y3mPm+C/pJyHgjaV9ovRYPRtfcdE44VDY5y/sCLc25W/7xxVPZ4y/kbnWzjs8ZoL3vm90oMrmvg723Jpc1o/8cmA9lezYeWnvR3SIOLCPy4GI6y9CNnkVM0GE03fvTD3vkDUuF/IjJTIA2ItD9jnFxp7nO536fRrc8aJT5JnHo8BmeomFj8867m5leFGvh7WgotZiQ/1QT/w0F86NXFvLeOQotLe/WzZ6l67mFWIHL2XXj+QNFg79qB6H/0qPvU//6i+ueKi7KNj1lNu7xJcX2/Fs37da4c5Bd44O8t5n5H9iSa4H80jA8u6ykybXYz02ZWOzOdpmgwwj75xc+5z37vW+qfI+r63fp4X9nl7Gw69gelyUxAYIFfCgxkxB9W4D+VUidA/2u7Hdgzm/VGT9oPDGK5rm7Je73c2dlkl9Fd36/SWlsKrygWX2dG/D8xHtT6EpyAlQyPFQ2SDGA0XW4Cv+xy0X5WMDiPre/r31+BW8wvqjr4m6B/kRnxr1f/EoPKdNsDLA9Yr180uJKiQYyAfre+OWzjs8oZJo4sjuH6fkX3brFwpKu5+YyKAr87ZszLTObwf+Vf1v4Cp5O+2fYrmbkUVT0yPh/rtTiMp13FggkQOa/Ri/azgME5NNMYgXusHi5vzjaXHfz7stlXm5ftTdofulwH1uI4Oct2h4oG2T2AIStLjmzjs0upI5PBxKMh9OePsjJwmpvNTior+Mu2ATPyX6D9oavR7zI4m0M1rJaiQQxLf1aRomN7vMk/uCyhA4el43NyP+fKSgB6ioWfan/gIJRCHZoL2S9Fg1ir0o9Cqr7nZFlOtMmhNr0JfzfIrEdZCUDPxMKF2h82aFdz4lYinJ4eOIUrDl26MBrSptc+/ZqhpE3zn065DnJNykoA1rbmb9H+wGHJmdvJcHinQe17DqOp7Cy5m5ohq5QBwAJajR+nHDc9YzC5HTUBkL3+Ua74D9JlE3LufJYHrJfjiXG4y6SpWI71fZuUU2UfYJr/JKVQes6wwe6oCcDatgmN2h+63q42F2lgeYBZAZv1iwYl8dO+57C++sfwMvNnj9E+jU/fbpMMzTnhfr/RcfIjJgB35fMXaX9wLTmaODlK0WDc+3vj6Ho7gmgYZpXTHep8RnNlS8GddYp7ftQZgI6GhsaVTJWyPpgQpbFLkrcG2erAiaI5WoZbpN//o5tp/hGVZmmnu+/LSgCkiEL7S0TFYz0F9B8ADE+ZTpzP8kDsXW5GhdT12KUs23Bs+OjKbKY0whvp3i8rAZhm/iBVlCfrHf7hdQXTfygwPNk3HD+lcQ9Ld/YoMcg7lIc4VJZyncppfFdWAiB/UJphJKU/cqVKZeV97Bu2Xv8gIpLhaOoX9tG4xx5lu9oiyw/lCfoZuLep/BmvshMA8Q6WAka9+FI0SMtQu6WpSLSU504KOGdR0W+NXifPZp6vSnzMvI8qLW6tKAEQZRpG+4vGQYoGk6E8cPcn6PSwKCnX3OvYxzNmhZzlUZ1y6N2d+eqS34oTAPE28x9bQwFGWcpLivPC7ZeWw/V9pu6lot8aZeeNN81PTKnsORjc2TKthmtfVQIgynQbBRmVSdGg/Q4tD5AIBK4ECLby2aM/zU/vjcqVouQZAdScVZ0AiHIm9oP0Vq9YigaT4dDugQjcc3G2u5URvy0yzV+bS8YH28RqaiaTrToB8J2Xy1AZXYUUDSZDydQXN1HJXKnd3hRn1lte0f4NscZnwPyGNNiqXtndMjuEAWMgCYAoswGSpdOcoTopGrRfGf1Isc7jE/TvtyjLiN8epWHaQA8N/fsqbvrbWsNsOhdYAnDsB8+wPaoGKRpMhhxacrIEfjtkm2ztyrbWepxXEXgC4CsvuOWs89QkRYP269UJJLwQalVLwZv9Yqo/3srvt4BGWVUrg796BX7f0BIAUda178xnvelt7YsbZykatF+pE5AOXkk62ESWQu6kT3/slYB1H62yq7Z7cDufxvJvqAmAr7/2SSJQmxQN2q/s6bV5FDWwrpl3b2OJK9bKO51lrNo8dkKl3u9YlwRg+E1zl8wIUBBSsxQN2q+cYveYJctoMosl6/szuV9j7XRnoOHVCksT1Hr4+GDnvijMfNU1AfClSCQ4ZdpNejGUc/ITxtNZ2bTX8jZundJkR9CjZoTIcbzxl5bXtRvFEypVEoDhSuB6iGZCgUjRoN3KVtv55gUi065RLhpcZl50cmriDKr5Yy/T/LU5dFBVROu31BMA34FjH3OJKoIKS79ocGZEbzqsXdkqJ8merKdr77GWUaGM9KV2YWZG/9pgjfeW459rof8ui6v+kldnxJ+HyCQAw28+zlwPRooGk6HM+Eg3zvubst76YtjNuOS+kulMSTLlYLBpjPStUOoz7mUQVpNSm7XQm4WNxzMRuQTA168ToGd0cDcmRYPJUJLoW0xCcI95Ef2mOedNyVf7UpeRzFIzupdubvJiuyVLwLfNueY3leZjdHGt3iiu75djZBOA4UoPZOoEgpFOg8lVkj8p5pIgLiP3O0xAv3O4+ax7m3mJyb0ho8FajhnFaCu/7R35LCe61mCP/y6NcQF2LBIAX3kpSSVqN5lqIFI0iJgspUaDaf7alFmxxeYa2lDkGqsEwJe9qCHc0HQaRLTWW80o9eGEt5yu1bit75djLBOA4bJ+FZwUDSLao9RRMc1fu7K+b+s7MfYJgK8/tcWZ68Eo3RopGkSMnwNbqrO8C2vQhvX9cpyezWasSAB8pbjFO3OdrDcQ/aLBuZY/CIhxV4ql5WRJ7XdGnF3t799PyMDHugRguP7ygPZNZYvHigZJBhCjoD/Nz9HrNb7b5GTKBBZEW50A+PpdBuPWSz2qHus0qP/bIibRoWl+3mlVO3AyZc5rd6z9e2qZiATAV7JlKeZYNoFZgaAeoIfH570udBz2ghi+zGrWrmwjv59dT56JSgCG6zcXYltMMK5soWgQMQyHBi6cnlqTKyzcxleriU0AfKWZgwSuVVTMBqJfNJjkaTXEIJxhkmnv3cQ0f9X6W5vj2Ka3HiY+AfD1i2mWUUwTmBQNIlauHJEuZy9on/IYZ2Wa/17qlEaVBOAUettpvAeQZCCoh1Gu5yy2EiKeUv/ws0eZ5q9JDj2rTBKAkS5O2j8Xm4cyCId3GtT+bRGjIG3Ng5EOplXefyQAoyvZuaxpU30bnFJzsYhMHROqHGx2L1uTa1LqjWRm8Waq+auWBKBCOzNpegoE/BBTNIhJkbNLatffcTSd2qKaJQGoUn9rDmt2wSndzCgaRNvkUJ5g9A/l0f49bZIEIACPVe3ygAfhsaJB/d8WsVplizHd+mpTZgilX8sspvlDkQQgyItJ0WDgUjSIcdM/lIcmY9W7uiXvLbVSIxSuJAAhSNFgWC+ErNccRfv3RTxRqT6XbXxLSf5r0usdkqe1eL0kAQhZigaD1T+nm6JBjIIy67egIJ1ECfy1PtNzeKbrf/+SANRHigaDV47wvCtP0SDW35szdOur1a5i3tsK2Um3PjVL2ewbSADqLEWDweoXDbIfGMOWbXy1O7TbJwK/Z5ItOektIwZ/EoBwpWgweNkqhEHrz96xvl+9kjA9Mp6lu0iZSv8bCUAEpGgweKVo0JtepGgQq3RofZ/RftVK7dP9TTLNT+CPkqWUc3jquHEOCUDEpGgwWCkaxEqdaYKVJI/dPINVS1OvaFtynG+MGvxJAPSkaDB45cCVBaw94mn09+9r36dxVZJtpvnjoLO4c8yYl5MAxESKBoNVRnb3UTSIzsD+fdb3a3+emOaPhyUn/Xjn2LFvKSv4C6VUqqD9oXHAY0WD+g+9LXKMaDKVWSCO4a3NlebaLWSaP06uuPHcxreWHfyFGxoa3h6BD47DpGgwjJfZwAljtB612xmZgf783cymVaVM80vSLF0PtX9LLN+S48w3sfxNFQX/oVkAJ/2E9hfAU+sXLFE0GIzeGePNeQ4fsczZ2TT9+WvQn+afyXMRK03sPmqC/w/LXvM/Fe2O8/faXwRHlqLB4H1MlgcY6cTa28zv9xjr+1W7sjgwMzadaf7YWUo520sN6Y9XHfh9OseO/e32lPOU9hfC8qRoMFiHegrQsjQWSjJ8R571/Vr0G2pRGxNPS6n0vGmOc3bNwd+n1NDwLpNRHND+Yli+FA0Gq99TQNrBav+2eLJSjMbBPNXrLX+xOybWlpz0znbH+WJggf+4JCCV/lNZU9D+kliZFA0Gr3dsqVcBrf/7Jl0p3JTCvq4W/fsijvoFsEzzx1cvLqec6zuz2TNDCf4+7en0Z81/6JD2F8bqpNNgsMqJZotZHlC6lzNeYRpLXdXJNL81rjBx+aJQA/9wpjZkPmySgN0R+OJYpRQNBiuHndRPCfzSyGlNBH73uCnX7KHmHLtcLFBO85Pp/poq/KtlekNDynyIJdoXAWt3oAUqZ5sH5fIJBa8IrSMCv61Nyha0B+Qo3gj8xnFT6iKY5rfDUsrZI1v7flUovL7ugX84nc3Nryql0j+lLsAOKRoMVlkeWERzoZplxF+9HI9tkSnngAn814a+zl8pUzOZC82HW61+gTAwKRoMTlmjlpEr1dWVOTOT9mamGPFXeL+1Ms1vkzKTKAOzlS35g+ZZuGlNa+MH3TFjfks77h/H4smTX1FKpa8yH3iv9gXD4BxonZpzV7M8ULO0US1PRvzVKf0q5FllxskO/W2tq0+1rbWY32zeJ9/pntTUoB37j6M9lWowiUC7+QL92hcQg5OiwWClTuBkGfFXeS/JltQ8o31bnG6Ueo1ydmqZZ6W/p1hYaLzcHTPmZdrxf4iOTKatPeXco30xMXhnZdl+FZTUCQx2rmzmXqpEmR2RJbo5WWaTbHHGYD+Lag+qMknACpMQfGFpW9srteP/EO0N6d8rpdKPaF9cDF4JWgsbabkayAvdPPTeYSsJSgRuzcmMEnUmlbiqpeDewzS/VXq7W4Jc8vKWBxqvlGV57fg/RIfjXGq+7MPaFxvDUdrjUjRYu1674fH2juxkXfPOfNZdzgE9FelP87NkZI9hz3yZd8n6tRMLV2jH/uO4PZ/56s2ZzLPaFx/DUYoGZf1qFUWDNStbuObn7KgT8JeN6EBZvjSXstOBma96JsD5O7smNWfVgn5Xc/MZMiUhaxT+h5IRwB3sT7VWigaDU4KmnEY4M2bthr2+EuYeWMo0f0V2m99bkqVOtvFZo39C5eNKy6U9rYX9xi/VNfCvnZBvXFvMX2cC/4un+2B0qLLfm/2e7RF4ucZZWR6Qs+3vKkS3aHAg8ct4yxj83pUptTQLvQOmeBfaojyn3oxoVA6qKuav39TQ8JpQA39va26ieVlNNYH/SLkfrNt4H1mv1Q51GqRosGYlGXh4vEkGzKhC+yCiGYPr+hL0uyNwbeIkvSHsdKbfyyKSO6Xy80IpEDQ38yXGu2t9IGTdizPX7dYvGmTPdzDKktpi88KZl8uEPpt2k/n7ZZR/r/nvLTP/XX7DypXZkQfN9ZuV1X8WMTiH3msRr3Uxz+yvggv8LYXC2mKhM+gPKZWv1AnYLUWD4SjTyVJhLNdWgrW0hZ1W4W8jMzazTYCanx/oBvkb82JbyexNTa5kydM6/XqnZXHb2dKSf39NgX9DW/qNJpP4z7XF/OFwH5qC1xKRtTF7pWiwPkpB4UqjvKzkWp+oJN2SjLF+H6wcymOfkiBLXIrr4MXE7vurDv69E3OXSsOBen5g6ZAk1dDUCditFA3K78yWMYyzXk+HZpYzbfNmv3FPJNf3K7o/+/suyL6hosDvXjHm5T3Fwk/Nv3xU88GicMZ+pSc2RYMYN7uGBir6zxAGZ1zW9yvxkabM+LKD/9K2tteaLz9X+0MPV9Y6WR6w39km636IokGMsHLAkySsldZaYHT1lyaXxm19vwwlkZmTy00sN/i/0rx879P+0KdTpovva8rGrlkKVqZsOaNoEKOiv2uJbn12KUWadxdypz6K1xIfNUlNRzqdKysB8Ir9IvChy3kgWR6wX8nM59NlDpXsHhxwUI9klzdHev9+sMqW4bISgDUTGydrf9hqZMtNMvSLBqs9RhOxXGVEKFsieafYowwmZAbnkQQNJh4xg2Tvu5eTAJhR9XztD1yL0p1Mmm7cTLZutRQNYlhKoyU5jU/7Hsfg3xdJO85clk/9VuKjJgDeQT4VtPSNurI8IEUdHRHtpY7BSNEg1irr+3Y6M8HbjLtaCt4xxP61GDUBWD1pfJP2hw5DaS7E8oD9DhUNJizLx+r12/QyY2iXNm7jq0RJeGadcE/f6Dj5EROAu/Lpi7Q/eOgPe3P+pAuDdinrfPPqfg43xsnVxYH1/aietIiVK1sykzjNf6Ly/U+V0I46A9DR0NCYlP7fj3rtOkkEbHdWduB4Yk6uQ1H278uZIx0RuDcxGAdO48smcpr/RJeYAe700yS1ZSUAcuSo9peop1Lp63XyYiRgtUktAsIB2S5sn/40v/a9FQVldluWP0e6XmUlAJIZy5q59heqt34vb4qA7JcXRzKUl6IUh7K+b48Sn2QGh90/x5RDvcpZ1i4rAZA/KJWDaxI8nTLUcjgCNzyGp3SS9CqEE5jw2uxq8+6S33UGgd8a5bdc1Mg0/3AlwZVrUu5yVtkJgDg/l038tirpACYVwhQN2q2cLXGXSfiWW9gDPEk+Lv35Wd+3StniK4XbSY9FJyrNfWZWGJcqSgBEkoBjcsZ3MqSnQPz0G/fQ78MO/UN5lrGL5ySlsU+1TaoqTgBE6SG8JgJfPCpSNJgMj/UU0L/n8NRKUk5hnz3exOFfp1Vmo+/xTsKt/vpWlQCIUkQj22e0L0KUpGgwGfqjEXoKREO/Y9+cLM+dLUrNmSy1MtA89f0u12ZGAAPOqhMAUQriZD+19gWJohQNJkNvPdI7PUz/nkuafkV/peueGE1luYZmXadXOhgGfb9PzWSyVScAvreYbI291KeWosFkKNk4LYfroxzVKgMPKvrtUDovymCJZ+fU+jPLYWxdDSQBEGWkK200mbI5vX7RIBXJdjtfipUmMDMWtPJuuZdWvdZ4s9etL+cldNr3VhSVwB92z4rAEoDhP2qSzlWuRooGk6G/e0D7fou7QyN+Du6KvZzJUcb93jowa9xZhxmuwBMA3zm5jDfi1b6YUZaiwWTo9SU3CV83dQIVKS/CxU2M+G1wOtP8Zd3vkujWc2AYWgLgK30DqA8YXYoG7VfOHljIS3BUGfHb40ym+UdVTqGU7XynO7AnTENPAER/2xSJwOhSNGi//jQoM2THS+C3Q7m/ZVaTpeCRlfN1Fta4j79W65IADN0Y6YECqcfpH1CWFA3ar3cIkXlR9iR4eUB6uUv/cqb6461/uibv95FdJu/1XDTe63VNAIYrLz4yxPKkaNB+h6ZKI3C/1cuVJvAvUB4BYRD37sABWt1M859Wv1lV1Oq91BIA31kZOj5VchNRNGi309MZbz1wtcXLZUvNi9Cb2SLwx1r/CO0kz16Npl/RH9Xjp9UTAF/p+byIY1jLlqJBu/XOOC9kvelC7XstCKW25f6mbGRfhFjBfSnLuBYnqEEohX2LYtCzIjIJwPAbTE42etySF1/YDrxYo5thYu1Kj/sHmuNZSf2YeY7vyme945W1ryNWr+xJZ5p/dL1TKGM0MItcAuBLJWnlUjRot7JNSM62f9T8zlGedpXZqbsL9WlkguHqnXXRTNAfSVmalcZGcTyFMrIJwHE3YTbNeewVSNGg/Uof/IWNWfexCHRUk2RERvpyFgLbV+OvP82/nFnYEfUPo5oV41MoY5EA+EpAYxqqfCkaTIYyMyDbih40v/XKOqzNyn0la8APNOW8Rl/Tmd63QkkqZTtmV4Rnl6Lg6sEZLhvu+1glAL5+nQAZavlSNJgcpfDottxAUe2S5rwXrKvdZdPdOrBvWUY695iX3jzz90a9sAkr05/mZ4Z1ZOO2vl+OsUwATrx5WR4oXzoNJlNJmmVNXgoKbzWjdhm532VeZneeoPzvt5ggL/fHTRaMcPD098PtnFpZlnFd3y/H2CcAvrI8sLgx665m+qpsKRpETJbSZllqNVax3XpEZcfNAwnYXTU9m81YkQD4+pktfdbLd5VJA/yu/QAAFAVJREFUmu4xLwV6sCPaqZzO+hum+UdV1vfjsH8/KK1LAIY7my6DFUnRIKI9Mhgq3+Um8EtdmfZvVm+tTgB8b/KnvVgeKFtvLzcHtCDGTt535ekPeOZk7VzfL8dEJAC+fkb8aAT2TsdFqQKnaBAx+jLjWZ5dxcE+KRn930zbRCUAxz0s2cGHhZ4CZSvTZHdQNIgYGRnUVPb+sm0bX60mNgHwlSnuhQWpiuUBKtfVQxk0swKIGs4w7y2m+UdXulRG8RjeqJj4BGC40k1tKWcPlP9wtQ6sod3Cw4VYF2Xm8iGm+UdVuhnKtvAZDFJGlATgFN7MyVcV6xcN2tAeEzFKyjS/NKJhmn90h7r18R4qSxKAkS6OUW4mzr4uX4oGEYNRznhYwPLkqMpMJNP8Vd5jJADlScvhyqVoELFyZ5p3zX1M84+qtDW/v4lapFokAajQY600ycrLtYuiQcRRnZvNeDU1PRT2jaiceLmQaf5AJAGo0o4063KVKrMnNh+sgVipMjsms2QsM/Lu0JAEIAApGqzclRQNYoKV6vRF5v7v4lCeER2qKcrynghDEoAgL6ZD0WClyjqnnEU+mwccE6DXrY9DeUZ1ZbHAAKEOkgCEJEWDlUunLrRRDuUp36EjyjmDpC6SAIQsRYOVS9Eg2uBNdOsrS5kFlMESW4frLwlAnaRosHIp/ME4erO/jY+aoBFdbQZFi0yiz4mjOpac9NFfFQqvJwGosxQNVu5KjifGCCvT/NKI5hFaiY+qt9SXZ7Svbsp5asTgTwIQrhQNVi5Fgxgl/Wd4Bc/wqM+tTPPz3EbHkuP8iAQgIlI0WLlSMDSfToOooNSn3CezeBF4DqKsnBzKNH/0LKWcg9MzmfNIACImRYPVvGQKFA1iXZQRrMxAad/zUdef5ic5j6rOP4wa/EkA9KRosHL9okG2EWGQchpf+c+ftDKeyzR/pC056Tu/PWbMb5EAxESKBiuXokGsVelHwfr+6A7NwPGsxcElpWz2DWUFf6GUShUi8KHRoWiwGqX4iFEJVqIsw0mbXhLukV0+oTDQuIvAHw9T6UdNkvbGsoO/MDWdPkv9g+NJUjRYxQvL7zRIe1E8hd76Psfwjqi8b2Sro2x51P69sBKd2Z3NzWdUFPyPzQI46/W/AJ5K/1CR1cwKlG1XseAu5hxxdIat79Omd+RnpmXwmWG0Hyul2U8plf6WO2bMy6oK/oLJHr6i/UVwZCkarFw6DSZX/xhe1vdHVq7PQmbN4urWqQ2ZD1cd+H2uzWZfbf6yjRH4QliGFA1W96JbwEFE1jtjsD8/M2anl2l+K5xx47mNb605+PtMa8hOMn/pSxH4YlimFA1WbnfRP39c//fD4Jw51J9f/x6LqnLv38/SWKwtpdLPltLpzwQW+IdTSqU+VXLSR7S/JFYuRYOVOTAKkuUBmpnE2YH+/CTAI8k0f/yVuGyC/89uaGh4UyjBf1gS8AfmP7ZP+wtjddJpsHJXmpERPQXio1/Yt5TCvtNK/Ys9llLO0g7HuSDUwH9cEtCQucQkATu0vzhWL0WDlesfRMS55dGUwr7R9Ze4buYetsGNMt1fU4V/tchBAu2p9P0RuAhYo7LeLWt/3ayPlq30FLiDg4giodS6SAHnqhb9+yKqUuRqjzL47kilr76hoeE1dQ/8w1k8efIrSo7zPeoC7NAvGlzO1GnZrjJJ0z0FTjvT8KZ0xtubTuJ6apnmt8tSytlTSqW/H/o6f6VMTaVazQd8WPsCYXBSNFj5y5aWw/VRki3Z5rqGba6nVI4oZieLPXqB33GuNYH/7dqx/rTI6UIdqcyV7Slnl/YFw+C8iaLBil3GiYShOIOtfCPqF6tOp5rfDlPObhP4f9g5duxbtON72UiWYj70FJO1HFa/gBiYstY9sKUqp/6ii4urBk8k5IVcmzOGRvz6v2kUld0OJJw26TxfSqW/WfHBPVFCThEsOelO/YuJQTuTToMVKWvU99JgpWI7M1KcmuVwnlPo7Uihmt8qTbx8wgT+q6aeffbrtON3YLSnUu81Gc1i7YuLwSsVxXfRabBs/Rar1AmMLCP+07uypeA17ZnOaN8aTdBfVXKcP5nS1vZK7XgdGh3p9MXmi87TvtgYjlI0+CDrs2XrbyPU/t2iJIH/9PrT/Nq/EQZnKeU82OE4l6vs49diYEYgfZccU6j9A2Dw+oetUDRYntQJpN2Z5p6huO9kZZpfduLQeMoq+9sdZ3ZHQ+bd2rFYlRsdJy9bG2grbKcUDVam1Anc15RN1HnrshTycHOeraYn2FXMezMhMwj81ji4lW9KR0NDo3bsjRRT0+mzzIX5jrlA27V/JAxHv2iwi05toyrBUEZ9sy2tE5DEcH4u622V1L7WUVMacN1Jtz7bfEbiW6BH89rItdnsq6emMp9vd5zuCPxoGILyYrsznzEvOv2XbRx81OsnYEciIEmgdO1bzTT/cfqFoTJbpv0bYXCWnPTj0hdHvV1v3PAaCjnOpRQM2i1Fg+UrPe4XNWa9bXHav1slyvGyMtqX43iZ5j9eWfK5n62httlv4tZCKezTjqNW0N7QMNFkUlPbU86hCPy4GILS1nVhgaLBcuwpyqxAzr0jwtvApBnNrSboyzIG+/dPdqW5z+V+n5bgok/bLKWcAxKnbmxoaNKOmVYy2F3wOxxBbK9+0aD00+9hVmBUZeZkiUkG5uez6gcRyQ6G+fmM+5tm6jxOJ4fy2KcZ7T/L+n4d6WxuPqOUyvxNeyrdq/3jY3jOHNwPTjApT5lel33iskwwNxd+EZnMPswzydpi8xs9xsmRp9Xfxke3Prs0QX95eyr1OROPXqUdExOJNE7w6gScdCdHEdurzApI85OlBJmKlBkUqSiXGosFhZwXrCWpqrRXvFx/CV5SiHhPIes+ZP4+6frIev7Irm6RZCyX6N4Otil9a/z1/UQ17ok607PZjJyYxPKA3R4rGiQZqNaeweC0wigj94fH57wll2PmvWRL/v9dLMNUrHR3vNOSXRs4oL++XxqXbdaOdTACsjzQ3pD+K/ODdWnfNBieftHgSooGMQJKUiXJ05ws6/uWudUMLL/B+n4M8c4dkOUBjiS2VpmenscWM1RSZkhkmn8G0/xWaWLGUvbvW8K08847ly6D9jtUNMi0NYbsymKBbXyWKXVk0ndG6sq0YxaEgN9lULozad9sGJ4UDWJY+qfxVVpIidHVDAyfk/qx6ZnMedoxCupERybTRnMh+6VoEGvVX9+fa+m5DEnVb9M75ZxzXqsdj0AJaS7UkUpf3e44T2vfkBiesmddDlh5nFkBLFPa9Fppvz/NzzY+GEKaOZib4or2lPNQBG5SDMnhnQa1AwxGU9lZcnejfmdFDNCUs0uOnZ/e0JDSjjUQcUoNDe8yWWK77P1Uv3ExNDmeGIfrre/nWN+3S6fbvMu/NPXss1+nHVcgZkxNp8+S5YGSk96kfyNjWPpFg8smMCuQNP1jeFnft8p+uvVBYAw/mlhaQUbgBseQlKJB6dtOTwG7lf78UhxKf36LTDm7S44zhdP4IDSmZjJZ2TLS7jjPq9/wGJrS2EXWgVfRU8AqVxfpz2+bpZSzXmZqO8aNe7N2fICEIB2iBnoKOMu1HwAMT1kekKN2l41n90Cclf7882V9PwL3FAajCfwPSuF255gxL9eOB5BgBnoKOFNKTnqf9kOB4Tk7S0+BuCmFfdIqWvvewcDcL/1bpqbTE7Tf+wDHcUNDw5tKqfRVFA3arX8Q0SoOIoqkFPbZp3mnbpF27hzKA5FnqGhQDiJy0ke0Hx4MR7+ngAQb7aCHA4FfCjgp7LNHOZRHlloXT578Cu33OkDFUDSYDCXoPCDLAxEIhElTOvZJP4cZBH4rlP4r3jR/KtWq/f4GCAQpGpSCFZMM/Eb7AcPwPNZyWD8w2m5360Dgp6LfGp+Raf7ObPZM7fc1QGhQNGi/sjxwWy7jPsrZA4Erxz3LVj5a9dqhP80/pa3tldrvZoC6QdFgMpw1dCKhfvCMs4z47dEE/YNSIzU1k7lQ+z0MoApFg8lQ1qgXN2a9Eax2MI2T3V7znqy3vKL9G2KNppxtUhNVymbHar93ASIHRYP2K8sDd+Yz7gq2EY4c+FsHRvxM9cdfaZjWkcpc2Tl27G9rv2MBIs+12eyrKRq0X7YREvgtVg7lmSezm9rvU4DYQtGg/UqXwYeakn0I0aqWgruwkGOqP+aaoP+ieV9d255KNWi/OwGsgaJB+/XqBJqy3rq3dkCul7IUckeBPv0WuFbeT1POOee12u9KAGuhaNB+p6Uz7gITFFdaWicw0K5X+vRT0R9zZZp/oXkfXe6OGfMy7XcjQKKgaNB+5TTCxyzpJ9A12LVvZkb/umINppxdsizZ0dDQqP0OBEg8Mu1mkoAvGpepvxwwFGdl0+79TbnYbSPsMZ/30fE5L5Fhmj/elpx0jwn8X+5sbj5D+50HAKeAokG7leUBOdtedg9EuWhw2YS8d2riDBr3xF2m+QHihl80aB7gjRF4iWAISlc8OXtA1tO1Ow3KQUgy0pfaBab4LTDl7PYGEuOyzdrvMgCoEooGk+G0dNorqru/Kes+3pL3pt5Dndo3LjWj/Puacu5t+Yw3M6F9DbB2SylnfUcqfXXHuHFv1n53AUCAUDSYHKcbbzEJwT1mRP6b5pw3JV/t9kKpO1hqRvdypoFM69+SJeDbpgn8D0rzsc4xY16u/Z4CgBCh02BylQ57N2cyXhCXkbvswb9zuPmse1su684xycNM82enReAzYziaoL9HpvmnZTLjtd9JAKAARYOIydI87xtkmr9z7Ni3aL9/ACACdGazZ5bS6a/TaRDRPs1zfVSq+Uup1B9IXZD2+wYAIghFg4hWud88x1Pb0+kW7XcLAMSI6dlsxju/O+Vsj8CLDBHL1AT9LebZ/c6N5za+Vfs9AgAxZqhoMOU8qP1iQ8TT61fzL548+RXa7w0AsAy/aNC8bF7Sftkhohf0D8g0/zTHKWq/HwAgARw7ntjZoP0CREyoW2WavyOff5v2+wAAEogUDZbS6cvMKOR280Lqj8BLEdFuU+n7TeD/Q6b5ASAy/Hps7n/JiISiQcRgNc/UQW9nTkPDu7SfcwCA03KsaDC9UPvFiRhrU842bydONjtW+7kGAKgIigYRK9eM9h/vSGWu7Bw79re1n2EAgJroTKffKC8083Jbo/1yRYyo/aVUep404tJ+XgEAAue4ToMp53AEXrqIuqacXSXHuXZ6Q0NK+/kEAKgLw4oGn1N/CSPWWXPfr5dDeWRLrfazCACgQmdz86soGsSk6Hfr6xwz5uXazx4AQGQojcucP1g0uFf7RY0YlH63vqnp9ATtZwwAINL4RYPmxdml/fJGrMFn6NYHAFAF7pgxL6NoEOOmuVeXTk1lPj+lre2V2s8QAEDsmXbeeedK0VS74zyt/YJHPMmUc0gS1fZ0+iLtZwUAwEooGsSI+YK3jS+TOU/72QAASAztDQ0Tzajrl+0UDWL9XdOeSv3lDQ0Nr9F+DgAAEkspm32D12kw5ayOQGBAi2UbHwBAROlIpy+maBCD1D+NzwT+C7TvbwAAGIXSuHHneEWDKecp7QCCMdVv08v6PgBA/BheNGhGcUfVgwpGXhP0N5j75aqpZ5/9Ou37FwAAAqCjoaFRRnSllLNHO8hg9PT37y+ePPkV2vcqAACEgHQabE+l/9bYqx10UD3oHzZJ4U2s7wMAJIyhokEnfUQ7GGEdTTm7ZTaoPZVq0L4HAQBAkY5xubQJCD9sd5zn1YMThulWrz//uHFv1r7nAAAgQlybzb5a1oFNoFgRgWCFgeksY30fAADKoiOVmtyeSs+kp0Bs7TeBf44s82jfSwAAEEOGegpwEFE8HDiYZ2ppXLZZ+94BAAALONZTwHlQPcjhScr2Thr3AABAqHRkMm0m2EwxI8192oEv6ZrAv10K+248t/Gt2vcFAAAkhKnp9FntqfQ1LA8oBH4n/cRUx/nrKeec81rt+wAAABLKt8eM+a0Ox7mclsP1CfzSqld2bGj/7gAAAEO0NzRMbHecG+UUOe1gaZNej37H+fMpbW2v1P6NAQAATss0xzlb1qZljVo7eMZZM+Lf1JHKXEngBwCAWCFr1O0N6b/i7IEKA3/KWW+u25/RvAcAAGKNO2bMyzoc59JSKj2POoERAv/giJ/ADwAA1jGtITvJa1ZDncCxwM+IHwAAkoJfJ5DkQ4hMIvQ4ffoBACCRSJ2ASQS+3J5y1mkH5DoF/aPGO0vp9Pu1rz0AAIA60k9gquN80gTJJdpBOiT3msD/y2mOU9S+1gAAAJGkPZ2+qD3lTCulnAMRCNw16nRL177OdPqN2tcVAAAgFnRms2fKaYTSCEc/kFfkC+2p9H+bz/0e7WsIAAAQW2R5QIKp8RdRLRqU2QrjrPZ0+hO06gUAAAgY6YpXSqcvkxF2BA4i2uqN9BvSH+9sbj5D+9oAAAAkhqmpVKtJCL5ecpz5JSe9ow4B/2aTePx9aVzmfGlwpP39AQAAEo8E5FIqVZC99SYh+JEJ1LPbU85qE7j3Vzadn37R/LvLpBBRjjw2f9cfdozLpbW/HwAAAFTIDQ0Nb5qezWZuTKffIW2JTzKTaStls2PNn3uN9mcFAAAAAAAAAAAAAAAAAAAAAAAAAAAAAAAAAAAAAAAAAAAAAAAAAAAAAAAAAAAAAAAAAAAAAAAAAAAAAAAAAAAAAAAAAAAAAAAAAAAAAAAAAAAAAAAAAAAAAAAAAAAAAAAAAAAAAAAAAAAAAAAAAAAAAAAAAAAAAAAAAAAAAAAAAAAAAAAAAAAAAAAAAAAAAAAAAAAAAAAAAAAAAACAivh/pDZcZx72G+gAAAAASUVORK5CYII=;" parent="1" vertex="1">
          <mxGeometry x="61.360000000000014" y="181" width="41.28" height="41.28" as="geometry" />
        </mxCell>
        <mxCell id="ICR03PwGj1cyag1lzL8s-110" value="Redis" style="text;html=1;strokeColor=none;fillColor=none;align=center;verticalAlign=middle;whiteSpace=wrap;rounded=0;" parent="1" vertex="1">
          <mxGeometry x="52" y="208.99999999999994" width="60" height="30" as="geometry" />
        </mxCell>
        <mxCell id="GCwFVfFe83SU07aIN0Hp-1" value="&lt;font style=&quot;font-size: 18px;&quot;&gt;HELM&lt;/font&gt;" style="rounded=1;whiteSpace=wrap;html=1;" vertex="1" parent="1">
          <mxGeometry x="529" y="-166" width="120" height="60" as="geometry" />
        </mxCell>
        <mxCell id="GCwFVfFe83SU07aIN0Hp-2" style="edgeStyle=orthogonalEdgeStyle;rounded=0;orthogonalLoop=1;jettySize=auto;html=1;entryX=0.625;entryY=0.2;entryDx=0;entryDy=0;entryPerimeter=0;exitX=0;exitY=0.5;exitDx=0;exitDy=0;" edge="1" parent="1" source="GCwFVfFe83SU07aIN0Hp-1" target="nN1L02kMa0WjFF6xDIdd-15">
          <mxGeometry relative="1" as="geometry" />
        </mxCell>
        <mxCell id="GCwFVfFe83SU07aIN0Hp-3" style="edgeStyle=orthogonalEdgeStyle;rounded=0;orthogonalLoop=1;jettySize=auto;html=1;entryX=0.625;entryY=0.2;entryDx=0;entryDy=0;entryPerimeter=0;exitX=1;exitY=0.5;exitDx=0;exitDy=0;" edge="1" parent="1" source="GCwFVfFe83SU07aIN0Hp-1" target="ICR03PwGj1cyag1lzL8s-66">
          <mxGeometry relative="1" as="geometry" />
        </mxCell>
      </root>
    </mxGraphModel>
  </diagram>
</mxfile>
